<svg xmlns="http://www.w3.org/2000/svg" xmlns:xlink="http://www.w3.org/1999/xlink" viewBox="0 0 403.05 424.35"><defs><style>.cls-1{isolation:isolate;}.cls-13,.cls-2,.cls-28,.cls-30{opacity:0.4;mix-blend-mode:multiply;}.cls-2{fill:url(#Degradado_sin_nombre_12);}.cls-3{fill:#6b9ce8;}.cls-4{fill:#82acff;}.cls-5{fill:#bbf1ff;}.cls-6{fill:#c7f4ff;}.cls-7{fill:#97c1ff;}.cls-8{fill:#8db9ff;}.cls-9{fill:#ff5d9e;}.cls-10{fill:#8f71ff;}.cls-11{fill:#4f7cb2;}.cls-12{fill:#4268a0;}.cls-13,.cls-29{fill:#ccc;}.cls-14{fill:#345882;}.cls-15{fill:#ff7bb7;}.cls-16{fill:#ffead4;}.cls-17{fill:#ed5197;}.cls-18{fill:#9280ff;}.cls-19{fill:#79d9e8;}.cls-20{fill:#90e1f4;}.cls-21{fill:#d9faff;}.cls-22{fill:#a2ecf9;}.cls-23{fill:#fff;}.cls-24{fill:#a399ff;}.cls-25{fill:#6e5bdd;}.cls-26{fill:#836ef9;}.cls-27{fill:#ffa4d2;}.cls-30{fill:url(#Degradado_sin_nombre_12-2);}</style><linearGradient id="Degradado_sin_nombre_12" x1="286.3" y1="234.3" x2="293.61" y2="221.6" gradientUnits="userSpaceOnUse"><stop offset="0" stop-color="#fff" stop-opacity="0"/><stop offset="0.12" stop-color="#f6f6f6" stop-opacity="0.17"/><stop offset="0.35" stop-color="#e7e7e7" stop-opacity="0.46"/><stop offset="0.56" stop-color="#dcdcdc" stop-opacity="0.7"/><stop offset="0.75" stop-color="#d3d3d3" stop-opacity="0.86"/><stop offset="0.9" stop-color="#cecece" stop-opacity="0.96"/><stop offset="1" stop-color="#ccc"/></linearGradient><linearGradient id="Degradado_sin_nombre_12-2" x1="94.06" y1="383.4" x2="99.82" y2="373.4" xlink:href="#Degradado_sin_nombre_12"/></defs><g class="cls-1"><g id="Layer_2" data-name="Layer 2"><g id="OBJECTS"><polygon class="cls-2" points="399.02 270.11 371.2 286.25 184.96 178.72 212.98 162.49 399.02 270.11"/><path class="cls-3" d="M212.31,159.78l-4-153.26c0-4.1,8.41-8,12-6l180.1,103.86a5.32,5.32,0,0,1,2.66,4.62V263.77c0,4.09-7.46,9.46-11,7.41L215,164.39A5.3,5.3,0,0,1,212.31,159.78Z"/><path class="cls-4" d="M208.23,162.13V7.52a5.33,5.33,0,0,1,8-4.61l180.1,103.86a5.32,5.32,0,0,1,2.66,4.61V266.11a5.33,5.33,0,0,1-8,4.62l-180.1-104A5.33,5.33,0,0,1,208.23,162.13Z"/><polygon class="cls-5" points="211.91 161.22 211.91 6.85 383.57 105.86 383.57 260.34 211.91 161.22"/><polygon class="cls-6" points="301.63 58.6 211.91 148.31 211.91 161.22 268.07 193.65 365.99 95.72 301.63 58.6"/><polygon class="cls-6" points="380.6 104.15 282.67 202.08 296.21 209.9 383.57 122.54 383.57 105.86 380.6 104.15"/><path class="cls-3" d="M334.91,158.22l-.13-.07.13.07m-1-.58.13.07-.13-.07m1.42.8-.16-.08.16.08m-1.83-1.05.17.1-.17-.1m2.21,1.26-.17-.09.17.09m-2.59-1.5.19.12-.19-.12m3,1.7-.18-.1.18.1m-3.35-1.94.2.13-.2-.13m4.3,2.41-.78-.38.78.38m.37.18-.26-.12.26.12m.37.17-.28-.13.28.13m11.43-13.33h0m-27.22-36-.18,5.33-1.32-.77a1.47,1.47,0,0,1-.67-1.15v-3.88c0-.43.3-.6.67-.39l1.49.86m-.85-9.55s.31-11.6,8.16-11.16a8.6,8.6,0,0,1,3.71.8c2.23,1.29-.47,3.62-.47,3.62a22.13,22.13,0,0,1,6.84,2l.06,0c2.64,1.52-.07,3-.07,3a15.06,15.06,0,0,1,2.55,1.15,5.73,5.73,0,0,1,2.18,1.93,1.75,1.75,0,0,1-.68,2.56,24.26,24.26,0,0,1,3.22,11.35l0,8.47-.89-.51-.15-5.33a16.67,16.67,0,0,0-7.52-12.66l-8.15-4.7c-4.13-2.39-7.55-.61-7.75,4l-.17,5-.87-.5,0-8.48c0-.2,0-.37,0-.56h0m13.48-15c-17.32-10-31.41-2-31.47,17.94-.05,19.22,13,42.48,29.47,53.07a63.14,63.14,0,0,1-17.53-17.76c1.89-5.27,6.06-8,11.39-7.55-2.91-4.21-4.78-9.3-4.74-13.78,0-.18,0-.36,0-.54l.41-11.82c.2-4.64,3.62-6.42,7.75-4l8.15,4.7a16.67,16.67,0,0,1,7.52,12.66l.2,6.81h0l0-1.48,1.49.86a1.47,1.47,0,0,1,.68,1.16l0,3.88c0,.43-.3.6-.67.38l-1.32-.76,0-.92.07,2.52c0,.19,0,.37,0,.56,0,4.26-1.68,7.11-4.35,8.11a48.29,48.29,0,0,1,12.22,21.58c-4.51,1.46-10,1-16-1.73,15.73,7.13,28-1.11,28.06-19.69.06-19.91-13.94-44.16-31.27-54.17"/><path class="cls-7" d="M341.59,139.84c-2.06.77-4.7.43-7.6-1.24l-.39-.23a23.12,23.12,0,0,1-7.13-6.84c-5.33-.46-9.5,2.28-11.39,7.55a63.14,63.14,0,0,0,17.53,17.76l.12.07.2.13.18.11.19.12.19.12.17.1.24.15.13.07.38.22.37.22.13.07.25.14.16.08.21.12.17.09.2.1.18.1.17.09.78.38.11.06.26.12.09,0,.28.13.05,0c6,2.71,11.48,3.19,16,1.73a48.29,48.29,0,0,0-12.22-21.58"/><polyline class="cls-4" points="349.2 146.34 349.2 146.34 349.2 146.34"/><path class="cls-8" d="M338.05,106.06l-8.15-4.7c-4.13-2.39-7.55-.61-7.75,4l-.41,11.82.19-5.44a32.58,32.58,0,0,0,8.22,11.46c.85-.79,2.18-.85,3.68,0a9.78,9.78,0,0,1,3.68,4.24c3.43,1,6.35.23,8.26-2l-.2-6.81a16.67,16.67,0,0,0-7.52-12.66"/><path class="cls-8" d="M322,110.34l-1.49-.86c-.37-.21-.67,0-.67.39v3.88a1.47,1.47,0,0,0,.67,1.15l1.32.77.18-5.33"/><path class="cls-8" d="M347.21,124.91l-1.49-.86,0,1.48h0l.09,3.12,0,.92,1.32.76c.37.22.67,0,.67-.38l0-3.88a1.47,1.47,0,0,0-.68-1.16"/><path class="cls-4" d="M333,90.43a8.6,8.6,0,0,0-3.71-.8c-7.85-.44-8.16,11.16-8.16,11.16h0c0,.19,0,.36,0,.56l0,8.48.87.5.17-5c.2-4.64,3.62-6.42,7.75-4l8.15,4.7a16.67,16.67,0,0,1,7.52,12.66l.15,5.33.89.51,0-8.47a24.26,24.26,0,0,0-3.22-11.35,1.75,1.75,0,0,0,.68-2.56,5.73,5.73,0,0,0-2.18-1.93,15.06,15.06,0,0,0-2.55-1.15s2.71-1.45.07-3l-.06,0a22.13,22.13,0,0,0-6.84-2s2.7-2.33.47-3.62"/><path class="cls-4" d="M333.82,128.27a4.54,4.54,0,0,1-2-3c-.06-.29.11-.45.35-.32l3.29,1.91a.77.77,0,0,1,.36.72c-.21.93-1,1.25-2,.68m11.95-2.74h0c-1.91,2.18-4.83,2.93-8.26,2a9.78,9.78,0,0,0-3.68-4.24c-1.5-.86-2.83-.8-3.68,0a32.58,32.58,0,0,1-8.22-11.46l-.19,5.44c0,.18,0,.36,0,.54-.06,7.52,5.24,16.79,11.87,20.62l.39.23c6.63,3.82,12,.69,11.95-6.87,0-.19,0-.37,0-.56l-.07-2.52-.09-3.12"/><path class="cls-8" d="M335.47,126.87,332.18,125c-.24-.13-.41,0-.35.32a4.54,4.54,0,0,0,2,3c1,.57,1.8.25,2-.68a.77.77,0,0,0-.36-.72"/><path class="cls-9" d="M280.86,77.33,232,49.11c-3.46-2-6.27-.39-6.28,3.58A13.75,13.75,0,0,0,232,63.5l44,25.39a18.53,18.53,0,0,1,6.15,6.26l2,3.24a3.38,3.38,0,0,0,1.18,1.2c.91.53,1.79.21,1.79-1l0-10.43a13.75,13.75,0,0,0-6.24-10.81"/><path class="cls-10" d="M282.18,107.86,243.6,85.59c-2.73-1.57-4.95-.31-5,2.83A10.87,10.87,0,0,0,243.57,97l34.71,20a14.55,14.55,0,0,1,4.86,4.94l1.6,2.56a2.67,2.67,0,0,0,.92.94c.72.42,1.42.17,1.42-.8l0-8.24a10.86,10.86,0,0,0-4.92-8.53"/><path class="cls-9" d="M280.86,128.91,232,100.7c-3.46-2-6.27-.4-6.28,3.57A13.73,13.73,0,0,0,232,115.08l44,25.39a18.62,18.62,0,0,1,6.15,6.26l2,3.24a3.38,3.38,0,0,0,1.18,1.2c.91.53,1.79.21,1.79-1l0-10.44a13.76,13.76,0,0,0-6.24-10.81"/><path class="cls-10" d="M283,159.32l-32-18.49c-2.27-1.31-4.11-.26-4.12,2.34a9,9,0,0,0,4.09,7.09l28.83,16.64a12.17,12.17,0,0,1,4,4.1l1.33,2.13a2.41,2.41,0,0,0,.76.79c.61.34,1.18.13,1.18-.67l0-6.84a9,9,0,0,0-4.09-7.09"/><path class="cls-11" d="M362.06,186.48l-60.33-34.83c-2.17-1.26-3.93-.25-3.94,2.24a8.61,8.61,0,0,0,3.91,6.78L362,195.5c2.16,1.25,3.93.25,3.94-2.24a8.65,8.65,0,0,0-3.92-6.78"/><path class="cls-12" d="M342.9,191.76l-31.39-18.12c-1.13-.66-2.05-.13-2.05,1.16a4.49,4.49,0,0,0,2,3.53l31.38,18.12c1.13.65,2.05.13,2.05-1.17a4.48,4.48,0,0,0-2-3.52"/><polygon class="cls-4" points="339.72 202.81 301.36 180.66 301.35 185.31 339.7 207.46 339.72 202.81"/><polygon class="cls-4" points="342.22 204.26 342.21 208.91 353.08 215.18 353.09 210.53 342.22 204.26"/><polygon class="cls-4" points="301.32 193.04 317.58 202.43 317.59 197.78 301.34 188.39 301.32 193.04"/><polygon class="cls-4" points="320.5 204.11 344.78 218.13 344.79 213.48 320.52 199.46 320.5 204.11"/><polygon class="cls-4" points="347.62 219.77 353.05 222.91 353.07 218.26 347.63 215.12 347.62 219.77"/><polygon class="cls-4" points="301.3 200.77 315.38 208.9 315.39 204.25 301.32 196.12 301.3 200.77"/><polygon class="cls-4" points="318.02 210.43 323.45 213.56 323.46 208.91 318.03 205.77 318.02 210.43"/><polygon class="cls-13" points="166.74 265.94 208.11 242.01 249.55 265.8 208.11 289.87 166.74 265.94"/><path class="cls-12" d="M231.11,241c.38-3.68-1.87-7.43-6.74-10.25-9-5.2-23.59-5.2-32.55,0-4.14,2.41-6.36,5.51-6.65,8.66h0V264h0c0,3.42,2.28,6.83,6.79,9.43,9,5.21,23.59,5.21,32.55,0,4.48-2.6,6.71-6,6.69-9.43Z"/><polygon class="cls-14" points="166.74 242.01 166.74 240.18 208.11 218.09 249.55 240.03 249.55 241.87 208.11 265.94 166.74 242.01"/><polygon class="cls-11" points="166.74 240.18 208.11 216.25 249.55 240.03 208.11 264.11 166.74 240.18"/><polygon class="cls-9" points="229.18 264.42 228.26 264.42 228.26 252.33 207.96 240.61 208.42 239.82 229.18 251.8 229.18 264.42"/><path class="cls-15" d="M212,238a8.41,8.41,0,0,0-7.66,0c-2.11,1.23-2.1,3.21,0,4.44a8.49,8.49,0,0,0,7.67,0c2.11-1.23,2.1-3.21,0-4.44"/><path class="cls-15" d="M228.74,260.86c-1.15,0-1.05,2.11-1.05,2.11h0a.5.5,0,0,0,.3.48,1.63,1.63,0,0,0,1.49,0,.52.52,0,0,0,.3-.43h0S229.9,260.86,228.74,260.86Z"/><path class="cls-9" d="M228.74,261.93c-3.2,0-2.92,5.88-2.92,5.88h0a1.38,1.38,0,0,0,.84,1.33,4.55,4.55,0,0,0,4.14,0,1.47,1.47,0,0,0,.85-1.2h0S232,261.93,228.74,261.93Z"/><path class="cls-14" d="M239.76,256.4a5.48,5.48,0,0,0,6.88,1c7.35-4.54,7-5.72,6.55-6.24-1.88-2.25-6.17-2.46-13.92,2.49v1.54A1.5,1.5,0,0,0,239.76,256.4Z"/><path class="cls-5" d="M239.71,254.41a5.5,5.5,0,0,0,6.28.4,1.17,1.17,0,0,0,.59-.93l1-10.87-8.48,4.93.16,5.55A1.2,1.2,0,0,0,239.71,254.41Z"/><path class="cls-5" d="M245.67,224.79c-1.88-1-14.51-1.67-14.51-1.67-11.13-5.18-16.54-5.27-20.58-3.72a12.45,12.45,0,0,0-3.52,1.93l-.55,3.48a38,38,0,0,0,.1,4.22c1.14,9,14.74,11.92,31.46,4.92l.65.35,9.23,4.88.6-6.57s.09-.91.19-2A6,6,0,0,0,245.67,224.79Z"/><path class="cls-16" d="M205.31,200.38l.17,4.44a6,6,0,0,0,1.19,3.38l5.26,7.1,2.35-14.7Z"/><path class="cls-15" d="M208.74,186.78s-3.58,3.31-4.87,11.05a2.25,2.25,0,0,0,1.44,2.55l3.77,1.18Z"/><path class="cls-9" d="M210.89,185.39c4-1.5,6.53-2,14.77,1a7.79,7.79,0,0,1,5.08,6.9l-1.57,6.84a32.49,32.49,0,0,0,1.4,19.13l2.13,5.44s-13,9.47-26.21,0l1.7-12.07a21.53,21.53,0,0,0,.06-5.67l-1.76-14.65A7.28,7.28,0,0,1,210.89,185.39Z"/><path class="cls-16" d="M214.59,176a10.44,10.44,0,0,1,6.3.09A2,2,0,0,1,222.3,178v7.39a2.29,2.29,0,0,1-1.65,2.17,9.68,9.68,0,0,1-5.8.1,2.39,2.39,0,0,1-1.68-2.27v-7.47A2,2,0,0,1,214.59,176Z"/><path class="cls-16" d="M230.1,194.08l5.16-10.45c.23-.47,1.17-5.85,2.39-10,.28-1,1.8-2.36,1.93-3.07.18-.92,1-2.79-1.24-4.17-1.9-1.14-2.83,3.32-2.83,3.32s-1.34-1.69-2-1.26,1,1.62.74,3.53c0,0-3,9.21-3.26,9.67l-7.2,10.64S226.76,196.31,230.1,194.08Z"/><path class="cls-15" d="M226.45,187.37l5.91,2.7a.8.8,0,0,1,.44,1.1l-2.54,5.92a5.17,5.17,0,0,1-6.26,3h0a4.34,4.34,0,0,1-2.42-6L225,188A1.17,1.17,0,0,1,226.45,187.37Z"/><path class="cls-16" d="M229,169.5v10.06c0,2.27-2.62,3.94-6.69,4.21s-6-9.39-6-9.39Z"/><path class="cls-14" d="M229,168.13h0c.54-4.48-1.83-7.71-6.69-8s-6.22,3-6.22,3h0a10,10,0,0,0-6.2,8.76c-.49,6-1,6.14-4.22,13.85-2.79,6.66,3.21,6.58,0,12.25s-1.13,13.42,7.88,12.33c8.77-1.06,4.42-5.5,7.9-9,6.46-6.53,5.64-8.77,4.33-14.61s-3.3-8.08,1.6-14.13A6.07,6.07,0,0,0,229,168.13Z"/><path class="cls-9" d="M194,253.33s1.83-1.61,2.45-1.21,1.46,2.57,1.18,4.87Z"/><path class="cls-15" d="M191.51,251s1.88-1.2,2.78-.93a12.64,12.64,0,0,1,3,1.88c.42.36,1,8,.48,12.28,0,0,.15-7.49-.87-10.94a.87.87,0,0,0-1.27-.51,6.69,6.69,0,0,0-1.69,1.27Z"/><path class="cls-9" d="M186.87,250.82s1.37-2,2.07-1.78,2.05,2.14,2.34,4.43Z"/><path class="cls-15" d="M183.91,249.2s1.53-1.62,2.46-1.59a12.83,12.83,0,0,1,3.37,1.09c.49.25,3,7.52,3.49,11.78,0,0-1.71-7.29-3.55-10.39a.87.87,0,0,0-1.36-.18,6.9,6.9,0,0,0-1.32,1.65Z"/><path class="cls-17" d="M191.46,250.71c-6.31-4-12.52-.43-12.53,3.49l3.94,14.21a4.36,4.36,0,0,0,2,3.41l9.42,9.93c1.09.63,5.67-2.23,5.67-3.49l0-15.52c0-3.92-3.8-9.31-8.52-12"/><path class="cls-15" d="M187.41,252.9c-4.71-2.72-8.54-1.74-8.55,2.18l-.05,15.52a4.36,4.36,0,0,0,2,3.41l13.11,7.57c1.09.63,2,.13,2-1.13l0-15.52c0-3.92-3.8-9.31-8.51-12"/><polygon class="cls-9" points="178.83 263.59 195.9 273.44 195.9 270.88 178.84 261.04 178.83 263.59"/><path class="cls-15" d="M189.24,247.77a2.64,2.64,0,0,0-4.26,2.44.76.76,0,0,0,.76.77h0a.76.76,0,0,0,.77-.77,1.45,1.45,0,0,1,.53-1.32,1.48,1.48,0,0,1,1.43.21,6.06,6.06,0,0,1,2.7,4.69.75.75,0,0,0,.77.77.76.76,0,0,0,.77-.77A7.57,7.57,0,0,0,189.24,247.77Z"/><polygon class="cls-13" points="93.08 308.26 134.46 284.33 175.9 308.11 134.46 332.18 93.08 308.26"/><path class="cls-12" d="M157.46,283.32c.38-3.68-1.87-7.44-6.75-10.25-9-5.21-23.59-5.21-32.54,0-4.14,2.4-6.36,5.5-6.65,8.65h0v24.64h0c0,3.41,2.28,6.82,6.79,9.43,9,5.2,23.59,5.2,32.55,0,4.48-2.61,6.71-6,6.69-9.43Z"/><polygon class="cls-14" points="93.08 284.33 93.08 282.49 134.46 260.4 175.9 282.35 175.9 284.18 134.46 308.26 93.08 284.33"/><polygon class="cls-11" points="93.08 282.49 134.46 258.56 175.9 282.35 134.46 306.42 93.08 282.49"/><polygon class="cls-9" points="155.53 306.73 154.61 306.73 154.61 294.65 134.31 282.93 134.77 282.13 155.53 294.12 155.53 306.73"/><path class="cls-15" d="M138.31,280.27a8.44,8.44,0,0,0-7.66,0c-2.11,1.22-2.1,3.21,0,4.43a8.43,8.43,0,0,0,7.67,0c2.11-1.22,2.1-3.21,0-4.44"/><path class="cls-15" d="M155.09,303.18c-1.15,0-1.05,2.11-1.05,2.11h0a.51.51,0,0,0,.3.48,1.7,1.7,0,0,0,1.49,0,.53.53,0,0,0,.3-.43h0S156.24,303.18,155.09,303.18Z"/><path class="cls-9" d="M155.09,304.24c-3.21,0-2.92,5.89-2.92,5.89h0a1.4,1.4,0,0,0,.84,1.33,4.58,4.58,0,0,0,4.14,0,1.44,1.44,0,0,0,.85-1.2h0S158.3,304.24,155.09,304.24Z"/><polygon class="cls-13" points="222.33 298.37 263.71 274.44 305.15 298.23 263.71 322.3 222.33 298.37"/><path class="cls-12" d="M286.71,273.43c.37-3.68-1.87-7.44-6.75-10.25-9-5.2-23.59-5.2-32.55,0-4.14,2.41-6.35,5.5-6.64,8.65h0v24.64h0c0,3.42,2.28,6.83,6.79,9.43,9,5.21,23.59,5.21,32.55,0,4.48-2.6,6.71-6,6.69-9.43Z"/><polygon class="cls-14" points="222.33 274.44 222.33 272.61 263.71 250.51 305.15 272.46 305.15 274.3 263.71 298.37 222.33 274.44"/><polygon class="cls-11" points="222.33 272.61 263.71 248.68 305.15 272.46 263.71 296.54 222.33 272.61"/><polygon class="cls-9" points="284.78 296.85 283.86 296.85 283.86 284.76 263.56 273.04 264.02 272.25 284.78 284.23 284.78 296.85"/><path class="cls-15" d="M267.56,270.39a8.41,8.41,0,0,0-7.66,0c-2.11,1.23-2.1,3.21,0,4.44a8.47,8.47,0,0,0,7.66,0c2.12-1.23,2.11-3.21,0-4.44"/><path class="cls-15" d="M284.34,293.29c-1.15,0-1,2.11-1,2.11h0a.5.5,0,0,0,.3.48,1.63,1.63,0,0,0,1.49,0,.52.52,0,0,0,.3-.43h0S285.49,293.29,284.34,293.29Z"/><path class="cls-9" d="M284.34,294.36c-3.21,0-2.92,5.88-2.92,5.88h0a1.38,1.38,0,0,0,.84,1.33,4.55,4.55,0,0,0,4.14,0,1.47,1.47,0,0,0,.85-1.2h0S287.55,294.36,284.34,294.36Z"/><polygon class="cls-13" points="148.68 340.69 190.06 316.76 231.5 340.54 190.06 364.61 148.68 340.69"/><path class="cls-12" d="M213.06,315.75c.37-3.68-1.87-7.44-6.75-10.25-9-5.21-23.59-5.21-32.55,0-4.14,2.4-6.35,5.5-6.65,8.65h0v24.64h0c0,3.41,2.28,6.82,6.79,9.42,9,5.21,23.59,5.21,32.55,0,4.48-2.6,6.71-6,6.69-9.42Z"/><polygon class="cls-14" points="148.68 316.76 148.68 314.92 190.06 292.83 231.5 314.78 231.5 316.61 190.06 340.69 148.68 316.76"/><polygon class="cls-11" points="148.68 314.92 190.06 290.99 231.5 314.78 190.06 338.85 148.68 314.92"/><polygon class="cls-9" points="211.13 339.16 210.21 339.16 210.21 327.08 189.91 315.36 190.37 314.56 211.13 326.55 211.13 339.16"/><path class="cls-15" d="M193.91,312.7a8.47,8.47,0,0,0-7.66,0c-2.11,1.23-2.1,3.22,0,4.44a8.41,8.41,0,0,0,7.66,0c2.12-1.22,2.11-3.21,0-4.44"/><path class="cls-15" d="M210.69,335.6c-1.15,0-1.05,2.12-1.05,2.12h0a.5.5,0,0,0,.3.48,1.7,1.7,0,0,0,1.49,0,.53.53,0,0,0,.3-.43h0S211.84,335.6,210.69,335.6Z"/><path class="cls-9" d="M210.69,336.67c-3.21,0-2.92,5.89-2.92,5.89h0a1.4,1.4,0,0,0,.84,1.33,4.58,4.58,0,0,0,4.14,0,1.46,1.46,0,0,0,.85-1.2h0S213.9,336.67,210.69,336.67Z"/><path class="cls-14" d="M221.71,331.14a5.45,5.45,0,0,0,6.87,1c7.36-4.53,7-5.71,6.55-6.24-1.87-2.24-6.16-2.46-13.91,2.49v1.54A1.47,1.47,0,0,0,221.71,331.14Z"/><path class="cls-4" d="M221.66,329.16a5.49,5.49,0,0,0,6.27.4,1.18,1.18,0,0,0,.6-.94l1-10.87-8.48,4.93.16,5.56A1.21,1.21,0,0,0,221.66,329.16Z"/><path class="cls-4" d="M227.61,299.54c-1.87-1-14.5-1.67-14.5-1.67-11.13-5.19-16.54-5.28-20.58-3.73a12.45,12.45,0,0,0-3.52,1.93l-.56,3.48a38.83,38.83,0,0,0,.11,4.22c1.14,9,14.73,11.92,31.45,4.92l.65.35,9.23,4.89.61-6.58s.08-.91.19-2A6,6,0,0,0,227.61,299.54Z"/><path class="cls-16" d="M186.27,274.31l-.33,4.43a6,6,0,0,0,.81,3.49l4.44,7.64,4-14.35Z"/><path class="cls-18" d="M191.19,261.17s-3.92,2.89-6.07,10.44a2.26,2.26,0,0,0,1.15,2.7l3.61,1.59Z"/><path class="cls-10" d="M192.83,260.13c4-1.5,6.54-2,14.78,1a7.81,7.81,0,0,1,5.08,6.9l2,31.41s-13,9.47-26.21,0V267.09A7.29,7.29,0,0,1,192.83,260.13Z"/><path class="cls-16" d="M196.54,250.76a10.52,10.52,0,0,1,6.3.09,2,2,0,0,1,1.41,1.91v7.39a2.3,2.3,0,0,1-1.65,2.18,9.76,9.76,0,0,1-5.8.1,2.42,2.42,0,0,1-1.69-2.28v-7.47A2,2,0,0,1,196.54,250.76Z"/><path class="cls-16" d="M206.69,271.67l3,11.26a108.16,108.16,0,0,0,5.39,12.71c.48.81,1.88,3.26,4.08,1.74,1.87-1.3.39-3.68.39-3.68s1.28.28,1.47-.47-1.19-.47-2.23-2.09c0,0-3.49-9-3.6-9.53L213.26,269S207.72,267.8,206.69,271.67Z"/><path class="cls-18" d="M213.86,274.31l-6.23,1.87a.8.8,0,0,1-1-.54l-2-6.12a5.18,5.18,0,0,1,2.74-6.38h0a4.35,4.35,0,0,1,5.76,2.91l1.4,6.82A1.17,1.17,0,0,1,213.86,274.31Z"/><path class="cls-16" d="M210.93,244.24V254.3c0,2.28-2.62,3.95-6.68,4.21s-6-9.38-6-9.38Z"/><path class="cls-14" d="M209.31,236.85a1.7,1.7,0,0,0-1.18.57c.64-2.26.19-4.33-1.07-4.69s-3,1.23-3.73,3.58a8,8,0,0,0-.28,1.2c-.4-1.1-1.11-1.83-1.85-1.77-1,.09-1.67,1.64-1.49,3.45a.51.51,0,0,1,0,.13c-3.13.56-6.15,2.06-7.48,5.12-.29-.29-.56-.45-.66-.37s0,.38.2.73c-.35-.09-.62-.09-.67,0s.28.43.77.66a13,13,0,0,0,.42,7.23c.42,1.37,2.15,5.31,2.15,5.31a2.53,2.53,0,0,0,2.38,1.55h3.26l2-.73.84-.71a2.69,2.69,0,0,0,.87-1.39l1.07-4.15a.64.64,0,0,0-.18-.63c-.51-.47-1.78-1.62-.64-3.09a1.56,1.56,0,0,1,2.66.92l.07,1.1a.65.65,0,0,0,.65.62h.06a.66.66,0,0,0,.66-.67c0-1.06.09-3.09,1.09-3.74a5.38,5.38,0,0,0,1.88-2.7s0-.05,0-.13a6.65,6.65,0,0,0,.65-3C211.79,238.85,210.68,236.85,209.31,236.85Z"/><path class="cls-19" d="M174.3,330.27s1.83-1.61,2.45-1.21,1.46,2.58,1.18,4.87Z"/><path class="cls-5" d="M171.84,328s1.88-1.19,2.77-.93a12.61,12.61,0,0,1,3,1.89c.42.36,1,8,.48,12.27,0,0,.14-7.48-.88-10.94a.87.87,0,0,0-1.27-.51,6.83,6.83,0,0,0-1.68,1.27Z"/><path class="cls-19" d="M167.19,327.76s1.38-2,2.08-1.78,2,2.14,2.34,4.43Z"/><path class="cls-5" d="M164.23,326.14s1.53-1.62,2.47-1.58a12.4,12.4,0,0,1,3.36,1.08c.5.25,3,7.53,3.49,11.78,0,0-1.7-7.29-3.54-10.39a.88.88,0,0,0-1.36-.18,6.66,6.66,0,0,0-1.32,1.65Z"/><path class="cls-20" d="M171.79,327.65c-6.31-3.95-12.52-.43-12.53,3.49l3.93,14.21a4.34,4.34,0,0,0,2,3.42l9.41,9.92c1.1.64,5.67-2.23,5.68-3.49l0-15.52c0-3.92-3.8-9.31-8.51-12"/><path class="cls-5" d="M167.73,329.84c-4.71-2.72-8.54-1.74-8.55,2.18l0,15.52a4.33,4.33,0,0,0,2,3.42l13.1,7.56c1.1.63,2,.13,2-1.13l.05-15.52c0-3.92-3.8-9.31-8.52-12"/><polygon class="cls-19" points="159.16 340.53 176.22 350.38 176.23 347.83 159.16 337.98 159.16 340.53"/><path class="cls-5" d="M169.56,324.72a2.93,2.93,0,0,0-3-.22,2.88,2.88,0,0,0-1.29,2.65.76.76,0,0,0,.77.77h0a.77.77,0,0,0,.77-.76,1.48,1.48,0,0,1,.52-1.33,1.52,1.52,0,0,1,1.43.22,6.08,6.08,0,0,1,2.71,4.68.73.73,0,0,0,.77.77.76.76,0,0,0,.76-.76A7.53,7.53,0,0,0,169.56,324.72Z"/><polygon class="cls-13" points="2.93 253.63 30.29 269.43 167.1 190.44 167.1 188.58 139.74 174.64 2.93 251.78 2.93 253.63"/><path class="cls-11" d="M165.32,181a1.91,1.91,0,0,1-1.91-1.9V88.64A6.86,6.86,0,0,0,160,82.7l-15.76-9.06A2.79,2.79,0,0,0,140,76.06v87.42a1.91,1.91,0,0,1-3.81,0V76.06a6.59,6.59,0,0,1,9.88-5.72l15.77,9.06a10.68,10.68,0,0,1,5.34,9.24V179.1A1.9,1.9,0,0,1,165.32,181Z"/><path class="cls-11" d="M166.11,194.7a1.9,1.9,0,0,1-1.9-1.9v-9.68a4.94,4.94,0,0,0-2.49-4.28L139.4,166.09a1.14,1.14,0,0,0-1.17,0,1.15,1.15,0,0,0-.59,1v8.15a1.91,1.91,0,0,1-3.81,0v-8.15a5,5,0,0,1,7.46-4.33l22.32,12.75a8.78,8.78,0,0,1,4.41,7.59v9.68A1.91,1.91,0,0,1,166.11,194.7Z"/><polygon class="cls-3" points="3.84 242.73 30.9 258.35 166.19 180.24 166.19 178.41 139.13 164.62 3.84 240.9 3.84 242.73"/><polygon class="cls-4" points="3.84 240.9 30.9 256.52 166.19 178.41 139.13 162.78 3.84 240.9"/><polygon class="cls-5" points="140.93 190.8 140.93 149.94 150.47 144.43 150.47 185.29 140.93 190.8"/><polygon class="cls-21" points="142.41 183.61 142.41 155.42 148.99 151.62 148.99 179.81 142.41 183.61"/><polygon class="cls-20" points="140.93 152.92 140.93 152.2 150.47 146.69 150.47 147.41 140.93 152.92"/><polygon class="cls-20" points="140.93 154.69 140.93 153.97 150.47 148.47 150.47 149.19 140.93 154.69"/><polygon class="cls-20" points="140.93 187.2 140.93 186.48 150.47 180.97 150.47 181.69 140.93 187.2"/><polygon class="cls-20" points="140.93 188.97 140.93 188.25 150.47 182.74 150.47 183.46 140.93 188.97"/><polygon class="cls-20" points="140.93 149.94 117.19 136.09 117.19 177.42 140.93 190.8 140.93 149.94"/><polygon class="cls-22" points="150.47 144.43 126.62 130.65 117.19 136.09 140.93 149.94 150.47 144.43"/><polygon class="cls-23" points="117.8 135.74 141 149.27 149.4 144.43 126.1 130.95 117.8 135.74"/><polygon class="cls-18" points="126.69 199.04 126.69 158.17 136.23 152.67 136.23 193.53 126.69 199.04"/><polygon class="cls-24" points="128.17 191.85 128.17 163.66 134.75 159.85 134.75 188.05 128.17 191.85"/><polygon class="cls-25" points="126.69 161.16 126.69 160.44 136.23 154.93 136.23 155.65 126.69 161.16"/><polygon class="cls-25" points="126.69 162.93 126.69 162.21 136.23 156.7 136.23 157.42 126.69 162.93"/><polygon class="cls-25" points="126.69 195.44 126.69 194.72 136.23 189.21 136.23 189.93 126.69 195.44"/><polygon class="cls-25" points="126.69 197.21 126.69 196.49 136.23 190.98 136.23 191.7 126.69 197.21"/><polygon class="cls-26" points="126.69 158.17 102.95 144.33 102.95 185.66 126.69 199.04 126.69 158.17"/><polygon class="cls-25" points="136.23 152.67 112.38 138.89 102.95 144.33 126.69 158.17 136.23 152.67"/><polygon class="cls-23" points="103.56 143.98 126.76 157.51 135.15 152.66 111.86 139.19 103.56 143.98"/><polygon class="cls-5" points="111.94 207.72 111.94 166.85 121.48 161.34 121.48 202.21 111.94 207.72"/><polygon class="cls-21" points="113.42 200.53 113.42 172.33 120 168.53 120 196.73 113.42 200.53"/><polygon class="cls-20" points="111.94 169.84 111.94 169.12 121.48 163.61 121.48 164.33 111.94 169.84"/><polygon class="cls-20" points="111.94 171.61 111.94 170.89 121.48 165.38 121.48 166.1 111.94 171.61"/><polygon class="cls-20" points="111.94 204.11 111.94 203.39 121.48 197.89 121.48 198.6 111.94 204.11"/><polygon class="cls-20" points="111.94 205.88 111.94 205.16 121.48 199.66 121.48 200.38 111.94 205.88"/><polygon class="cls-20" points="111.94 166.85 88.2 153.01 88.2 194.33 111.94 207.72 111.94 166.85"/><polygon class="cls-22" points="121.48 161.34 97.63 147.57 88.2 153.01 111.94 166.85 121.48 161.34"/><polygon class="cls-23" points="88.81 152.66 112.01 166.19 120.41 161.34 97.11 147.87 88.81 152.66"/><polygon class="cls-5" points="96.07 217.04 96.07 176.18 105.61 170.67 105.61 211.53 96.07 217.04"/><polygon class="cls-21" points="97.55 209.85 97.55 181.66 104.13 177.86 104.13 206.05 97.55 209.85"/><polygon class="cls-20" points="96.07 179.16 96.07 178.44 105.61 172.94 105.61 173.66 96.07 179.16"/><polygon class="cls-20" points="96.07 180.94 96.07 180.22 105.61 174.71 105.61 175.43 96.07 180.94"/><polygon class="cls-20" points="96.07 213.44 96.07 212.72 105.61 207.21 105.61 207.93 96.07 213.44"/><polygon class="cls-20" points="96.07 215.21 96.07 214.49 105.61 208.98 105.61 209.7 96.07 215.21"/><polygon class="cls-20" points="96.07 176.18 72.33 162.34 72.33 203.66 96.07 217.04 96.07 176.18"/><polygon class="cls-22" points="105.61 170.67 81.76 156.9 72.33 162.34 96.07 176.18 105.61 170.67"/><polygon class="cls-23" points="72.94 161.98 96.15 175.51 104.54 170.67 81.24 157.19 72.94 161.98"/><polygon class="cls-18" points="81.18 225.64 81.18 184.77 90.72 179.27 90.72 220.13 81.18 225.64"/><polygon class="cls-24" points="82.66 218.45 82.66 190.25 89.24 186.46 89.24 214.65 82.66 218.45"/><polygon class="cls-25" points="81.18 187.76 81.18 187.04 90.72 181.53 90.72 182.25 81.18 187.76"/><polygon class="cls-25" points="81.18 189.53 81.18 188.81 90.72 183.3 90.72 184.02 81.18 189.53"/><polygon class="cls-25" points="81.18 222.03 81.18 221.31 90.72 215.81 90.72 216.53 81.18 222.03"/><polygon class="cls-25" points="81.18 223.81 81.18 223.09 90.72 217.58 90.72 218.3 81.18 223.81"/><polygon class="cls-26" points="81.18 184.77 57.44 170.93 57.44 212.26 81.18 225.64 81.18 184.77"/><polygon class="cls-25" points="90.72 179.27 66.86 165.49 57.44 170.93 81.18 184.77 90.72 179.27"/><polygon class="cls-23" points="58.05 170.58 81.25 184.11 89.64 179.26 66.35 165.79 58.05 170.58"/><polygon class="cls-15" points="63.68 235.81 63.68 194.94 73.22 189.44 73.22 230.3 63.68 235.81"/><polygon class="cls-27" points="65.16 228.62 65.16 200.43 71.74 196.63 71.74 224.82 65.16 228.62"/><polygon class="cls-17" points="63.68 197.93 63.68 197.21 73.22 191.7 73.22 192.42 63.68 197.93"/><polygon class="cls-17" points="63.68 199.7 63.68 198.98 73.22 193.47 73.22 194.19 63.68 199.7"/><polygon class="cls-17" points="63.68 232.21 63.68 231.49 73.22 225.98 73.22 226.7 63.68 232.21"/><polygon class="cls-17" points="63.68 233.98 63.68 233.26 73.22 227.75 73.22 228.47 63.68 233.98"/><polygon class="cls-9" points="63.68 194.94 39.94 181.1 39.94 222.43 63.68 235.81 63.68 194.94"/><polygon class="cls-17" points="73.22 189.44 49.37 175.66 39.94 181.1 63.68 194.94 73.22 189.44"/><polygon class="cls-23" points="40.55 180.75 63.75 194.28 72.15 189.44 48.85 175.96 40.55 180.75"/><polygon class="cls-3" points="3.84 173.61 30.9 189.24 166.19 111.12 166.19 109.29 139.13 95.5 3.84 171.78 3.84 173.61"/><polygon class="cls-4" points="3.84 171.78 30.9 187.4 166.19 109.29 139.13 93.67 3.84 171.78"/><polygon class="cls-15" points="100.38 146.05 100.38 105.19 109.92 99.68 109.92 140.54 100.38 146.05"/><polygon class="cls-27" points="101.86 138.86 101.86 110.67 108.44 106.87 108.44 135.06 101.86 138.86"/><polygon class="cls-17" points="100.38 108.17 100.38 107.45 109.92 101.94 109.92 102.66 100.38 108.17"/><polygon class="cls-17" points="100.38 109.94 100.38 109.22 109.92 103.72 109.92 104.44 100.38 109.94"/><polygon class="cls-17" points="100.38 142.45 100.38 141.73 109.92 136.22 109.92 136.94 100.38 142.45"/><polygon class="cls-17" points="100.38 144.22 100.38 143.5 109.92 137.99 109.92 138.71 100.38 144.22"/><polygon class="cls-9" points="100.38 105.19 76.65 91.34 76.65 132.67 100.38 146.05 100.38 105.19"/><polygon class="cls-17" points="109.92 99.68 86.07 85.9 76.65 91.34 100.38 105.19 109.92 99.68"/><polygon class="cls-23" points="77.26 90.99 100.46 104.52 108.85 99.68 85.56 86.2 77.26 90.99"/><polygon class="cls-5" points="85.01 154.78 85.01 113.92 94.55 108.41 94.55 149.28 85.01 154.78"/><polygon class="cls-21" points="86.48 147.59 86.48 119.4 93.07 115.6 93.07 143.79 86.48 147.59"/><polygon class="cls-20" points="85.01 116.91 85.01 116.19 94.55 110.68 94.55 111.4 85.01 116.91"/><polygon class="cls-20" points="85.01 118.68 85.01 117.96 94.55 112.45 94.55 113.17 85.01 118.68"/><polygon class="cls-20" points="85.01 151.18 85.01 150.46 94.55 144.95 94.55 145.67 85.01 151.18"/><polygon class="cls-20" points="85.01 152.95 85.01 152.23 94.55 146.72 94.55 147.44 85.01 152.95"/><polygon class="cls-20" points="85.01 113.92 61.27 100.08 61.27 141.4 85.01 154.78 85.01 113.92"/><polygon class="cls-22" points="94.55 108.41 70.69 94.64 61.27 100.08 85.01 113.92 94.55 108.41"/><polygon class="cls-23" points="61.88 99.73 85.08 113.25 93.47 108.41 70.18 94.94 61.88 99.73"/><polygon class="cls-15" points="70.11 163.64 70.11 122.78 79.65 117.27 79.65 158.13 70.11 163.64"/><polygon class="cls-27" points="71.59 156.45 71.59 128.26 78.17 124.46 78.17 152.65 71.59 156.45"/><polygon class="cls-17" points="70.11 125.76 70.11 125.04 79.65 119.53 79.65 120.25 70.11 125.76"/><polygon class="cls-17" points="70.11 127.53 70.11 126.81 79.65 121.31 79.65 122.03 70.11 127.53"/><polygon class="cls-17" points="70.11 160.04 70.11 159.32 79.65 153.81 79.65 154.53 70.11 160.04"/><polygon class="cls-17" points="70.11 161.81 70.11 161.09 79.65 155.58 79.65 156.3 70.11 161.81"/><polygon class="cls-9" points="70.11 122.78 46.37 108.93 46.37 150.26 70.11 163.64 70.11 122.78"/><polygon class="cls-17" points="79.65 117.27 55.8 103.49 46.37 108.93 70.11 122.78 79.65 117.27"/><polygon class="cls-23" points="46.98 108.58 70.18 122.11 78.58 117.27 55.28 103.79 46.98 108.58"/><polygon class="cls-18" points="54.95 172.44 54.95 131.58 64.49 126.07 64.49 166.93 54.95 172.44"/><polygon class="cls-24" points="56.43 165.25 56.43 137.06 63.01 133.26 63.01 161.45 56.43 165.25"/><polygon class="cls-25" points="54.95 134.56 54.95 133.84 64.49 128.34 64.49 129.06 54.95 134.56"/><polygon class="cls-25" points="54.95 136.34 54.95 135.62 64.49 130.11 64.49 130.83 54.95 136.34"/><polygon class="cls-25" points="54.95 168.84 54.95 168.12 64.49 162.61 64.49 163.33 54.95 168.84"/><polygon class="cls-25" points="54.95 170.61 54.95 169.89 64.49 164.38 64.49 165.1 54.95 170.61"/><polygon class="cls-26" points="54.95 131.58 31.21 117.74 31.21 159.06 54.95 172.44 54.95 131.58"/><polygon class="cls-25" points="64.49 126.07 40.64 112.3 31.21 117.74 54.95 131.58 64.49 126.07"/><polygon class="cls-23" points="31.82 117.39 55.02 130.91 63.42 126.07 40.12 112.59 31.82 117.39"/><polygon class="cls-15" points="39.38 181 39.38 140.14 48.92 134.63 48.92 175.49 39.38 181"/><polygon class="cls-27" points="40.86 173.81 40.86 145.62 47.45 141.82 47.45 170.01 40.86 173.81"/><polygon class="cls-17" points="39.38 143.13 39.38 142.41 48.92 136.9 48.92 137.62 39.38 143.13"/><polygon class="cls-17" points="39.38 144.9 39.38 144.18 48.92 138.67 48.92 139.39 39.38 144.9"/><polygon class="cls-17" points="39.38 177.4 39.38 176.68 48.92 171.17 48.92 171.89 39.38 177.4"/><polygon class="cls-17" points="39.38 179.17 39.38 178.45 48.92 172.94 48.92 173.66 39.38 179.17"/><polygon class="cls-9" points="39.38 140.14 15.65 126.3 15.65 167.62 39.38 181 39.38 140.14"/><polygon class="cls-17" points="48.92 134.63 25.07 120.86 15.65 126.3 39.38 140.14 48.92 134.63"/><polygon class="cls-23" points="16.26 125.95 39.46 139.47 47.85 134.63 24.56 121.15 16.26 125.95"/><path class="cls-11" d="M31.49,258.42a1.91,1.91,0,0,1-1.91-1.9V166.06a6.86,6.86,0,0,0-3.43-5.94l-15.76-9.06a2.8,2.8,0,0,0-4.19,2.42V240.9a1.9,1.9,0,1,1-3.8,0V153.48a6.59,6.59,0,0,1,9.88-5.72L28,156.82a10.67,10.67,0,0,1,5.35,9.24v90.46A1.9,1.9,0,0,1,31.49,258.42Z"/><path class="cls-11" d="M32.28,272.12a1.9,1.9,0,0,1-1.9-1.9v-9.67a5,5,0,0,0-2.49-4.29L5.57,243.51a1.18,1.18,0,0,0-1.76,1v8.15a1.91,1.91,0,0,1-3.81,0v-8.15a4.93,4.93,0,0,1,2.48-4.31,5,5,0,0,1,5,0L29.78,253a8.76,8.76,0,0,1,4.41,7.59v9.67A1.91,1.91,0,0,1,32.28,272.12Z"/><g class="cls-28"><path class="cls-29" d="M107,255.73c-8-4.64-21-4.64-29,0s-8,12.17.09,16.81,21,4.65,29,0,8-12.18-.09-16.83"/></g><path class="cls-14" d="M86.3,270.43s-8.33-4.29-7.15-6.12,9.94,1,10.85,1.67S92,272.3,86.3,270.43Z"/><path class="cls-14" d="M98.76,263.77s-8.33-4.3-7.15-6.12,9.94,1,10.85,1.67S104.44,265.64,98.76,263.77Z"/><path class="cls-4" d="M83.41,221.24l1.25,45.17a3.69,3.69,0,0,0,2.1,3.33h0a2.73,2.73,0,0,0,3.9-2.14l1.06-20.25,3.22-11.81L97.49,260a4.12,4.12,0,0,0,2.25,3.45h0a2.3,2.3,0,0,0,3.3-1.7l2.56-25.59c0-.29.08-.58.1-.88l1.11-14Z"/><path class="cls-16" d="M110.46,196.07l.33,4.43A6,6,0,0,1,110,204l-4.44,7.64-4-14.35Z"/><path class="cls-21" d="M105.54,182.93s3.93,2.89,6.07,10.44a2.25,2.25,0,0,1-1.15,2.7l-3.61,1.59Z"/><path class="cls-5" d="M103.9,181.89c-4-1.5-6.54-2-14.78,1a7.82,7.82,0,0,0-5.08,6.9l-.63,31.41s10.32,9.47,23.51,0l-.11-16.68,1.48-15.71A7.29,7.29,0,0,0,103.9,181.89Z"/><path class="cls-16" d="M100.2,172.52a10.48,10.48,0,0,0-6.31.09,2,2,0,0,0-1.41,1.91v7.39a2.3,2.3,0,0,0,1.65,2.18,9.79,9.79,0,0,0,5.81.1,2.42,2.42,0,0,0,1.68-2.28v-7.47A2,2,0,0,0,100.2,172.52Z"/><path class="cls-16" d="M81.84,189.71l-10-6a108.76,108.76,0,0,1-10.76-8.64c-.65-.68-2.63-2.7-.57-4.4,1.76-1.45,3.65.62,3.65.62S64.23,170,65,170s.13,1.28,1.4,2.73c0,0,7.73,5.81,8.19,6l11.64,5.31S85.86,189.77,81.84,189.71Z"/><path class="cls-21" d="M81.25,182.09l-3.48,5.49a.79.79,0,0,0,.22,1.16l5.36,3.58a5.17,5.17,0,0,0,6.88-.9h0A4.35,4.35,0,0,0,89,185.09l-6.18-3.2A1.18,1.18,0,0,0,81.25,182.09Z"/><path class="cls-16" d="M85.8,166v10.06c0,2.27,2.62,3.95,6.68,4.21s6-9.38,6-9.38Z"/><path class="cls-14" d="M87.42,158.61a1.7,1.7,0,0,1,1.18.57c-.64-2.26-.19-4.33,1.08-4.69s3,1.23,3.73,3.58a7.9,7.9,0,0,1,.27,1.2c.4-1.1,1.11-1.83,1.85-1.77,1,.09,1.67,1.64,1.49,3.45a.5.5,0,0,0,0,.12c3.13.57,6.16,2.07,7.48,5.13.29-.29.56-.45.67-.37s0,.38-.21.73c.35-.09.62-.09.67,0s-.28.43-.76.66a13.09,13.09,0,0,1-.43,7.23c-.41,1.36-2.14,5.31-2.14,5.31a2.55,2.55,0,0,1-2.39,1.55H96.63l-2-.73-.84-.71a2.76,2.76,0,0,1-.87-1.39l-1.06-4.15a.62.62,0,0,1,.18-.63c.5-.47,1.78-1.62.64-3.09a1.55,1.55,0,0,0-2.66.92l-.07,1.1a.65.65,0,0,1-.65.61h-.07a.64.64,0,0,1-.65-.66c0-1.06-.1-3.09-1.09-3.74a5.36,5.36,0,0,1-1.89-2.7s0,0,0-.13a6.65,6.65,0,0,1-.64-3C85,160.6,86.05,158.61,87.42,158.61Z"/><path class="cls-14" d="M289.68,392.93a1.34,1.34,0,0,1-1.34-1.34V340.38a4.85,4.85,0,0,0-2.42-4.19l-11.11-6.38a2,2,0,0,0-2.94,1.71v49.06a1.35,1.35,0,0,1-2.69,0V331.52a4.65,4.65,0,0,1,7-4l11.1,6.39a7.51,7.51,0,0,1,3.77,6.51v51.21A1.34,1.34,0,0,1,289.68,392.93Z"/><path class="cls-14" d="M308.55,382.17a1.34,1.34,0,0,1-1.35-1.34V329.62a4.82,4.82,0,0,0-2.42-4.18l-11.1-6.38a1.93,1.93,0,0,0-2,0,2,2,0,0,0-1,1.7v49.06a1.34,1.34,0,0,1-2.68,0V320.76a4.65,4.65,0,0,1,7-4l11.11,6.38a7.54,7.54,0,0,1,3.77,6.51v51.21A1.34,1.34,0,0,1,308.55,382.17Z"/><path class="cls-11" d="M271.31,331.06a1.34,1.34,0,0,0,1.34-1.34V293.93a4.84,4.84,0,0,1,2.42-4.18l11.11-6.38a1.91,1.91,0,0,1,2,0,2,2,0,0,1,1,1.7v33.64a1.35,1.35,0,0,0,2.69,0V285.07a4.66,4.66,0,0,0-7-4l-11.11,6.38a7.54,7.54,0,0,0-3.77,6.51v35.79A1.34,1.34,0,0,0,271.31,331.06Z"/><polygon class="cls-3" points="266.99 331.54 291.12 345.42 316.96 330.6 316.96 329 292.88 316.7 266.99 329.94 266.99 331.54"/><polygon class="cls-4" points="266.99 329.94 291.12 343.82 316.96 329 292.88 315.1 266.99 329.94"/><polygon class="cls-4" points="266.93 320.22 266.93 292.5 290.93 278.48 292.05 279.25 290.93 306.36 268.04 320.99 266.93 320.22"/><polygon class="cls-3" points="268.04 320.99 268.04 293.27 292.05 279.25 292.05 307.13 268.04 320.99"/><path class="cls-14" d="M344.79,360.82a1.34,1.34,0,0,1-1.34-1.34V308.27a4.82,4.82,0,0,0-2.43-4.18l-11.1-6.39a2,2,0,0,0-2.95,1.71v49.06a1.34,1.34,0,0,1-2.68,0V299.41a4.65,4.65,0,0,1,7-4l11.1,6.38a7.51,7.51,0,0,1,3.77,6.51v51.21A1.34,1.34,0,0,1,344.79,360.82Z"/><path class="cls-14" d="M363.65,350.07a1.34,1.34,0,0,1-1.34-1.35v-51.2a4.85,4.85,0,0,0-2.42-4.19L348.78,287a2,2,0,0,0-2,0,1.94,1.94,0,0,0-1,1.7v49.07a1.35,1.35,0,0,1-2.69,0V288.65a4.65,4.65,0,0,1,7-4l11.1,6.38a7.54,7.54,0,0,1,3.77,6.52v51.2A1.34,1.34,0,0,1,363.65,350.07Z"/><path class="cls-11" d="M326.41,299a1.34,1.34,0,0,0,1.34-1.34V261.83a4.84,4.84,0,0,1,2.43-4.19l11.1-6.38a2,2,0,0,1,3,1.71V286.6a1.34,1.34,0,0,0,2.68,0V253a4.65,4.65,0,0,0-7-4l-11.1,6.39a7.51,7.51,0,0,0-3.77,6.51v35.78A1.34,1.34,0,0,0,326.41,299Z"/><polygon class="cls-3" points="322.1 299.44 346.22 313.31 372.07 298.49 372.07 296.89 347.99 284.59 322.1 297.83 322.1 299.44"/><polygon class="cls-4" points="322.1 297.83 346.22 311.71 372.07 296.89 347.99 282.99 322.1 297.83"/><polygon class="cls-4" points="322.03 288.12 322.03 260.39 346.04 246.37 347.16 247.14 346.04 274.25 323.15 288.88 322.03 288.12"/><polygon class="cls-3" points="323.15 288.88 323.15 261.16 347.16 247.14 347.16 275.02 323.15 288.88"/><g class="cls-28"><path class="cls-29" d="M167.42,218.9c-8-4.65-21-4.65-29,0s-7.94,12.16.1,16.81,21.05,4.65,29,0,8-12.17-.1-16.82"/></g><path class="cls-14" d="M146.68,234s-8.34-4.3-7.15-6.12,9.94,1,10.85,1.67S152.35,235.91,146.68,234Z"/><path class="cls-14" d="M160.22,226.93s-8.33-4.29-7.15-6.12,9.94,1,10.85,1.67S165.9,228.81,160.22,226.93Z"/><path class="cls-9" d="M164.13,224.39c-1,1.51-3.35,1.19-4.5.9a1.11,1.11,0,0,1-.79-.71l-3.65-9.72,5.32-7.4,3.8,16A1.21,1.21,0,0,1,164.13,224.39Z"/><path class="cls-15" d="M176.45,204.33a37.27,37.27,0,0,0-1-3.89l-1.38-3.06a11.58,11.58,0,0,0-3.72-.89c-4.1-.41-9,1-18,8.58,0,0-9.81,2.64-11.28,4.06a5.68,5.68,0,0,0-1.36,6.09l.67,1.81,2.21,5.88h0l3.25,8.64a1.13,1.13,0,0,0,.79.71c1.15.29,3,.65,4-.83a1.18,1.18,0,0,0,.18-1l-3.06-12.85.43-.41.51-.47C165.9,219,177.65,212.89,176.45,204.33Z"/><path class="cls-16" d="M165.25,178.18l1.87,3.8a5.75,5.75,0,0,1,.53,3.37l-1.2,8.32-8.62-11.25Z"/><path class="cls-24" d="M156.22,168.34s4.49,1.15,9.08,7a2.15,2.15,0,0,1-.05,2.79l-2.63,2.7Z"/><path class="cls-18" d="M153.79,168.14c-4,.57-6.36,1.31-11.9,7.56a7.43,7.43,0,0,0-1.14,8.08l4.41,5a30.93,30.93,0,0,1,7.48,16.67l.25,2s15.61,5.54,22.39-8.36l-6.89-9.35a20.75,20.75,0,0,1-2.62-4.72L160.63,172A7,7,0,0,0,153.79,168.14Z"/><path class="cls-16" d="M146.46,162a10,10,0,0,0-5.24,2.93,1.9,1.9,0,0,0-.32,2.23l3.34,6.19a2.18,2.18,0,0,0,2.37,1.08,9.22,9.22,0,0,0,4.9-2.54,2.3,2.3,0,0,0,.39-2.67l-3.38-6.25A1.93,1.93,0,0,0,146.46,162Z"/><path class="cls-16" d="M142.23,184.34l-9.2,6.2c-.41.28-5.37,1.86-9.16,3.54-.9.4-2,2-2.65,2.22-.85.29-2.5,1.34-4.1-.65-1.32-1.63,2.77-3.08,2.77-3.08s-1.77-1-1.44-1.71,1.66.75,3.42.25c0,0,8.31-4,8.71-4.32l9.12-8.15S143.9,180.91,142.23,184.34Z"/><path class="cls-24" d="M135.43,181.75l3.3,5.23a.76.76,0,0,0,1.1.28l5.25-3.16a4.92,4.92,0,0,0,2-6.29h0a4.13,4.13,0,0,0-5.95-1.5l-5.27,4A1.12,1.12,0,0,0,135.43,181.75Z"/><path class="cls-16" d="M131.45,163l4.55,8.43c1,1.9,4,2.12,7.5.5s.75-10.56.75-10.56Z"/><path class="cls-14" d="M158.33,166c-6.19-5-6.66-4.85-9.8-9.69a9.54,9.54,0,0,0-9.16-4.53h0s-2.61-2.12-6.55.33a7.07,7.07,0,0,0-3.29,4.06,5.06,5.06,0,0,0-1.17,3.22,5,5,0,0,0,4.91,5l.11,0a8.68,8.68,0,0,0,.81.39c6.85,2.86,6.19,5.64,7.73,11.12.61,2.15,5.38,4.63,7.85,1.49,1.92-2.43.82-4.2,6.54-5.26C159.64,171.54,160.23,167.56,158.33,166Z"/><polygon class="cls-13" points="247.53 392.98 277.64 410.3 387.76 346.73 357.7 329.37 247.53 392.98"/><path class="cls-11" d="M274.63,407.24a1.34,1.34,0,0,1-1.34-1.34V342.15a4.84,4.84,0,0,0-2.42-4.18l-11.11-6.38a1.93,1.93,0,0,0-2,0,2,2,0,0,0-1,1.7v61.6a1.34,1.34,0,0,1-2.68,0v-61.6a4.65,4.65,0,0,1,7-4l11.1,6.38a7.52,7.52,0,0,1,3.77,6.51V405.9A1.34,1.34,0,0,1,274.63,407.24Z"/><path class="cls-11" d="M374.82,349.11a1.34,1.34,0,0,1-1.34-1.34V284a4.83,4.83,0,0,0-2.42-4.18L360,273.45a2,2,0,0,0-2.95,1.71v61.6a1.34,1.34,0,0,1-2.68,0v-61.6a4.64,4.64,0,0,1,7-4l11.11,6.38a7.54,7.54,0,0,1,3.77,6.51v63.75A1.34,1.34,0,0,1,374.82,349.11Z"/><polygon class="cls-10" points="247.53 329.87 277.64 347.2 387.76 283.62 387.76 281.62 357.7 266.27 247.53 327.87 247.53 329.87"/><polygon class="cls-18" points="247.53 327.87 277.64 345.2 387.76 281.62 357.7 264.27 247.53 327.87"/><path class="cls-20" d="M267.34,321.93h0a.83.83,0,0,1,.43-.72l28.53-15.52a.83.83,0,0,1,.78,0l18.81,9.83a.85.85,0,0,1,.44.74h0a.81.81,0,0,1-.41.71l-28.57,16.49a.83.83,0,0,1-.82,0l-18.77-10.8A.83.83,0,0,1,267.34,321.93Z"/><path class="cls-5" d="M268.28,320.89l28.1-16.22a.62.62,0,0,1,.62,0l18.39,10.53a.62.62,0,0,1,0,1.08l-28.14,16.25a.62.62,0,0,1-.62,0L268.28,322A.62.62,0,0,1,268.28,320.89Z"/><polygon class="cls-21" points="281.69 314.6 286.19 317.16 292.19 313.7 287.69 311.13 281.69 314.6"/><path class="cls-19" d="M284.47,325.88l-.81-.46a.53.53,0,0,0-.52,0l-1.62.94a.16.16,0,0,0,0,.3l.81.47a.59.59,0,0,0,.52,0l1.62-.95c.14-.08.14-.21,0-.3"/><path class="cls-19" d="M287.45,326.35l-.82-.47a.54.54,0,0,0-.51,0l-2.71,1.57a.16.16,0,0,0,0,.3l.81.47a.59.59,0,0,0,.52,0l2.71-1.57c.14-.09.14-.22,0-.3"/><path class="cls-19" d="M286.48,324.72l-.81-.47a.59.59,0,0,0-.52,0l-1,.58c-.15.08-.15.21,0,.3l.81.46a.53.53,0,0,0,.52,0l1-.57c.14-.09.14-.22,0-.3"/><path class="cls-19" d="M288.69,323.43l-.81-.47a.59.59,0,0,0-.52,0l-1,.58c-.14.09-.14.22,0,.3l.81.47a.57.57,0,0,0,.51,0l1-.58c.14-.08.14-.21,0-.3"/><path class="cls-19" d="M290.9,322.15l-.81-.47a.59.59,0,0,0-.52,0l-1,.58c-.14.08-.14.22,0,.3l.81.47a.57.57,0,0,0,.51,0l1-.58a.16.16,0,0,0,0-.3"/><path class="cls-19" d="M293.11,320.87l-.81-.47a.53.53,0,0,0-.52,0l-1,.58c-.14.08-.14.21,0,.3l.81.46a.53.53,0,0,0,.52,0l1-.57c.14-.09.14-.22,0-.3"/><path class="cls-19" d="M295.32,319.58l-.82-.47a.57.57,0,0,0-.51,0l-1,.58a.16.16,0,0,0,0,.3l.81.47a.59.59,0,0,0,.52,0l1-.58a.16.16,0,0,0,0-.3"/><path class="cls-19" d="M297.52,318.3l-.81-.47a.57.57,0,0,0-.51,0l-1,.58a.16.16,0,0,0,0,.3l.81.47a.59.59,0,0,0,.52,0l1-.58c.14-.09.14-.22,0-.3"/><path class="cls-19" d="M299.73,317l-.81-.46a.53.53,0,0,0-.52,0l-1,.57c-.14.09-.14.22,0,.3l.81.47a.53.53,0,0,0,.52,0l1-.58c.15-.08.15-.21,0-.3"/><path class="cls-19" d="M301.94,315.73l-.81-.47a.59.59,0,0,0-.52,0l-1,.58a.16.16,0,0,0,0,.3l.81.47a.59.59,0,0,0,.52,0l1-.58c.15-.08.14-.22,0-.3"/><path class="cls-19" d="M304.15,314.45l-.81-.47a.59.59,0,0,0-.52,0l-1,.58c-.15.08-.14.21,0,.3l.81.47a.59.59,0,0,0,.52,0l1-.58c.15-.09.14-.22,0-.3"/><path class="cls-19" d="M288.25,328.07l-.81-.47a.59.59,0,0,0-.52,0l-1.62.94c-.14.09-.14.22,0,.3l.81.47a.57.57,0,0,0,.51,0l1.62-.94c.15-.08.15-.22,0-.3"/><path class="cls-19" d="M290.26,326.9l-.81-.47a.59.59,0,0,0-.52,0l-1,.58a.16.16,0,0,0,0,.3l.81.47a.59.59,0,0,0,.52,0l1-.58c.15-.08.15-.22,0-.3"/><path class="cls-19" d="M292.47,325.62l-.81-.47a.59.59,0,0,0-.52,0l-1,.58c-.14.08-.14.21,0,.3l.81.47a.59.59,0,0,0,.52,0l1-.58c.15-.09.15-.22,0-.3"/><path class="cls-19" d="M294.68,324.33l-.81-.46a.53.53,0,0,0-.52,0l-1,.57c-.15.09-.15.22,0,.3l.81.47a.59.59,0,0,0,.52,0l1-.58c.14-.08.14-.21,0-.3"/><path class="cls-19" d="M296.89,323.05l-.81-.47a.59.59,0,0,0-.52,0l-1,.58c-.15.08-.15.22,0,.3l.81.47a.59.59,0,0,0,.52,0l1-.58a.16.16,0,0,0,0-.3"/><path class="cls-19" d="M299.1,321.77l-.81-.47a.53.53,0,0,0-.52,0l-1,.58c-.14.08-.14.21,0,.3l.81.46a.52.52,0,0,0,.51,0l1-.57c.14-.09.14-.22,0-.3"/><path class="cls-19" d="M301.31,320.48l-.81-.47a.59.59,0,0,0-.52,0l-1,.58c-.14.09-.14.22,0,.3l.81.47a.57.57,0,0,0,.51,0l1-.58a.16.16,0,0,0,0-.3"/><path class="cls-19" d="M303.52,319.2l-.81-.47a.59.59,0,0,0-.52,0l-1,.58a.16.16,0,0,0,0,.3l.81.47a.59.59,0,0,0,.52,0l1-.58a.16.16,0,0,0,0-.3"/><path class="cls-19" d="M305.72,317.91l-.81-.46a.52.52,0,0,0-.51,0l-1,.58c-.14.08-.14.21,0,.3l.81.46a.53.53,0,0,0,.52,0l1-.58c.14-.08.14-.21,0-.3"/><path class="cls-19" d="M310.14,315.35l-.81-.47a.59.59,0,0,0-.52,0l-3.2,1.86a.16.16,0,0,0,0,.3l.81.47a.59.59,0,0,0,.52,0l3.2-1.86c.15-.09.15-.22,0-.3"/><path class="cls-19" d="M289.48,325.16l-.81-.47a.59.59,0,0,0-.52,0l-1,.58c-.14.09-.14.22,0,.3l.81.47a.59.59,0,0,0,.52,0l1-.58c.15-.08.15-.21,0-.3"/><path class="cls-19" d="M291.69,323.88l-.81-.47a.59.59,0,0,0-.52,0l-1,.58c-.15.08-.14.22,0,.3l.81.47a.59.59,0,0,0,.52,0l1-.58c.15-.08.15-.22,0-.3"/><path class="cls-19" d="M293.9,322.6l-.81-.47a.53.53,0,0,0-.52,0l-1,.58c-.15.08-.15.21,0,.3l.81.46a.53.53,0,0,0,.52,0l1-.57c.14-.09.14-.22,0-.3"/><path class="cls-19" d="M296.11,321.31l-.81-.47a.59.59,0,0,0-.52,0l-1,.58c-.14.08-.14.22,0,.3l.81.47a.57.57,0,0,0,.51,0l1-.58c.14-.08.14-.21,0-.3"/><path class="cls-19" d="M298.32,320l-.81-.47a.59.59,0,0,0-.52,0l-1,.58c-.14.08-.14.22,0,.3l.81.47a.57.57,0,0,0,.51,0l1-.58a.16.16,0,0,0,0-.3"/><path class="cls-19" d="M300.53,318.74l-.81-.46a.53.53,0,0,0-.52,0l-1,.57c-.14.09-.14.22,0,.3l.81.47a.53.53,0,0,0,.52,0l1-.58c.14-.08.14-.21,0-.3"/><path class="cls-19" d="M302.74,317.46l-.82-.47a.57.57,0,0,0-.51,0l-1,.58a.16.16,0,0,0,0,.3l.81.47a.59.59,0,0,0,.52,0l1-.58a.16.16,0,0,0,0-.3"/><path class="cls-19" d="M304.94,316.18l-.81-.47a.57.57,0,0,0-.51,0l-1,.58c-.14.08-.14.21,0,.3l.81.47a.59.59,0,0,0,.52,0l1-.58c.14-.09.14-.22,0-.3"/><path class="cls-19" d="M307.15,314.89l-.81-.46a.53.53,0,0,0-.52,0l-1,.57c-.14.09-.14.22,0,.3l.81.47a.59.59,0,0,0,.52,0l1-.58c.15-.08.15-.21,0-.3"/><path class="cls-19" d="M308.25,314.26l-1.89-1.1-.15-.08-.66-.39a.59.59,0,0,0-.52,0l-1,.58c-.15.09-.15.22,0,.3l.81.47a.59.59,0,0,0,.52,0l.35-.2a.49.49,0,0,1,.47,0l1.4.8a.59.59,0,0,0,.52,0l.14-.09c.15-.08.15-.21,0-.29"/><path class="cls-19" d="M280.59,323.55l-.81-.47a.59.59,0,0,0-.52,0l-1.62.94a.16.16,0,0,0,0,.3l.81.47a.59.59,0,0,0,.52,0l1.62-.94a.16.16,0,0,0,0-.3"/><path class="cls-19" d="M283.56,324l-.81-.47a.57.57,0,0,0-.51,0l-2.71,1.57c-.14.09-.14.22,0,.3l.81.47a.59.59,0,0,0,.52,0l2.71-1.57c.14-.08.14-.22,0-.3"/><path class="cls-19" d="M282.6,322.38l-.81-.47a.59.59,0,0,0-.52,0l-1,.58c-.14.08-.14.22,0,.3l.81.47a.57.57,0,0,0,.51,0l1-.58a.16.16,0,0,0,0-.3"/><path class="cls-19" d="M284.81,321.1l-.81-.47a.56.56,0,0,0-.52,0l-1,.58c-.14.08-.14.21,0,.3l.82.46a.52.52,0,0,0,.51,0l1-.57c.14-.09.14-.22,0-.3"/><path class="cls-19" d="M287,319.81l-.81-.47a.59.59,0,0,0-.52,0l-1,.58c-.14.09-.14.22,0,.3l.82.47a.57.57,0,0,0,.51,0l1-.58a.16.16,0,0,0,0-.3"/><path class="cls-19" d="M289.23,318.53l-.82-.47a.57.57,0,0,0-.51,0l-1,.58a.16.16,0,0,0,0,.3l.81.47a.59.59,0,0,0,.52,0l1-.58a.16.16,0,0,0,0-.3"/><path class="cls-19" d="M291.43,317.24l-.81-.46a.52.52,0,0,0-.51,0l-1,.58c-.14.08-.14.21,0,.3l.81.46a.53.53,0,0,0,.52,0l1-.58c.14-.08.14-.21,0-.3"/><path class="cls-19" d="M293.64,316l-.81-.47a.57.57,0,0,0-.51,0l-1,.58a.16.16,0,0,0,0,.3l.81.47a.59.59,0,0,0,.52,0l1-.58c.14-.08.14-.22,0-.3"/><path class="cls-19" d="M295.85,314.68l-.81-.47a.59.59,0,0,0-.52,0l-1,.58c-.14.08-.14.21,0,.3l.81.47a.59.59,0,0,0,.52,0l1-.58c.15-.09.15-.22,0-.3"/><path class="cls-19" d="M298.06,313.39l-.81-.46a.53.53,0,0,0-.52,0l-1,.57c-.15.09-.14.22,0,.3l.81.47a.59.59,0,0,0,.52,0l1-.58c.15-.08.14-.21,0-.3"/><path class="cls-19" d="M300.27,312.11l-.81-.47a.59.59,0,0,0-.52,0l-1,.58c-.15.08-.15.22,0,.3l.81.47a.59.59,0,0,0,.52,0l1-.58a.16.16,0,0,0,0-.3"/><path class="cls-19" d="M285.6,322.83l-.81-.47a.56.56,0,0,0-.52,0l-1,.58c-.15.08-.14.21,0,.3l.81.46a.53.53,0,0,0,.52,0l1-.57c.15-.09.14-.22,0-.3"/><path class="cls-19" d="M287.81,321.54l-.81-.47a.59.59,0,0,0-.52,0l-1,.58c-.15.09-.15.22,0,.3l.81.47a.59.59,0,0,0,.52,0l1-.58c.14-.08.14-.21,0-.3"/><path class="cls-19" d="M290,320.26l-.81-.47a.59.59,0,0,0-.52,0l-1,.58c-.14.08-.14.22,0,.3l.81.47a.57.57,0,0,0,.51,0l1-.58a.16.16,0,0,0,0-.3"/><path class="cls-19" d="M292.23,319l-.81-.47a.53.53,0,0,0-.52,0l-1,.58c-.14.08-.14.21,0,.3l.82.46a.52.52,0,0,0,.51,0l1-.58a.15.15,0,0,0,0-.29"/><path class="cls-19" d="M294.44,317.69l-.81-.47a.59.59,0,0,0-.52,0l-1,.58a.16.16,0,0,0,0,.3l.82.47a.57.57,0,0,0,.51,0l1-.58a.16.16,0,0,0,0-.3"/><path class="cls-19" d="M296.65,316.41l-.82-.47a.57.57,0,0,0-.51,0l-1,.58a.16.16,0,0,0,0,.3l.81.47a.59.59,0,0,0,.52,0l1-.58c.14-.09.14-.22,0-.3"/><path class="cls-19" d="M298.85,315.12l-.81-.46a.52.52,0,0,0-.51,0l-1,.57c-.14.09-.14.22,0,.3l.81.47a.53.53,0,0,0,.52,0l1-.58c.14-.08.14-.21,0-.3"/><path class="cls-19" d="M301.06,313.84l-.81-.47a.57.57,0,0,0-.51,0l-1,.58a.16.16,0,0,0,0,.3l.81.47a.59.59,0,0,0,.52,0l1-.58c.14-.08.14-.22,0-.3"/><path class="cls-19" d="M303.27,312.56l-.81-.47a.59.59,0,0,0-.52,0l-1,.58c-.14.08-.14.21,0,.3l.81.46a.53.53,0,0,0,.52,0l1-.57c.15-.09.15-.22,0-.3"/><path class="cls-19" d="M304.37,311.92l-1.89-1.09-.15-.09-.66-.38a.59.59,0,0,0-.52,0l-1,.58c-.14.08-.14.21,0,.3l.81.46a.53.53,0,0,0,.52,0l.35-.2a.49.49,0,0,1,.47,0l1.4.8a.52.52,0,0,0,.51,0l.15-.08a.16.16,0,0,0,0-.3"/><path class="cls-21" d="M286.94,333.61l4.29-19.15a1,1,0,0,1,.47-.64l26.82-15.57a1,1,0,0,1,1.47,1.07l-3.89,17.46L287.48,333.9Z"/><path class="cls-20" d="M287.48,333.9l4.29-19.15a1,1,0,0,1,.47-.64l26.83-15.57a1,1,0,0,1,1.46,1.07l-3.89,17.45Z"/><path class="cls-20" d="M324.6,288.42h0a.83.83,0,0,1,.43-.73l28.52-15.52a.83.83,0,0,1,.78,0L373.14,282a.82.82,0,0,1,.45.73h0a.83.83,0,0,1-.42.72L344.6,299.93a.8.8,0,0,1-.82,0L325,289.13A.8.8,0,0,1,324.6,288.42Z"/><path class="cls-5" d="M325.53,287.38l28.1-16.22a.62.62,0,0,1,.62,0l18.4,10.52a.64.64,0,0,1,0,1.09L344.5,299a.58.58,0,0,1-.62,0l-18.35-10.55A.63.63,0,0,1,325.53,287.38Z"/><polygon class="cls-21" points="338.94 281.08 343.45 283.65 349.44 280.19 344.94 277.62 338.94 281.08"/><path class="cls-19" d="M341.72,292.37l-.81-.47a.59.59,0,0,0-.52,0l-1.62,1c-.14.08-.14.21,0,.3l.81.46a.52.52,0,0,0,.51,0l1.62-.94c.15-.08.15-.22,0-.3"/><path class="cls-19" d="M344.7,292.83l-.81-.46a.53.53,0,0,0-.52,0l-2.7,1.57c-.15.08-.15.21,0,.3l.81.47a.59.59,0,0,0,.52,0l2.7-1.58c.14-.08.14-.21,0-.3"/><path class="cls-19" d="M343.73,291.2l-.81-.46a.52.52,0,0,0-.51,0l-1,.57c-.14.09-.14.22,0,.3l.81.47a.59.59,0,0,0,.52,0l1-.58c.14-.08.14-.21,0-.3"/><path class="cls-19" d="M345.94,289.92l-.81-.47a.59.59,0,0,0-.52,0l-1,.58a.16.16,0,0,0,0,.3l.81.47a.59.59,0,0,0,.52,0l1-.58c.15-.08.15-.22,0-.3"/><path class="cls-19" d="M348.15,288.64l-.81-.47a.59.59,0,0,0-.52,0l-1,.58c-.15.08-.14.21,0,.3l.81.46a.53.53,0,0,0,.52,0l1-.57c.15-.09.15-.22,0-.3"/><path class="cls-19" d="M350.36,287.35l-.81-.47a.59.59,0,0,0-.52,0l-1,.58c-.15.09-.15.22,0,.3l.81.47a.59.59,0,0,0,.52,0l1-.58c.14-.08.14-.21,0-.3"/><path class="cls-19" d="M352.57,286.07l-.81-.47a.59.59,0,0,0-.52,0l-1,.58c-.14.08-.14.22,0,.3l.81.47a.59.59,0,0,0,.52,0l1-.58a.16.16,0,0,0,0-.3"/><path class="cls-19" d="M354.78,284.79l-.81-.47a.53.53,0,0,0-.52,0l-1,.58c-.14.08-.14.21,0,.3l.81.46a.52.52,0,0,0,.51,0l1-.57c.14-.09.14-.22,0-.3"/><path class="cls-19" d="M357,283.5l-.81-.47a.59.59,0,0,0-.52,0l-1,.58a.16.16,0,0,0,0,.3l.82.47a.57.57,0,0,0,.51,0l1-.58a.16.16,0,0,0,0-.3"/><path class="cls-19" d="M359.2,282.22l-.82-.47a.57.57,0,0,0-.51,0l-1,.58a.16.16,0,0,0,0,.3l.81.47a.59.59,0,0,0,.52,0l1-.58c.14-.09.14-.22,0-.3"/><path class="cls-19" d="M361.41,280.93l-.82-.46a.52.52,0,0,0-.51,0l-1,.57c-.14.09-.14.22,0,.3l.81.47a.53.53,0,0,0,.52,0l1-.58c.14-.08.14-.21,0-.3"/><path class="cls-19" d="M345.51,294.56l-.81-.47a.59.59,0,0,0-.52,0l-1.62.94c-.15.08-.14.22,0,.3l.81.47a.59.59,0,0,0,.52,0l1.62-.94c.14-.09.14-.22,0-.3"/><path class="cls-19" d="M347.52,293.39l-.81-.47a.59.59,0,0,0-.52,0l-1,.58a.16.16,0,0,0,0,.3l.81.47a.59.59,0,0,0,.52,0l1-.58c.14-.09.14-.22,0-.3"/><path class="cls-19" d="M349.73,292.1l-.81-.46a.53.53,0,0,0-.52,0l-1,.58c-.14.08-.14.21,0,.3l.81.46a.53.53,0,0,0,.52,0l1-.58c.14-.08.14-.21,0-.3"/><path class="cls-19" d="M351.93,290.82l-.81-.47a.57.57,0,0,0-.51,0l-1,.58a.16.16,0,0,0,0,.3l.81.47a.59.59,0,0,0,.52,0l1-.58c.14-.08.14-.22,0-.3"/><path class="cls-19" d="M354.14,289.54l-.81-.47a.57.57,0,0,0-.51,0l-1,.58c-.14.08-.14.21,0,.3l.81.47a.59.59,0,0,0,.52,0l1-.58c.14-.09.14-.22,0-.3"/><path class="cls-19" d="M356.35,288.25l-.81-.46a.53.53,0,0,0-.52,0l-1,.57c-.14.09-.14.22,0,.3l.81.47a.59.59,0,0,0,.52,0l1-.58c.15-.08.15-.21,0-.3"/><path class="cls-19" d="M358.56,287l-.81-.47a.59.59,0,0,0-.52,0l-1,.58c-.15.08-.14.22,0,.3l.81.47a.59.59,0,0,0,.52,0l1-.58c.15-.08.15-.22,0-.3"/><path class="cls-19" d="M360.77,285.69l-.81-.47a.56.56,0,0,0-.52,0l-1,.58c-.15.08-.15.21,0,.3l.81.46a.53.53,0,0,0,.52,0l1-.57c.14-.09.14-.22,0-.3"/><path class="cls-19" d="M363,284.4l-.81-.47a.59.59,0,0,0-.52,0l-1,.58c-.15.09-.15.22,0,.3l.81.47a.57.57,0,0,0,.51,0l1-.58c.14-.08.14-.21,0-.3"/><path class="cls-19" d="M367.4,281.83l-.81-.46a.53.53,0,0,0-.52,0l-3.21,1.86c-.14.08-.14.22,0,.3l.81.47a.57.57,0,0,0,.51,0l3.21-1.87c.14-.08.14-.21,0-.3"/><path class="cls-19" d="M346.74,291.65l-.82-.47a.57.57,0,0,0-.51,0l-1,.58a.16.16,0,0,0,0,.3l.81.47a.59.59,0,0,0,.52,0l1-.58a.16.16,0,0,0,0-.3"/><path class="cls-19" d="M349,290.37l-.82-.47a.57.57,0,0,0-.51,0l-1,.58c-.14.08-.14.21,0,.3l.81.46a.53.53,0,0,0,.52,0l1-.57c.14-.09.14-.22,0-.3"/><path class="cls-19" d="M351.15,289.08l-.81-.47a.57.57,0,0,0-.51,0l-1,.58c-.14.09-.14.22,0,.3l.81.47a.59.59,0,0,0,.52,0l1-.58c.14-.08.14-.21,0-.3"/><path class="cls-19" d="M353.36,287.8l-.81-.47a.59.59,0,0,0-.52,0l-1,.58a.16.16,0,0,0,0,.3l.81.47a.59.59,0,0,0,.52,0l1-.58c.15-.08.15-.22,0-.3"/><path class="cls-19" d="M355.57,286.52l-.81-.47a.53.53,0,0,0-.52,0l-1,.58c-.15.08-.14.21,0,.3l.81.46a.53.53,0,0,0,.52,0l1-.57c.15-.09.15-.22,0-.3"/><path class="cls-19" d="M357.78,285.23l-.81-.47a.59.59,0,0,0-.52,0l-1,.58c-.15.08-.15.22,0,.3l.81.47a.59.59,0,0,0,.52,0l1-.58c.14-.08.14-.21,0-.3"/><path class="cls-19" d="M360,284l-.81-.47a.59.59,0,0,0-.52,0l-1,.58c-.14.08-.14.22,0,.3l.81.47a.59.59,0,0,0,.52,0l1-.58a.16.16,0,0,0,0-.3"/><path class="cls-19" d="M362.2,282.66l-.81-.46a.53.53,0,0,0-.52,0l-1,.57c-.14.09-.14.22,0,.3l.81.47a.52.52,0,0,0,.51,0l1-.58c.14-.08.14-.21,0-.3"/><path class="cls-19" d="M364.41,281.38l-.81-.47a.59.59,0,0,0-.52,0l-1,.58a.16.16,0,0,0,0,.3l.82.47a.57.57,0,0,0,.51,0l1-.58a.16.16,0,0,0,0-.3"/><path class="cls-19" d="M365.51,280.74l-1.9-1.09-.14-.08-.67-.39a.57.57,0,0,0-.51,0l-1,.58a.16.16,0,0,0,0,.3l.81.47a.59.59,0,0,0,.52,0l.35-.21a.57.57,0,0,1,.48,0l1.39.81a.59.59,0,0,0,.52,0l.15-.09c.14-.08.14-.21,0-.3"/><path class="cls-19" d="M337.84,290l-.81-.47a.53.53,0,0,0-.52,0l-1.62.94c-.14.08-.14.22,0,.3l.81.47a.57.57,0,0,0,.51,0l1.62-.94c.15-.09.15-.22,0-.3"/><path class="cls-19" d="M340.82,290.5,340,290a.59.59,0,0,0-.52,0l-2.71,1.57c-.14.08-.14.22,0,.3l.81.47a.59.59,0,0,0,.52,0l2.7-1.57c.14-.09.14-.22,0-.3"/><path class="cls-19" d="M339.85,288.87l-.81-.47a.59.59,0,0,0-.52,0l-1,.58c-.14.08-.14.21,0,.3l.81.47a.59.59,0,0,0,.52,0l1-.58c.15-.09.15-.22,0-.3"/><path class="cls-19" d="M342.06,287.58l-.81-.46a.53.53,0,0,0-.52,0l-1,.57c-.14.09-.14.22,0,.3l.81.47a.59.59,0,0,0,.52,0l1-.58c.15-.08.14-.21,0-.3"/><path class="cls-19" d="M344.27,286.3l-.81-.47a.59.59,0,0,0-.52,0l-1,.58c-.15.08-.14.22,0,.3l.81.47a.59.59,0,0,0,.52,0l1-.58a.16.16,0,0,0,0-.3"/><path class="cls-19" d="M346.48,285l-.81-.47a.59.59,0,0,0-.52,0l-1,.58c-.15.08-.15.21,0,.3l.81.46a.53.53,0,0,0,.52,0l1-.57c.14-.09.14-.22,0-.3"/><path class="cls-19" d="M348.69,283.73l-.81-.47a.59.59,0,0,0-.52,0l-1,.58c-.14.09-.14.22,0,.3l.81.47a.57.57,0,0,0,.51,0l1-.58c.14-.08.14-.21,0-.3"/><path class="cls-19" d="M350.9,282.45l-.81-.47a.59.59,0,0,0-.52,0l-1,.58c-.14.08-.14.22,0,.3l.81.47a.57.57,0,0,0,.51,0l1-.58a.16.16,0,0,0,0-.3"/><path class="cls-19" d="M353.11,281.16l-.81-.46a.53.53,0,0,0-.52,0l-1,.58c-.14.08-.14.21,0,.3l.81.46a.53.53,0,0,0,.52,0l1-.58c.14-.08.14-.21,0-.3"/><path class="cls-19" d="M355.32,279.88l-.82-.47a.57.57,0,0,0-.51,0l-1,.58a.16.16,0,0,0,0,.3l.81.47a.59.59,0,0,0,.52,0l1-.58a.16.16,0,0,0,0-.3"/><path class="cls-19" d="M357.52,278.6l-.81-.47a.57.57,0,0,0-.51,0l-1,.58c-.14.08-.14.21,0,.3l.81.47a.59.59,0,0,0,.52,0l1-.58c.14-.09.14-.22,0-.3"/><path class="cls-19" d="M342.85,289.31l-.81-.46a.52.52,0,0,0-.51,0l-1,.57c-.14.09-.14.22,0,.3l.81.47a.56.56,0,0,0,.52,0l1-.58c.14-.08.14-.21,0-.3"/><path class="cls-19" d="M345.06,288l-.81-.47a.57.57,0,0,0-.51,0l-1,.58a.16.16,0,0,0,0,.3l.81.47a.59.59,0,0,0,.52,0l1-.58c.14-.08.14-.22,0-.3"/><path class="cls-19" d="M347.27,286.75l-.81-.47a.59.59,0,0,0-.52,0l-1,.58c-.14.08-.14.21,0,.3l.81.46a.53.53,0,0,0,.52,0l1-.57c.15-.09.15-.22,0-.3"/><path class="cls-19" d="M349.48,285.46l-.81-.47a.59.59,0,0,0-.52,0l-1,.58c-.14.09-.14.22,0,.3l.81.47a.59.59,0,0,0,.52,0l1-.58c.15-.08.15-.21,0-.3"/><path class="cls-19" d="M351.69,284.18l-.81-.47a.59.59,0,0,0-.52,0l-1,.58c-.15.08-.14.22,0,.3l.81.47a.59.59,0,0,0,.52,0l1-.58c.14-.08.15-.22,0-.3"/><path class="cls-19" d="M353.9,282.9l-.81-.47a.53.53,0,0,0-.52,0l-1,.58c-.15.08-.15.21,0,.3l.81.46a.53.53,0,0,0,.52,0l1-.58a.15.15,0,0,0,0-.29"/><path class="cls-19" d="M356.11,281.61l-.81-.47a.59.59,0,0,0-.52,0l-1,.58c-.14.08-.14.22,0,.3l.81.47a.57.57,0,0,0,.51,0l1-.58a.16.16,0,0,0,0-.3"/><path class="cls-19" d="M358.32,280.33l-.81-.47a.59.59,0,0,0-.52,0l-1,.58c-.14.08-.14.22,0,.3l.81.47a.57.57,0,0,0,.51,0l1-.58c.14-.09.14-.22,0-.3"/><path class="cls-19" d="M360.53,279l-.81-.46a.53.53,0,0,0-.52,0l-1,.57c-.14.09-.14.22,0,.3l.81.47a.53.53,0,0,0,.52,0l1-.58c.14-.08.14-.21,0-.3"/><path class="cls-19" d="M361.62,278.41l-1.89-1.1-.14-.08-.67-.38a.53.53,0,0,0-.52,0l-1,.57c-.14.09-.14.22,0,.3l.81.47a.59.59,0,0,0,.52,0l.35-.2a.51.51,0,0,1,.48,0l1.39.8a.59.59,0,0,0,.52,0l.15-.08c.14-.09.14-.22,0-.3"/><path class="cls-21" d="M344.19,300.1,348.48,281a1,1,0,0,1,.47-.64l26.83-15.57a1,1,0,0,1,1.46,1.07l-3.89,17.45-28.61,17.12Z"/><path class="cls-20" d="M344.74,300.38,349,281.23a1,1,0,0,1,.46-.64L376.32,265a1,1,0,0,1,1.46,1.08l-3.89,17.45Z"/><path class="cls-9" d="M264.3,327l1.7,6.38a1.58,1.58,0,0,0,.93,1.29,4.92,4.92,0,0,0,4.48,0,1.59,1.59,0,0,0,.92-1.29L274,327Z"/><path class="cls-15" d="M272.67,324.38a7.73,7.73,0,0,0-7,0c-1.94,1.13-1.93,2.95,0,4.08a7.8,7.8,0,0,0,7,0c1.94-1.13,1.93-2.95,0-4.08"/><path class="cls-14" d="M271.87,324.84a6,6,0,0,0-5.43,0c-1.5.86-1.49,2.27,0,3.14a6,6,0,0,0,5.44,0c1.49-.87,1.49-2.28,0-3.15"/><path class="cls-15" d="M266.3,334.31a3.35,3.35,0,0,1-1.07-.19,3.18,3.18,0,0,1-1.9-1.78l-.4-1a3,3,0,0,1,1.28-3.77l.58-.34a.75.75,0,0,1,1,.28.74.74,0,0,1-.27,1l-.58.34a1.52,1.52,0,0,0-.64,1.9l.4,1a1.64,1.64,0,0,0,1,.93,1.39,1.39,0,0,0,1.1,0,.75.75,0,1,1,.72,1.31A2.63,2.63,0,0,1,266.3,334.31Z"/><path class="cls-9" d="M324.75,294.65l1.69,6.38a1.6,1.6,0,0,0,.94,1.3,5,5,0,0,0,4.47,0,1.57,1.57,0,0,0,.92-1.3l1.7-6.38Z"/><path class="cls-15" d="M333.11,292.05a7.76,7.76,0,0,0-7,0c-1.93,1.12-1.92,2.95,0,4.07a7.73,7.73,0,0,0,7,0c1.94-1.12,1.92-2.95,0-4.08"/><path class="cls-14" d="M332.31,292.52a6,6,0,0,0-5.43,0c-1.49.87-1.49,2.28,0,3.15a6,6,0,0,0,5.43,0c1.5-.87,1.49-2.28,0-3.15"/><path class="cls-15" d="M326.74,302a3.14,3.14,0,0,1-1.07-.19,3.18,3.18,0,0,1-1.89-1.77l-.4-1a3,3,0,0,1,1.28-3.78l.58-.33a.74.74,0,0,1,1,.27.76.76,0,0,1-.27,1l-.58.33a1.53,1.53,0,0,0-.65,1.9l.4,1a1.71,1.71,0,0,0,1,.94,1.43,1.43,0,0,0,1.1,0,.75.75,0,0,1,.72,1.32A2.62,2.62,0,0,1,326.74,302Z"/><polygon class="cls-30" points="182.9 411.63 160.98 424.35 14.19 339.6 36.28 326.81 182.9 411.63"/><path class="cls-23" d="M173,412.75l17.84-32.28s-46.78-22.3-69.17-35.27c-24.36-14.12-67.17-43.72-67.17-43.72h0c-2.43-1.88-6-1.88-10.07.45-7.27,4.2-13.15,14.37-13.13,22.74,0,3.5,1.06,6.11,2.81,7.67h0l0,0a6.24,6.24,0,0,0,2.16,1.25s46.45,20.3,66.53,32.73C133.82,385.52,177.94,415,173,412.75Z"/><path class="cls-15" d="M102.87,366.36c1.91,1.18,3.87,2.41,5.87,3.66,0-6.25,1.72-18.31,14.28-24.07l-1.32-.75c-3.71-2.15-7.85-4.66-12.2-7.37-8.57,6.64-12.59,15.85-14.07,24.21C98.16,363.55,100.67,365,102.87,366.36Z"/><path class="cls-17" d="M108.74,370s-20.68,2.41-26.54,13.79c0,0-2.34-5.86-1.33-9.88,0,0-6.7,1.85-8,4.35,0,0-.81-14.59,22.59-16.24Z"/></g></g></g></svg>