<svg width="360" height="364" viewBox="0 0 360 364" fill="none" xmlns="http://www.w3.org/2000/svg">
<g filter="url(#filter0_d_163_3)">
<path d="M180 254C239.094 254 287 206.094 287 147C287 87.9055 239.094 40 180 40C120.906 40 73 87.9055 73 147C73 206.094 120.906 254 180 254Z" fill="#FBFBFB"/>
<path d="M253.912 125.399C230.008 112.201 206.109 98.9878 182.215 85.7608C180.974 85.0714 180.082 85.0005 178.786 85.7214C155.424 98.6963 132.037 111.631 108.627 124.524C107.834 124.962 107.113 125.584 106.162 125.706V126.577L110.32 128.873V156.371C109.456 156.813 108.766 157.53 108.362 158.408C107.958 159.286 107.862 160.274 108.091 161.213C108.319 162.151 108.859 162.986 109.623 163.583C110.386 164.18 111.33 164.505 112.302 164.505C113.273 164.505 114.217 164.18 114.98 163.583C115.744 162.986 116.284 162.151 116.512 161.213C116.741 160.274 116.646 159.286 116.241 158.408C115.837 157.53 115.147 156.813 114.283 156.371V131.083L129.274 139.355V136.318C129.274 135.349 129.314 134.38 129.274 133.415C129.239 132.737 129.512 132.398 130.103 132.087C145.11 124.126 161.108 119.912 178.12 119.723C195.957 119.526 212.74 123.74 228.488 132.071C228.771 132.193 229.005 132.403 229.156 132.67C229.306 132.937 229.364 133.246 229.321 133.548C229.281 135.388 229.321 137.231 229.321 139.063C229.321 140.895 229.321 140.843 230.827 140.001L255.402 126.289V125.997C254.764 126.068 254.368 125.647 253.912 125.399Z" fill="#DC2626"/>
<path d="M181.154 195.892C180.793 195.313 180.595 195.475 180.305 195.932C178.998 198.026 177.441 199.956 175.668 201.679C175.311 202.021 175.271 202.226 175.668 202.589C177.23 204.106 178.773 205.643 180.298 207.197C180.694 207.591 180.904 207.505 181.241 207.162C182.771 205.614 184.321 204.085 185.863 202.549C185.978 202.439 186.081 202.313 186.223 202.155C186.109 202.003 185.986 201.857 185.855 201.718C184.056 199.973 182.477 198.017 181.154 195.892Z" fill="#DC2626"/>
<path d="M205.559 166.641C204.767 166.794 204.549 166.956 205.076 167.759C205.749 168.87 206.033 170.172 205.883 171.46C205.733 172.749 205.158 173.951 204.247 174.88C203.336 175.809 202.14 176.411 200.848 176.593C199.556 176.775 198.239 176.526 197.105 175.886C196.312 175.444 196.078 175.673 195.971 176.402C195.825 177.165 195.73 177.938 195.686 178.714C195.563 185.835 201.306 191.598 209.436 191.563C213.645 191.362 217.586 189.065 219.825 184.413C222.065 179.761 221.549 175.11 218.275 171.056C215.001 167.003 210.661 165.688 205.559 166.641Z" fill="#DC2626"/>
<path d="M152.968 166.351C152.021 166.356 151.077 166.456 150.15 166.65C149.48 166.792 149.194 166.914 149.678 167.682C150.383 168.804 150.686 170.129 150.537 171.443C150.388 172.758 149.797 173.983 148.859 174.922C147.922 175.86 146.692 176.456 145.371 176.612C144.049 176.769 142.714 176.477 141.58 175.784C140.855 175.339 140.748 175.588 140.633 176.222C139.709 181.342 141.152 185.628 145.227 188.889C146.821 190.127 148.69 190.967 150.678 191.341C152.666 191.714 154.715 191.609 156.654 191.036C158.593 190.462 160.366 189.435 161.824 188.042C163.282 186.649 164.384 184.929 165.038 183.027C165.691 181.124 165.877 179.094 165.581 177.105C165.284 175.116 164.512 173.227 163.331 171.595C162.15 169.963 160.593 168.635 158.79 167.723C156.987 166.811 154.991 166.34 152.968 166.351Z" fill="#DC2626"/>
<path d="M237.163 170.238C237.163 164.545 237.163 158.856 237.163 153.17V143.323L223.623 150.697C223.623 149.818 223.623 148.944 223.623 148.066C223.623 144.434 223.579 140.802 223.646 137.17C223.646 136.107 223.337 135.544 222.358 135.067C208.905 128.46 194.099 125.026 179.092 125.03C164.085 125.035 149.282 128.479 135.833 135.095C134.853 135.571 134.544 136.138 134.552 137.202C134.58 141.121 134.584 145.04 134.584 148.96L129.736 146.447C129.666 146.401 129.592 146.361 129.514 146.328H129.479L128.662 145.907C128.543 145.84 128.424 145.773 128.301 145.71L124.302 143.642V144.367C124.302 151.575 124.262 158.784 124.302 165.992C124.302 167.473 124.302 168.95 124.278 170.431C122.017 177.769 122.689 185.69 126.154 192.548C129.618 199.407 135.608 204.675 142.88 207.258C150.152 209.84 158.145 209.54 165.2 206.417C172.254 203.295 177.826 197.592 180.758 190.492C183.739 197.548 189.333 203.195 196.384 206.269C203.436 209.342 211.406 209.605 218.647 207.005C225.889 204.405 231.849 199.139 235.295 192.296C238.74 185.454 239.409 177.557 237.163 170.238ZM153.071 200.328C148.817 200.328 144.659 199.074 141.122 196.726C137.585 194.377 134.829 191.039 133.201 187.134C131.573 183.229 131.147 178.931 131.977 174.785C132.807 170.639 134.855 166.831 137.863 163.842C140.871 160.853 144.703 158.818 148.875 157.993C153.047 157.168 157.372 157.591 161.302 159.209C165.232 160.827 168.591 163.566 170.954 167.081C173.317 170.596 174.579 174.728 174.579 178.955C174.571 184.621 172.303 190.053 168.271 194.06C164.239 198.066 158.773 200.321 153.071 200.328ZM163.563 151C171.842 149.693 180.254 149.434 188.599 150.232C191.423 150.495 194.214 150.879 196.97 151.386C189.662 154.411 183.84 160.167 180.758 167.414C179.164 163.661 176.817 160.27 173.861 157.448C170.905 154.626 167.401 152.432 163.563 151ZM208.445 200.328C204.191 200.328 200.033 199.074 196.496 196.726C192.959 194.377 190.203 191.039 188.575 187.134C186.947 183.229 186.521 178.931 187.351 174.785C188.181 170.639 190.229 166.831 193.237 163.842C196.245 160.853 200.077 158.818 204.249 157.993C208.421 157.168 212.746 157.591 216.676 159.209C220.606 160.827 223.965 163.566 226.328 167.081C228.691 170.596 229.953 174.728 229.953 178.955C229.946 184.622 227.679 190.054 223.646 194.061C219.614 198.068 214.147 200.322 208.445 200.328Z" fill="#DC2626"/>
</g>
<defs>
<filter id="filter0_d_163_3" x="-2" y="0" width="364" height="364" filterUnits="userSpaceOnUse" color-interpolation-filters="sRGB">
<feFlood flood-opacity="0" result="BackgroundImageFix"/>
<feColorMatrix in="SourceAlpha" type="matrix" values="0 0 0 0 0 0 0 0 0 0 0 0 0 0 0 0 0 0 127 0" result="hardAlpha"/>
<feOffset dy="35"/>
<feGaussianBlur stdDeviation="37.5"/>
<feComposite in2="hardAlpha" operator="out"/>
<feColorMatrix type="matrix" values="0 0 0 0 0 0 0 0 0 0 0 0 0 0 0 0 0 0 0.25 0"/>
<feBlend mode="normal" in2="BackgroundImageFix" result="effect1_dropShadow_163_3"/>
<feBlend mode="normal" in="SourceGraphic" in2="effect1_dropShadow_163_3" result="shape"/>
</filter>
</defs>
</svg>
