<svg width="254" height="255" viewBox="0 0 254 255" fill="none" xmlns="http://www.w3.org/2000/svg">
<g filter="url(#filter0_d_163_11)">
<path d="M127 234.789C186.094 234.789 234 186.883 234 127.789C234 68.6941 186.094 20.7886 127 20.7886C67.9055 20.7886 20 68.6941 20 127.789C20 186.883 67.9055 234.789 127 234.789Z" fill="#FBFBFB"/>
</g>
<path d="M199.75 106.187C175.846 92.9895 151.947 79.7764 128.053 66.5494C126.812 65.86 125.92 65.7891 124.624 66.51C101.262 79.4849 77.875 92.4195 54.465 105.312C53.672 105.75 52.951 106.372 52 106.494V107.365L56.158 109.661V137.159C55.294 137.601 54.604 138.318 54.2 139.196C53.796 140.074 53.7 141.062 53.929 142.001C54.157 142.939 54.697 143.774 55.461 144.371C56.224 144.968 57.168 145.293 58.14 145.293C59.111 145.293 60.055 144.968 60.818 144.371C61.582 143.774 62.122 142.939 62.35 142.001C62.579 141.062 62.484 140.074 62.079 139.196C61.675 138.318 60.985 137.601 60.121 137.159V111.871L75.112 120.143V117.106C75.112 116.137 75.152 115.168 75.112 114.203C75.077 113.525 75.35 113.186 75.941 112.875C90.948 104.914 106.946 100.7 123.958 100.511C141.795 100.314 158.578 104.528 174.326 112.859C174.609 112.981 174.843 113.191 174.994 113.458C175.144 113.725 175.202 114.034 175.159 114.336C175.119 116.176 175.159 118.019 175.159 119.851C175.159 121.683 175.159 121.631 176.665 120.789L201.24 107.077V106.785C200.602 106.856 200.206 106.435 199.75 106.187Z" fill="#DC2626"/>
<path d="M126.992 176.68C126.631 176.101 126.433 176.263 126.143 176.72C124.836 178.814 123.279 180.744 121.506 182.467C121.149 182.809 121.109 183.014 121.506 183.377C123.068 184.894 124.611 186.431 126.136 187.985C126.532 188.379 126.742 188.293 127.079 187.95C128.609 186.402 130.159 184.873 131.701 183.337C131.816 183.227 131.919 183.101 132.061 182.943C131.947 182.791 131.824 182.645 131.693 182.506C129.894 180.761 128.315 178.805 126.992 176.68Z" fill="#DC2626"/>
<path d="M151.397 147.429C150.605 147.582 150.387 147.744 150.914 148.547C151.587 149.658 151.871 150.96 151.721 152.248C151.571 153.537 150.996 154.739 150.085 155.668C149.174 156.597 147.978 157.199 146.686 157.381C145.394 157.563 144.077 157.314 142.943 156.674C142.15 156.232 141.916 156.461 141.809 157.19C141.663 157.953 141.568 158.726 141.524 159.502C141.401 166.623 147.144 172.386 155.274 172.351C159.483 172.15 163.424 169.853 165.663 165.201C167.903 160.549 167.387 155.898 164.113 151.844C160.839 147.791 156.499 146.476 151.397 147.429Z" fill="#DC2626"/>
<path d="M98.8057 147.139C97.8587 147.144 96.9147 147.244 95.9877 147.438C95.3177 147.58 95.0317 147.702 95.5157 148.47C96.2207 149.592 96.5237 150.917 96.3747 152.231C96.2257 153.546 95.6347 154.771 94.6967 155.71C93.7597 156.648 92.5297 157.244 91.2087 157.4C89.8867 157.557 88.5517 157.265 87.4177 156.572C86.6927 156.127 86.5857 156.376 86.4707 157.01C85.5467 162.13 86.9897 166.416 91.0647 169.677C92.6587 170.915 94.5277 171.755 96.5157 172.129C98.5037 172.502 100.553 172.397 102.492 171.824C104.431 171.25 106.204 170.223 107.662 168.83C109.12 167.437 110.222 165.717 110.876 163.815C111.529 161.912 111.715 159.882 111.419 157.893C111.122 155.904 110.35 154.015 109.169 152.383C107.988 150.751 106.431 149.423 104.628 148.511C102.825 147.599 100.829 147.128 98.8057 147.139Z" fill="#DC2626"/>
<path d="M183.001 151.026C183.001 145.333 183.001 139.644 183.001 133.958V124.111L169.461 131.485C169.461 130.606 169.461 129.732 169.461 128.854C169.461 125.222 169.417 121.59 169.484 117.958C169.484 116.895 169.175 116.332 168.196 115.855C154.743 109.248 139.937 105.814 124.93 105.818C109.923 105.823 95.1201 109.267 81.6711 115.883C80.6911 116.359 80.3821 116.926 80.3901 117.99C80.4181 121.909 80.4221 125.828 80.4221 129.748L75.5741 127.235C75.5041 127.189 75.4301 127.149 75.3521 127.116H75.3171L74.5001 126.695C74.3811 126.628 74.2621 126.561 74.1391 126.498L70.1401 124.43V125.155C70.1401 132.363 70.1001 139.572 70.1401 146.78C70.1401 148.261 70.1401 149.738 70.1161 151.219C67.8551 158.557 68.5271 166.478 71.9921 173.336C75.4561 180.195 81.4461 185.463 88.7181 188.046C95.9901 190.628 103.983 190.328 111.038 187.205C118.092 184.083 123.664 178.38 126.596 171.28C129.577 178.336 135.171 183.983 142.222 187.057C149.274 190.13 157.244 190.393 164.485 187.793C171.727 185.193 177.687 179.927 181.133 173.084C184.578 166.242 185.247 158.345 183.001 151.026ZM98.9091 181.116C94.6551 181.116 90.4971 179.862 86.9601 177.514C83.4231 175.165 80.6671 171.827 79.0391 167.922C77.4111 164.017 76.9851 159.719 77.8151 155.573C78.6451 151.427 80.6931 147.619 83.7011 144.63C86.7091 141.641 90.5411 139.606 94.7131 138.781C98.8851 137.956 103.21 138.379 107.14 139.997C111.07 141.615 114.429 144.354 116.792 147.869C119.155 151.384 120.417 155.516 120.417 159.743C120.409 165.409 118.141 170.841 114.109 174.848C110.077 178.854 104.611 181.109 98.9091 181.116ZM109.401 131.788C117.68 130.481 126.092 130.222 134.437 131.02C137.261 131.283 140.052 131.667 142.808 132.174C135.5 135.199 129.678 140.955 126.596 148.202C125.002 144.449 122.655 141.058 119.699 138.236C116.743 135.414 113.239 133.22 109.401 131.788ZM154.283 181.116C150.029 181.116 145.871 179.862 142.334 177.514C138.797 175.165 136.041 171.827 134.413 167.922C132.785 164.017 132.359 159.719 133.189 155.573C134.019 151.427 136.067 147.619 139.075 144.63C142.083 141.641 145.915 139.606 150.087 138.781C154.259 137.956 158.584 138.379 162.514 139.997C166.444 141.615 169.803 144.354 172.166 147.869C174.529 151.384 175.791 155.516 175.791 159.743C175.784 165.41 173.517 170.842 169.484 174.849C165.452 178.856 159.985 181.11 154.283 181.116Z" fill="#DC2626"/>
<defs>
<filter id="filter0_d_163_11" x="0" y="0.788574" width="254" height="254" filterUnits="userSpaceOnUse" color-interpolation-filters="sRGB">
<feFlood flood-opacity="0" result="BackgroundImageFix"/>
<feColorMatrix in="SourceAlpha" type="matrix" values="0 0 0 0 0 0 0 0 0 0 0 0 0 0 0 0 0 0 127 0" result="hardAlpha"/>
<feOffset/>
<feGaussianBlur stdDeviation="10"/>
<feComposite in2="hardAlpha" operator="out"/>
<feColorMatrix type="matrix" values="0 0 0 0 0 0 0 0 0 0 0 0 0 0 0 0 0 0 0.25 0"/>
<feBlend mode="normal" in2="BackgroundImageFix" result="effect1_dropShadow_163_11"/>
<feBlend mode="normal" in="SourceGraphic" in2="effect1_dropShadow_163_11" result="shape"/>
</filter>
</defs>
</svg>
