<svg width="322" height="109" viewBox="0 0 322 109" fill="none" xmlns="http://www.w3.org/2000/svg">
<g filter="url(#filter0_d_277_709)">
<rect x="0.786774" y="0.879883" width="314.889" height="108" rx="12" fill="#DC2626"/>
<g clip-path="url(#clip0_277_709)">
<path d="M74.8523 56.321C74.8271 52.171 76.7708 49.0432 80.6958 46.737C78.5006 43.6945 75.1794 42.0211 70.8015 41.6986C66.6563 41.3821 62.1211 44.0352 60.4605 44.0352C58.7056 44.0352 54.6925 41.8081 51.5348 41.8081C45.0183 41.9055 38.0929 46.8344 38.0929 56.8625C38.0929 59.826 38.6527 62.8868 39.7723 66.0388C41.2694 70.1888 46.6663 80.357 52.2959 80.1927C55.2397 80.1257 57.3217 78.1724 61.1524 78.1724C64.8699 78.1724 66.7947 80.1927 70.0781 80.1927C75.7581 80.1136 80.6392 70.8704 82.0608 66.7082C74.4434 63.2336 74.8523 56.5339 74.8523 56.321ZM68.2414 37.7615C71.4305 34.0983 71.1411 30.7637 71.0468 29.5649C68.2288 29.7232 64.9705 31.4209 63.1149 33.5081C61.0707 35.7474 59.8692 38.5161 60.1271 41.6377C63.1716 41.8629 65.9518 40.3477 68.2414 37.7615Z" fill="white"/>
</g>
<path d="M116.918 45.3799V32.3227H122.85C124.267 32.3227 125.517 32.5963 126.599 33.1435C127.681 33.6782 128.526 34.4305 129.136 35.4005C129.745 36.3705 130.05 37.5207 130.05 38.8513C130.05 40.1695 129.745 41.3197 129.136 42.3021C128.526 43.2721 127.681 44.0306 126.599 44.5778C125.517 45.1125 124.267 45.3799 122.85 45.3799H116.918ZM119.94 42.899H122.7C123.571 42.899 124.323 42.7374 124.957 42.414C125.604 42.0783 126.102 41.6057 126.45 40.9964C126.81 40.3871 126.991 39.672 126.991 38.8513C126.991 38.0181 126.81 37.3031 126.45 36.7062C126.102 36.0969 125.604 35.6306 124.957 35.3072C124.323 34.9715 123.571 34.8036 122.7 34.8036H119.94V42.899ZM137.165 45.5291C136.096 45.5291 135.144 45.3053 134.311 44.8576C133.49 44.4099 132.838 43.8006 132.353 43.0296C131.88 42.2462 131.644 41.357 131.644 40.3622C131.644 39.3549 131.88 38.4658 132.353 37.6948C132.838 36.9114 133.49 36.3021 134.311 35.8668C135.144 35.4192 136.096 35.1953 137.165 35.1953C138.222 35.1953 139.167 35.4192 140 35.8668C140.834 36.3021 141.486 36.9052 141.959 37.6762C142.431 38.4472 142.668 39.3425 142.668 40.3622C142.668 41.357 142.431 42.2462 141.959 43.0296C141.486 43.8006 140.834 44.4099 140 44.8576C139.167 45.3053 138.222 45.5291 137.165 45.5291ZM137.165 43.1415C137.65 43.1415 138.085 43.0296 138.471 42.8058C138.856 42.5819 139.161 42.2648 139.385 41.8545C139.609 41.4317 139.721 40.9342 139.721 40.3622C139.721 39.7777 139.609 39.2803 139.385 38.87C139.161 38.4596 138.856 38.1425 138.471 37.9187C138.085 37.6948 137.65 37.5829 137.165 37.5829C136.68 37.5829 136.245 37.6948 135.859 37.9187C135.474 38.1425 135.163 38.4596 134.927 38.87C134.703 39.2803 134.591 39.7777 134.591 40.3622C134.591 40.9342 134.703 41.4317 134.927 41.8545C135.163 42.2648 135.474 42.5819 135.859 42.8058C136.245 43.0296 136.68 43.1415 137.165 43.1415ZM146.9 45.3799L143.282 35.3445H146.024L149.027 43.9809H147.721L150.855 35.3445H153.317L156.357 43.9809H155.052L158.148 35.3445H160.722L157.085 45.3799H154.268L151.601 37.9746H152.459L149.698 45.3799H146.9ZM168.441 35.1953C169.237 35.1953 169.946 35.357 170.567 35.6803C171.202 35.9912 171.699 36.4762 172.06 37.1352C172.42 37.7819 172.601 38.615 172.601 39.6347V45.3799H169.691V40.0824C169.691 39.2741 169.51 38.6772 169.15 38.2917C168.802 37.9062 168.304 37.7135 167.658 37.7135C167.198 37.7135 166.781 37.813 166.408 38.0119C166.047 38.1985 165.761 38.4907 165.55 38.8886C165.351 39.2866 165.251 39.7964 165.251 40.4182V45.3799H162.342V35.3445H165.121V38.1238L164.599 37.2845C164.959 36.6129 165.475 36.0969 166.147 35.7363C166.818 35.3756 167.583 35.1953 168.441 35.1953ZM175.505 45.3799V31.5393H178.415V45.3799H175.505ZM186.157 45.5291C185.088 45.5291 184.136 45.3053 183.303 44.8576C182.482 44.4099 181.829 43.8006 181.344 43.0296C180.872 42.2462 180.636 41.357 180.636 40.3622C180.636 39.3549 180.872 38.4658 181.344 37.6948C181.829 36.9114 182.482 36.3021 183.303 35.8668C184.136 35.4192 185.088 35.1953 186.157 35.1953C187.214 35.1953 188.159 35.4192 188.992 35.8668C189.825 36.3021 190.478 36.9052 190.951 37.6762C191.423 38.4472 191.66 39.3425 191.66 40.3622C191.66 41.357 191.423 42.2462 190.951 43.0296C190.478 43.8006 189.825 44.4099 188.992 44.8576C188.159 45.3053 187.214 45.5291 186.157 45.5291ZM186.157 43.1415C186.642 43.1415 187.077 43.0296 187.463 42.8058C187.848 42.5819 188.153 42.2648 188.377 41.8545C188.6 41.4317 188.712 40.9342 188.712 40.3622C188.712 39.7777 188.6 39.2803 188.377 38.87C188.153 38.4596 187.848 38.1425 187.463 37.9187C187.077 37.6948 186.642 37.5829 186.157 37.5829C185.672 37.5829 185.237 37.6948 184.851 37.9187C184.466 38.1425 184.155 38.4596 183.919 38.87C183.695 39.2803 183.583 39.7777 183.583 40.3622C183.583 40.9342 183.695 41.4317 183.919 41.8545C184.155 42.2648 184.466 42.5819 184.851 42.8058C185.237 43.0296 185.672 43.1415 186.157 43.1415ZM199.863 45.3799V43.4213L199.676 42.9923V39.4855C199.676 38.8638 199.483 38.3788 199.098 38.0306C198.725 37.6824 198.147 37.5083 197.363 37.5083C196.828 37.5083 196.3 37.5953 195.778 37.7694C195.268 37.9311 194.833 38.1549 194.472 38.4409L193.427 36.4078C193.975 36.0223 194.634 35.7238 195.405 35.5124C196.176 35.301 196.959 35.1953 197.755 35.1953C199.284 35.1953 200.472 35.5559 201.318 36.2772C202.163 36.9984 202.586 38.1238 202.586 39.6534V45.3799H199.863ZM196.804 45.5291C196.02 45.5291 195.349 45.3985 194.789 45.1374C194.229 44.8638 193.8 44.497 193.502 44.0369C193.204 43.5768 193.054 43.0607 193.054 42.4887C193.054 41.8918 193.197 41.3695 193.483 40.9218C193.782 40.4741 194.248 40.1259 194.882 39.8772C195.516 39.6161 196.343 39.4855 197.363 39.4855H200.031V41.1829H197.68C196.996 41.1829 196.524 41.2949 196.263 41.5187C196.014 41.7425 195.89 42.0223 195.89 42.3581C195.89 42.7311 196.033 43.0296 196.319 43.2534C196.617 43.4648 197.021 43.5705 197.531 43.5705C198.016 43.5705 198.451 43.4586 198.837 43.2348C199.222 42.9985 199.502 42.6565 199.676 42.2089L200.124 43.5519C199.912 44.1985 199.527 44.6897 198.967 45.0255C198.408 45.3612 197.686 45.5291 196.804 45.5291ZM209.868 45.5291C208.923 45.5291 208.071 45.3177 207.312 44.8949C206.554 44.4597 205.951 43.8566 205.503 43.0856C205.068 42.3146 204.85 41.4068 204.85 40.3622C204.85 39.3052 205.068 38.3912 205.503 37.6202C205.951 36.8492 206.554 36.2523 207.312 35.8295C208.071 35.4067 208.923 35.1953 209.868 35.1953C210.713 35.1953 211.453 35.3818 212.087 35.7549C212.722 36.128 213.213 36.6938 213.561 37.4523C213.909 38.2109 214.083 39.1809 214.083 40.3622C214.083 41.5311 213.915 42.5011 213.58 43.2721C213.244 44.0306 212.759 44.5965 212.125 44.9695C211.503 45.3426 210.751 45.5291 209.868 45.5291ZM210.371 43.1415C210.844 43.1415 211.273 43.0296 211.658 42.8058C212.044 42.5819 212.349 42.2648 212.572 41.8545C212.809 41.4317 212.927 40.9342 212.927 40.3622C212.927 39.7777 212.809 39.2803 212.572 38.87C212.349 38.4596 212.044 38.1425 211.658 37.9187C211.273 37.6948 210.844 37.5829 210.371 37.5829C209.886 37.5829 209.451 37.6948 209.066 37.9187C208.68 38.1425 208.369 38.4596 208.133 38.87C207.909 39.2803 207.797 39.7777 207.797 40.3622C207.797 40.9342 207.909 41.4317 208.133 41.8545C208.369 42.2648 208.68 42.5819 209.066 42.8058C209.451 43.0296 209.886 43.1415 210.371 43.1415ZM213.001 45.3799V43.328L213.057 40.3436L212.871 37.3777V31.5393H215.781V45.3799H213.001ZM229.065 45.5291C227.995 45.5291 227.044 45.3053 226.211 44.8576C225.39 44.4099 224.737 43.8006 224.252 43.0296C223.78 42.2462 223.543 41.357 223.543 40.3622C223.543 39.3549 223.78 38.4658 224.252 37.6948C224.737 36.9114 225.39 36.3021 226.211 35.8668C227.044 35.4192 227.995 35.1953 229.065 35.1953C230.122 35.1953 231.067 35.4192 231.9 35.8668C232.733 36.3021 233.386 36.9052 233.859 37.6762C234.331 38.4472 234.567 39.3425 234.567 40.3622C234.567 41.357 234.331 42.2462 233.859 43.0296C233.386 43.8006 232.733 44.4099 231.9 44.8576C231.067 45.3053 230.122 45.5291 229.065 45.5291ZM229.065 43.1415C229.55 43.1415 229.985 43.0296 230.37 42.8058C230.756 42.5819 231.061 42.2648 231.284 41.8545C231.508 41.4317 231.62 40.9342 231.62 40.3622C231.62 39.7777 231.508 39.2803 231.284 38.87C231.061 38.4596 230.756 38.1425 230.37 37.9187C229.985 37.6948 229.55 37.5829 229.065 37.5829C228.58 37.5829 228.144 37.6948 227.759 37.9187C227.373 38.1425 227.063 38.4596 226.826 38.87C226.602 39.2803 226.491 39.7777 226.491 40.3622C226.491 40.9342 226.602 41.4317 226.826 41.8545C227.063 42.2648 227.373 42.5819 227.759 42.8058C228.144 43.0296 228.58 43.1415 229.065 43.1415ZM242.878 35.1953C243.674 35.1953 244.383 35.357 245.005 35.6803C245.639 35.9912 246.136 36.4762 246.497 37.1352C246.858 37.7819 247.038 38.615 247.038 39.6347V45.3799H244.128V40.0824C244.128 39.2741 243.948 38.6772 243.587 38.2917C243.239 37.9062 242.742 37.7135 242.095 37.7135C241.635 37.7135 241.218 37.813 240.845 38.0119C240.485 38.1985 240.199 38.4907 239.987 38.8886C239.788 39.2866 239.689 39.7964 239.689 40.4182V45.3799H236.779V35.3445H239.558V38.1238L239.036 37.2845C239.396 36.6129 239.913 36.0969 240.584 35.7363C241.256 35.3756 242.02 35.1953 242.878 35.1953Z" fill="white"/>
<path d="M115.178 77.3799L121.829 62.4574H125.24L131.912 77.3799H128.288L122.831 64.2055H124.195L118.717 77.3799H115.178ZM118.504 74.1822L119.42 71.5601H127.095L128.033 74.1822H118.504ZM140.138 77.5504C139.172 77.5504 138.326 77.3372 137.602 76.9109C136.877 76.4845 136.308 75.8379 135.896 74.971C135.498 74.0898 135.299 72.9813 135.299 71.6454C135.299 70.2953 135.491 69.1868 135.875 68.3198C136.259 67.4529 136.813 66.8063 137.538 66.3799C138.262 65.9536 139.129 65.7404 140.138 65.7404C141.218 65.7404 142.185 65.9891 143.038 66.4865C143.905 66.9697 144.587 67.6519 145.084 68.533C145.596 69.4141 145.852 70.4516 145.852 71.6454C145.852 72.8534 145.596 73.898 145.084 74.7791C144.587 75.6602 143.905 76.3424 143.038 76.8256C142.185 77.3088 141.218 77.5504 140.138 77.5504ZM133.359 81.5155V65.9109H136.536V68.2559L136.472 71.6667L136.685 75.0562V81.5155H133.359ZM139.563 74.8218C140.117 74.8218 140.607 74.6938 141.034 74.438C141.474 74.1822 141.823 73.8198 142.078 73.3508C142.348 72.8676 142.483 72.2991 142.483 71.6454C142.483 70.9774 142.348 70.409 142.078 69.94C141.823 69.471 141.474 69.1086 141.034 68.8528C140.607 68.597 140.117 68.4691 139.563 68.4691C139.009 68.4691 138.511 68.597 138.071 68.8528C137.63 69.1086 137.282 69.471 137.026 69.94C136.77 70.409 136.642 70.9774 136.642 71.6454C136.642 72.2991 136.77 72.8676 137.026 73.3508C137.282 73.8198 137.63 74.1822 138.071 74.438C138.511 74.6938 139.009 74.8218 139.563 74.8218ZM154.99 77.5504C154.024 77.5504 153.178 77.3372 152.453 76.9109C151.728 76.4845 151.16 75.8379 150.748 74.971C150.35 74.0898 150.151 72.9813 150.151 71.6454C150.151 70.2953 150.343 69.1868 150.727 68.3198C151.11 67.4529 151.664 66.8063 152.389 66.3799C153.114 65.9536 153.981 65.7404 154.99 65.7404C156.07 65.7404 157.037 65.9891 157.889 66.4865C158.756 66.9697 159.438 67.6519 159.936 68.533C160.447 69.4141 160.703 70.4516 160.703 71.6454C160.703 72.8534 160.447 73.898 159.936 74.7791C159.438 75.6602 158.756 76.3424 157.889 76.8256C157.037 77.3088 156.07 77.5504 154.99 77.5504ZM148.211 81.5155V65.9109H151.387V68.2559L151.323 71.6667L151.537 75.0562V81.5155H148.211ZM154.414 74.8218C154.969 74.8218 155.459 74.6938 155.885 74.438C156.326 74.1822 156.674 73.8198 156.93 73.3508C157.2 72.8676 157.335 72.2991 157.335 71.6454C157.335 70.9774 157.2 70.409 156.93 69.94C156.674 69.471 156.326 69.1086 155.885 68.8528C155.459 68.597 154.969 68.4691 154.414 68.4691C153.86 68.4691 153.363 68.597 152.922 68.8528C152.482 69.1086 152.133 69.471 151.878 69.94C151.622 70.409 151.494 70.9774 151.494 71.6454C151.494 72.2991 151.622 72.8676 151.878 73.3508C152.133 73.8198 152.482 74.1822 152.922 74.438C153.363 74.6938 153.86 74.8218 154.414 74.8218ZM174.371 77.6357C173.177 77.6357 172.033 77.4794 170.939 77.1667C169.844 76.8398 168.963 76.4206 168.295 75.909L169.468 73.3082C170.107 73.763 170.86 74.1396 171.727 74.438C172.608 74.7223 173.497 74.8644 174.392 74.8644C175.074 74.8644 175.621 74.8004 176.034 74.6725C176.46 74.5304 176.773 74.3385 176.972 74.0969C177.17 73.8553 177.27 73.5782 177.27 73.2656C177.27 72.8676 177.114 72.555 176.801 72.3276C176.488 72.086 176.076 71.8941 175.565 71.752C175.053 71.5957 174.484 71.4535 173.859 71.3256C173.248 71.1835 172.63 71.013 172.004 70.814C171.393 70.615 170.832 70.3592 170.32 70.0466C169.809 69.7339 169.389 69.3218 169.063 68.8101C168.75 68.2985 168.594 67.6448 168.594 66.8489C168.594 65.9962 168.821 65.2216 169.276 64.5253C169.745 63.8147 170.441 63.2533 171.365 62.8412C172.303 62.4148 173.475 62.2016 174.882 62.2016C175.82 62.2016 176.744 62.3153 177.654 62.5427C178.563 62.7559 179.366 63.0828 180.063 63.5233L178.997 66.1454C178.3 65.7475 177.604 65.4561 176.908 65.2714C176.211 65.0724 175.529 64.9729 174.861 64.9729C174.193 64.9729 173.646 65.0511 173.22 65.2074C172.793 65.3638 172.488 65.5698 172.303 65.8256C172.118 66.0673 172.026 66.3515 172.026 66.6784C172.026 67.0621 172.182 67.3747 172.495 67.6163C172.807 67.8437 173.22 68.0285 173.731 68.1706C174.243 68.3127 174.804 68.4548 175.415 68.597C176.041 68.7391 176.659 68.9025 177.27 69.0873C177.895 69.272 178.464 69.5207 178.975 69.8334C179.487 70.1461 179.899 70.5582 180.212 71.0698C180.539 71.5814 180.702 72.2281 180.702 73.0097C180.702 73.8482 180.468 74.6157 179.999 75.3121C179.53 76.0084 178.826 76.5698 177.888 76.9962C176.964 77.4225 175.792 77.6357 174.371 77.6357ZM187.651 77.5504C186.3 77.5504 185.249 77.2093 184.496 76.5272C183.742 75.8308 183.366 74.8004 183.366 73.4361V63.3741H186.691V73.3935C186.691 73.8767 186.819 74.2533 187.075 74.5233C187.331 74.7791 187.679 74.907 188.12 74.907C188.645 74.907 189.093 74.7649 189.463 74.4807L190.358 76.8256C190.017 77.0672 189.605 77.252 189.121 77.3799C188.652 77.4936 188.162 77.5504 187.651 77.5504ZM181.596 68.7249V66.1667H189.548V68.7249H181.596ZM197.461 77.5504C196.239 77.5504 195.152 77.2946 194.2 76.783C193.262 76.2714 192.516 75.575 191.961 74.6938C191.421 73.7985 191.151 72.7823 191.151 71.6454C191.151 70.4942 191.421 69.4781 191.961 68.597C192.516 67.7016 193.262 67.0052 194.2 66.5078C195.152 65.9962 196.239 65.7404 197.461 65.7404C198.669 65.7404 199.749 65.9962 200.702 66.5078C201.654 67.0052 202.4 67.6945 202.94 68.5756C203.48 69.4568 203.75 70.48 203.75 71.6454C203.75 72.7823 203.48 73.7985 202.94 74.6938C202.4 75.575 201.654 76.2714 200.702 76.783C199.749 77.2946 198.669 77.5504 197.461 77.5504ZM197.461 74.8218C198.016 74.8218 198.513 74.6938 198.954 74.438C199.394 74.1822 199.742 73.8198 199.998 73.3508C200.254 72.8676 200.382 72.2991 200.382 71.6454C200.382 70.9774 200.254 70.409 199.998 69.94C199.742 69.471 199.394 69.1086 198.954 68.8528C198.513 68.597 198.016 68.4691 197.461 68.4691C196.907 68.4691 196.41 68.597 195.969 68.8528C195.529 69.1086 195.173 69.471 194.903 69.94C194.647 70.409 194.52 70.9774 194.52 71.6454C194.52 72.2991 194.647 72.8676 194.903 73.3508C195.173 73.8198 195.529 74.1822 195.969 74.438C196.41 74.6938 196.907 74.8218 197.461 74.8218ZM206.106 77.3799V65.9109H209.283V69.1512L208.835 68.2132C209.176 67.4032 209.723 66.7921 210.476 66.3799C211.23 65.9536 212.146 65.7404 213.226 65.7404V68.8101C213.084 68.7959 212.956 68.7888 212.843 68.7888C212.729 68.7746 212.608 68.7675 212.48 68.7675C211.571 68.7675 210.832 69.0304 210.263 69.5563C209.709 70.0679 209.432 70.8709 209.432 71.9652V77.3799H206.106ZM220.946 77.5504C219.638 77.5504 218.487 77.2946 217.492 76.783C216.511 76.2714 215.751 75.575 215.211 74.6938C214.671 73.7985 214.401 72.7823 214.401 71.6454C214.401 70.4942 214.664 69.4781 215.19 68.597C215.73 67.7016 216.462 67.0052 217.386 66.5078C218.309 65.9962 219.354 65.7404 220.519 65.7404C221.642 65.7404 222.651 65.982 223.546 66.4652C224.456 66.9342 225.174 67.6163 225.699 68.5117C226.225 69.3928 226.488 70.4516 226.488 71.688C226.488 71.8159 226.481 71.9652 226.467 72.1357C226.453 72.292 226.438 72.4413 226.424 72.5834H217.108V70.6435H224.676L223.397 71.219C223.397 70.6221 223.276 70.1034 223.035 69.6628C222.793 69.2223 222.459 68.8812 222.033 68.6396C221.606 68.3838 221.109 68.2559 220.541 68.2559C219.972 68.2559 219.468 68.3838 219.027 68.6396C218.601 68.8812 218.267 69.2294 218.025 69.6842C217.783 70.1247 217.663 70.6506 217.663 71.2617V71.7733C217.663 72.3986 217.798 72.9529 218.068 73.4361C218.352 73.9051 218.743 74.2675 219.24 74.5233C219.752 74.7649 220.349 74.8857 221.031 74.8857C221.642 74.8857 222.175 74.7933 222.63 74.6086C223.099 74.4238 223.525 74.1467 223.909 73.7772L225.678 75.6958C225.152 76.2927 224.491 76.7546 223.696 77.0814C222.9 77.3941 221.983 77.5504 220.946 77.5504Z" fill="white"/>
</g>
<defs>
<filter id="filter0_d_277_709" x="-4.54267" y="-1.78484" width="325.548" height="118.659" filterUnits="userSpaceOnUse" color-interpolation-filters="sRGB">
<feFlood flood-opacity="0" result="BackgroundImageFix"/>
<feColorMatrix in="SourceAlpha" type="matrix" values="0 0 0 0 0 0 0 0 0 0 0 0 0 0 0 0 0 0 127 0" result="hardAlpha"/>
<feOffset dy="2.66472"/>
<feGaussianBlur stdDeviation="2.66472"/>
<feColorMatrix type="matrix" values="0 0 0 0 0 0 0 0 0 0 0 0 0 0 0 0 0 0 0.1 0"/>
<feBlend mode="normal" in2="BackgroundImageFix" result="effect1_dropShadow_277_709"/>
<feBlend mode="normal" in="SourceGraphic" in2="effect1_dropShadow_277_709" result="shape"/>
</filter>
<clipPath id="clip0_277_709">
<rect width="43.9679" height="50.6297" fill="white" transform="translate(38.0929 29.5649)"/>
</clipPath>
</defs>
</svg>
