<svg width="56" height="40" viewBox="0 0 56 40" fill="none" xmlns="http://www.w3.org/2000/svg">
<path d="M5.4839 40H49.9067C52.8682 40 55.1953 37.684 55.1953 34.7367V5.26332C55.1953 2.31598 52.8682 0 49.9067 0L5.4839 0.000440555C2.52241 0.000440555 0.195312 2.31642 0.195312 5.26376V34.7371C0.195312 37.6845 2.52241 40 5.4839 40ZM49.9067 37.895H5.4839C3.68579 37.895 2.31084 36.5266 2.31084 34.7371V17.8942H53.0798V34.736C53.0798 36.526 51.7048 37.8944 49.9067 37.8944V37.895ZM5.4839 2.10474H49.9067C51.7048 2.10474 53.0798 3.47313 53.0798 5.26264V9.47303L2.31084 9.47347V5.26308C2.31084 3.47312 3.68579 2.10474 5.4839 2.10474Z" fill="#DC2626"/>
<path d="M13.2046 22.106H11.0891C8.76202 22.106 6.85852 24.0008 6.85852 26.3163V28.4218C6.85852 30.7377 8.76247 32.6321 11.0891 32.6321H13.2046C15.5317 32.6321 17.4352 30.7373 17.4352 28.4218V26.3163C17.4352 24.0004 15.5317 22.106 13.2046 22.106ZM15.3202 28.4218C15.3202 29.5796 14.3684 30.5272 13.2046 30.5272H11.0891C9.92574 30.5272 8.97359 29.58 8.97359 28.4218V26.3163C8.97359 25.1585 9.92533 24.2109 11.0891 24.2109H13.2046C14.368 24.2109 15.3202 25.1581 15.3202 26.3163V28.4218Z" fill="#FF6D6D"/>
<path d="M20.608 24.4214H48.6363V26.5268H20.608V24.4214Z" fill="#FF6D6D"/>
<path d="M20.608 28.6328H43.3487V30.7382H20.608V28.6328Z" fill="#FF6D6D"/>
</svg>
