<svg width="123" height="123" viewBox="0 0 123 123" fill="none" xmlns="http://www.w3.org/2000/svg">
<g filter="url(#filter0_d_109_1602)">
<circle cx="61.5" cy="57.5" r="57.5" fill="white"/>
<path d="M61 61.5882L62.6 60L64 61.5882L62.6 63L61 61.5882Z" fill="#DC2626" stroke="#DC2626"/>
<path d="M63.2622 20L39.0889 33.6511L38 34.5318L39.5244 35.1923V44.66C38.3049 45.893 39.4519 46.7884 40.1778 47.082C41.7458 46.7297 41.4119 45.027 41.0489 44.2196V36.073L45.1867 38.495C45.1867 35.5006 53.317 32.9905 57.3822 32.1098H66.5289C68.7938 31.7575 75.8933 34.752 79.16 36.2932V39.3757L87 33.6511L63.2622 20Z" fill="#DC2626"/>
<path d="M44.0978 40.0362L47.3644 41.5775L47.5822 37.1739C59.2551 31.1851 72.1911 34.8254 77.2 37.3941V42.238L81.5556 40.0362V56.3295C73.7156 66.5457 65.803 60.5862 62.8267 56.3295C60.5618 61.966 54.043 62.3477 51.0667 61.8339C43.2267 60.4248 43.1541 52.88 44.0978 49.2837V40.0362Z" fill="#DC2626"/>
<path d="M63.2622 20L39.0889 33.6511L38 34.5318L39.5244 35.1923V44.66C38.3049 45.893 39.4519 46.7884 40.1778 47.082C41.7458 46.7297 41.4119 45.027 41.0489 44.2196V36.073L45.1867 38.495C45.1867 35.5006 53.317 32.9905 57.3822 32.1098H66.5289C68.7938 31.7575 75.8933 34.752 79.16 36.2932V39.3757L87 33.6511L63.2622 20Z" stroke="#DC2626"/>
<path d="M44.0978 40.0362L47.3644 41.5775L47.5822 37.1739C59.2551 31.1851 72.1911 34.8254 77.2 37.3941V42.238L81.5556 40.0362V56.3295C73.7156 66.5457 65.803 60.5862 62.8267 56.3295C60.5618 61.966 54.043 62.3477 51.0667 61.8339C43.2267 60.4248 43.1541 52.88 44.0978 49.2837V40.0362Z" stroke="#DC2626"/>
<path d="M71.881 44C81.1609 44.0001 81.5827 59 71.881 59C62.8121 59 62.6012 43.9999 71.881 44Z" fill="white" stroke="#DC2626"/>
<path d="M52.881 44C62.1609 44.0001 62.5827 59 52.881 59C43.8121 59 43.6012 43.9999 52.881 44Z" fill="white" stroke="#DC2626"/>
<path d="M52.9867 56C58.4422 56 58.2323 47 52.9867 47H51.7277C52.567 50.2211 50.259 50.7105 49 50.5526C49 54.7211 51.6578 55.9211 52.9867 56Z" fill="#DC2626" stroke="#DC2626"/>
<path d="M71.9867 56C77.4422 56 77.2323 47 71.9867 47H70.7277C71.567 50.2211 69.259 50.7105 68 50.5526C68 54.7211 70.6578 55.9211 71.9867 56Z" fill="#DC2626" stroke="#DC2626"/>
<path d="M29.5626 86V72.9091H34.7274C35.716 72.9091 36.5597 73.0859 37.2586 73.4396C37.9617 73.7891 38.4965 74.2855 38.863 74.929C39.2338 75.5682 39.4191 76.3203 39.4191 77.1854C39.4191 78.0547 39.2316 78.8026 38.8566 79.429C38.4816 80.0511 37.9383 80.5284 37.2267 80.8608C36.5193 81.1932 35.6627 81.3594 34.657 81.3594H31.199V79.1349H34.2096C34.738 79.1349 35.1769 79.0625 35.5264 78.9176C35.8758 78.7727 36.1357 78.5554 36.3062 78.2656C36.4809 77.9759 36.5683 77.6158 36.5683 77.1854C36.5683 76.7507 36.4809 76.3842 36.3062 76.0859C36.1357 75.7876 35.8737 75.5618 35.52 75.4084C35.1705 75.2507 34.7295 75.1719 34.1968 75.1719H32.3303V86H29.5626ZM36.6322 80.0426L39.8857 86H36.8303L33.6471 80.0426H36.6322ZM45.6402 86.1918C44.6302 86.1918 43.7609 85.9872 43.0322 85.5781C42.3078 85.1648 41.7496 84.581 41.3575 83.8267C40.9655 83.0682 40.7694 82.1712 40.7694 81.1357C40.7694 80.1257 40.9655 79.2393 41.3575 78.4766C41.7496 77.7138 42.3014 77.1193 43.0131 76.6932C43.729 76.267 44.5684 76.054 45.5315 76.054C46.1792 76.054 46.7822 76.1584 47.3405 76.3672C47.903 76.5717 48.393 76.8807 48.8106 77.294C49.2325 77.7074 49.5606 78.2273 49.795 78.8537C50.0294 79.4759 50.1466 80.2045 50.1466 81.0398V81.7876H41.8561V80.1001H47.5834C47.5834 79.7081 47.4981 79.3608 47.3277 79.0582C47.1572 78.7557 46.9207 78.5192 46.6182 78.3487C46.3199 78.174 45.9726 78.0866 45.5763 78.0866C45.1629 78.0866 44.7964 78.1825 44.4768 78.3743C44.1615 78.5618 43.9143 78.8153 43.7354 79.1349C43.5564 79.4503 43.4648 79.8018 43.4605 80.1896V81.794C43.4605 82.2798 43.55 82.6996 43.729 83.0533C43.9122 83.407 44.17 83.6797 44.5024 83.8714C44.8348 84.0632 45.229 84.1591 45.6849 84.1591C45.9875 84.1591 46.2645 84.1165 46.5159 84.0312C46.7673 83.946 46.9825 83.8182 47.1615 83.6477C47.3405 83.4773 47.4768 83.2685 47.5706 83.0213L50.089 83.1875C49.9612 83.7926 49.6991 84.321 49.3028 84.7727C48.9108 85.2202 48.4037 85.5696 47.7815 85.821C47.1636 86.0682 46.4498 86.1918 45.6402 86.1918ZM55.5415 86.1598C54.7957 86.1598 54.1203 85.968 53.5152 85.5845C52.9143 85.1967 52.4371 84.6278 52.0834 83.8778C51.7339 83.1236 51.5592 82.1989 51.5592 81.1037C51.5592 79.9787 51.7403 79.0433 52.1025 78.2976C52.4648 77.5476 52.9463 76.9872 53.5471 76.6165C54.1523 76.2415 54.8149 76.054 55.5351 76.054C56.0848 76.054 56.5429 76.1477 56.9094 76.3352C57.2801 76.5185 57.5784 76.7486 57.8042 77.0256C58.0344 77.2983 58.2091 77.5668 58.3284 77.831H58.4115V72.9091H61.1281V86H58.4434V84.4276H58.3284C58.2006 84.7003 58.0194 84.9709 57.7851 85.2393C57.555 85.5036 57.2545 85.723 56.8838 85.8977C56.5173 86.0724 56.0699 86.1598 55.5415 86.1598ZM56.4044 83.9929C56.8433 83.9929 57.214 83.8736 57.5166 83.6349C57.8234 83.392 58.0578 83.0533 58.2197 82.6186C58.3859 82.1839 58.469 81.6747 58.469 81.0909C58.469 80.5071 58.3881 80 58.2261 79.5696C58.0642 79.1392 57.8298 78.8068 57.523 78.5724C57.2162 78.3381 56.8433 78.2209 56.4044 78.2209C55.9569 78.2209 55.5798 78.3423 55.273 78.5852C54.9662 78.8281 54.7339 79.1648 54.5763 79.5952C54.4186 80.0256 54.3398 80.5241 54.3398 81.0909C54.3398 81.6619 54.4186 82.1669 54.5763 82.6058C54.7382 83.0405 54.9704 83.3814 55.273 83.6286C55.5798 83.8714 55.9569 83.9929 56.4044 83.9929Z" fill="black"/>
<path d="M75.4479 79.4545C75.4479 80.8821 75.1773 82.0966 74.6361 83.098C74.0992 84.0994 73.3662 84.8643 72.4372 85.3928C71.5125 85.9169 70.4727 86.179 69.3179 86.179C68.1546 86.179 67.1105 85.9148 66.1858 85.3864C65.2611 84.858 64.5303 84.093 63.9933 83.0916C63.4564 82.0902 63.1879 80.8778 63.1879 79.4545C63.1879 78.027 63.4564 76.8125 63.9933 75.8111C64.5303 74.8097 65.2611 74.0469 66.1858 73.5227C67.1105 72.9943 68.1546 72.7301 69.3179 72.7301C70.4727 72.7301 71.5125 72.9943 72.4372 73.5227C73.3662 74.0469 74.0992 74.8097 74.6361 75.8111C75.1773 76.8125 75.4479 78.027 75.4479 79.4545ZM72.6418 79.4545C72.6418 78.5298 72.5033 77.75 72.2263 77.1151C71.9536 76.4801 71.5679 75.9986 71.0693 75.6705C70.5708 75.3423 69.9869 75.1783 69.3179 75.1783C68.6489 75.1783 68.0651 75.3423 67.5665 75.6705C67.0679 75.9986 66.6801 76.4801 66.4031 77.1151C66.1304 77.75 65.9941 78.5298 65.9941 79.4545C65.9941 80.3793 66.1304 81.1591 66.4031 81.794C66.6801 82.429 67.0679 82.9105 67.5665 83.2386C68.0651 83.5668 68.6489 83.7308 69.3179 83.7308C69.9869 83.7308 70.5708 83.5668 71.0693 83.2386C71.5679 82.9105 71.9536 82.429 72.2263 81.794C72.5033 81.1591 72.6418 80.3793 72.6418 79.4545ZM79.3838 86L76.7119 76.1818H79.4669L80.9882 82.7784H81.0777L82.6629 76.1818H85.3667L86.9775 82.7401H87.0606L88.5564 76.1818H91.305L88.6395 86H85.7567L84.0692 79.8253H83.9477L82.2602 86H79.3838ZM95.4806 72.9091V86H92.7575V72.9091H95.4806Z" fill="#DC2626"/>
</g>
<defs>
<filter id="filter0_d_109_1602" x="0" y="0" width="123" height="123" filterUnits="userSpaceOnUse" color-interpolation-filters="sRGB">
<feFlood flood-opacity="0" result="BackgroundImageFix"/>
<feColorMatrix in="SourceAlpha" type="matrix" values="0 0 0 0 0 0 0 0 0 0 0 0 0 0 0 0 0 0 127 0" result="hardAlpha"/>
<feOffset dy="4"/>
<feGaussianBlur stdDeviation="2"/>
<feComposite in2="hardAlpha" operator="out"/>
<feColorMatrix type="matrix" values="0 0 0 0 0 0 0 0 0 0 0 0 0 0 0 0 0 0 0.25 0"/>
<feBlend mode="normal" in2="BackgroundImageFix" result="effect1_dropShadow_109_1602"/>
<feBlend mode="normal" in="SourceGraphic" in2="effect1_dropShadow_109_1602" result="shape"/>
</filter>
</defs>
</svg>
