<svg width="325" height="109" viewBox="0 0 325 109" fill="none" xmlns="http://www.w3.org/2000/svg">
<g filter="url(#filter0_d_277_717)">
<rect x="5.99951" y="0.879883" width="313.554" height="108" rx="12" fill="#DC2626"/>
<g clip-path="url(#clip0_277_717)">
<path d="M68.569 53.8005L76.9121 45.4831L49.9643 30.3842C48.1783 29.4222 46.5051 29.2872 45.038 30.3392L68.569 53.8005ZM78.3341 63.5382L87.0073 58.675C88.7002 57.7299 89.6285 56.391 89.6285 54.9059C89.6285 53.4235 88.7002 52.0819 87.0102 51.1368L79.158 46.7404L70.3184 55.55L78.3341 63.5382ZM43.5877 32.3841C43.4072 32.9382 43.3056 33.557 43.3056 34.2349V75.5965C43.3056 76.6682 43.5426 77.5908 43.9715 78.3249L66.8169 55.5472L43.5877 32.3841ZM68.569 57.2911L45.8506 79.9423C46.2851 80.1082 46.7534 80.1954 47.2472 80.1954C48.1275 80.1954 49.0445 79.9366 49.9784 79.4191L76.0911 64.8012L68.569 57.2911Z" fill="white"/>
</g>
<path d="M124.795 45.3799V32.3227H130.727C132.145 32.3227 133.395 32.5963 134.476 33.1435C135.558 33.6782 136.404 34.4305 137.013 35.4005C137.623 36.3705 137.927 37.5207 137.927 38.8513C137.927 40.1695 137.623 41.3197 137.013 42.3021C136.404 43.2721 135.558 44.0306 134.476 44.5778C133.395 45.1125 132.145 45.3799 130.727 45.3799H124.795ZM127.817 42.899H130.578C131.448 42.899 132.201 42.7374 132.835 42.414C133.482 42.0783 133.979 41.6057 134.327 40.9964C134.688 40.3871 134.868 39.672 134.868 38.8513C134.868 38.0181 134.688 37.3031 134.327 36.7062C133.979 36.0969 133.482 35.6306 132.835 35.3072C132.201 34.9715 131.448 34.8036 130.578 34.8036H127.817V42.899ZM145.043 45.5291C143.973 45.5291 143.022 45.3053 142.189 44.8576C141.368 44.4099 140.715 43.8006 140.23 43.0296C139.758 42.2462 139.521 41.357 139.521 40.3622C139.521 39.3549 139.758 38.4658 140.23 37.6948C140.715 36.9114 141.368 36.3021 142.189 35.8668C143.022 35.4192 143.973 35.1953 145.043 35.1953C146.1 35.1953 147.045 35.4192 147.878 35.8668C148.711 36.3021 149.364 36.9052 149.836 37.6762C150.309 38.4472 150.545 39.3425 150.545 40.3622C150.545 41.357 150.309 42.2462 149.836 43.0296C149.364 43.8006 148.711 44.4099 147.878 44.8576C147.045 45.3053 146.1 45.5291 145.043 45.5291ZM145.043 43.1415C145.528 43.1415 145.963 43.0296 146.348 42.8058C146.734 42.5819 147.038 42.2648 147.262 41.8545C147.486 41.4317 147.598 40.9342 147.598 40.3622C147.598 39.7777 147.486 39.2803 147.262 38.87C147.038 38.4596 146.734 38.1425 146.348 37.9187C145.963 37.6948 145.528 37.5829 145.043 37.5829C144.558 37.5829 144.122 37.6948 143.737 37.9187C143.351 38.1425 143.04 38.4596 142.804 38.87C142.58 39.2803 142.468 39.7777 142.468 40.3622C142.468 40.9342 142.58 41.4317 142.804 41.8545C143.04 42.2648 143.351 42.5819 143.737 42.8058C144.122 43.0296 144.558 43.1415 145.043 43.1415ZM154.778 45.3799L151.159 35.3445H153.901L156.904 43.9809H155.599L158.732 35.3445H161.194L164.235 43.9809H162.929L166.026 35.3445H168.6L164.962 45.3799H162.146L159.478 37.9746H160.336L157.576 45.3799H154.778ZM176.318 35.1953C177.114 35.1953 177.823 35.357 178.445 35.6803C179.079 35.9912 179.577 36.4762 179.937 37.1352C180.298 37.7819 180.478 38.615 180.478 39.6347V45.3799H177.568V40.0824C177.568 39.2741 177.388 38.6772 177.027 38.2917C176.679 37.9062 176.182 37.7135 175.535 37.7135C175.075 37.7135 174.658 37.813 174.285 38.0119C173.925 38.1985 173.639 38.4907 173.427 38.8886C173.228 39.2866 173.129 39.7964 173.129 40.4182V45.3799H170.219V35.3445H172.998V38.1238L172.476 37.2845C172.837 36.6129 173.353 36.0969 174.024 35.7363C174.696 35.3756 175.46 35.1953 176.318 35.1953ZM183.382 45.3799V31.5393H186.292V45.3799H183.382ZM194.034 45.5291C192.965 45.5291 192.014 45.3053 191.18 44.8576C190.36 44.4099 189.707 43.8006 189.222 43.0296C188.749 42.2462 188.513 41.357 188.513 40.3622C188.513 39.3549 188.749 38.4658 189.222 37.6948C189.707 36.9114 190.36 36.3021 191.18 35.8668C192.014 35.4192 192.965 35.1953 194.034 35.1953C195.091 35.1953 196.036 35.4192 196.87 35.8668C197.703 36.3021 198.356 36.9052 198.828 37.6762C199.301 38.4472 199.537 39.3425 199.537 40.3622C199.537 41.357 199.301 42.2462 198.828 43.0296C198.356 43.8006 197.703 44.4099 196.87 44.8576C196.036 45.3053 195.091 45.5291 194.034 45.5291ZM194.034 43.1415C194.519 43.1415 194.955 43.0296 195.34 42.8058C195.726 42.5819 196.03 42.2648 196.254 41.8545C196.478 41.4317 196.59 40.9342 196.59 40.3622C196.59 39.7777 196.478 39.2803 196.254 38.87C196.03 38.4596 195.726 38.1425 195.34 37.9187C194.955 37.6948 194.519 37.5829 194.034 37.5829C193.549 37.5829 193.114 37.6948 192.729 37.9187C192.343 38.1425 192.032 38.4596 191.796 38.87C191.572 39.2803 191.46 39.7777 191.46 40.3622C191.46 40.9342 191.572 41.4317 191.796 41.8545C192.032 42.2648 192.343 42.5819 192.729 42.8058C193.114 43.0296 193.549 43.1415 194.034 43.1415ZM207.74 45.3799V43.4213L207.554 42.9923V39.4855C207.554 38.8638 207.361 38.3788 206.975 38.0306C206.602 37.6824 206.024 37.5083 205.241 37.5083C204.706 37.5083 204.177 37.5953 203.655 37.7694C203.145 37.9311 202.71 38.1549 202.349 38.4409L201.305 36.4078C201.852 36.0223 202.511 35.7238 203.282 35.5124C204.053 35.301 204.836 35.1953 205.632 35.1953C207.162 35.1953 208.349 35.5559 209.195 36.2772C210.041 36.9984 210.463 38.1238 210.463 39.6534V45.3799H207.74ZM204.681 45.5291C203.898 45.5291 203.226 45.3985 202.666 45.1374C202.107 44.8638 201.678 44.497 201.379 44.0369C201.081 43.5768 200.932 43.0607 200.932 42.4887C200.932 41.8918 201.075 41.3695 201.361 40.9218C201.659 40.4741 202.126 40.1259 202.76 39.8772C203.394 39.6161 204.221 39.4855 205.241 39.4855H207.908V41.1829H205.558C204.874 41.1829 204.401 41.2949 204.14 41.5187C203.891 41.7425 203.767 42.0223 203.767 42.3581C203.767 42.7311 203.91 43.0296 204.196 43.2534C204.494 43.4648 204.899 43.5705 205.408 43.5705C205.893 43.5705 206.329 43.4586 206.714 43.2348C207.1 42.9985 207.379 42.6565 207.554 42.2089L208.001 43.5519C207.79 44.1985 207.404 44.6897 206.845 45.0255C206.285 45.3612 205.564 45.5291 204.681 45.5291ZM217.745 45.5291C216.8 45.5291 215.948 45.3177 215.19 44.8949C214.431 44.4597 213.828 43.8566 213.38 43.0856C212.945 42.3146 212.728 41.4068 212.728 40.3622C212.728 39.3052 212.945 38.3912 213.38 37.6202C213.828 36.8492 214.431 36.2523 215.19 35.8295C215.948 35.4067 216.8 35.1953 217.745 35.1953C218.591 35.1953 219.331 35.3818 219.965 35.7549C220.599 36.128 221.09 36.6938 221.439 37.4523C221.787 38.2109 221.961 39.1809 221.961 40.3622C221.961 41.5311 221.793 42.5011 221.457 43.2721C221.121 44.0306 220.636 44.5965 220.002 44.9695C219.38 45.3426 218.628 45.5291 217.745 45.5291ZM218.249 43.1415C218.721 43.1415 219.15 43.0296 219.536 42.8058C219.921 42.5819 220.226 42.2648 220.45 41.8545C220.686 41.4317 220.804 40.9342 220.804 40.3622C220.804 39.7777 220.686 39.2803 220.45 38.87C220.226 38.4596 219.921 38.1425 219.536 37.9187C219.15 37.6948 218.721 37.5829 218.249 37.5829C217.764 37.5829 217.329 37.6948 216.943 37.9187C216.558 38.1425 216.247 38.4596 216.01 38.87C215.787 39.2803 215.675 39.7777 215.675 40.3622C215.675 40.9342 215.787 41.4317 216.01 41.8545C216.247 42.2648 216.558 42.5819 216.943 42.8058C217.329 43.0296 217.764 43.1415 218.249 43.1415ZM220.879 45.3799V43.328L220.935 40.3436L220.748 37.3777V31.5393H223.658V45.3799H220.879ZM236.942 45.5291C235.873 45.5291 234.921 45.3053 234.088 44.8576C233.267 44.4099 232.615 43.8006 232.13 43.0296C231.657 42.2462 231.421 41.357 231.421 40.3622C231.421 39.3549 231.657 38.4658 232.13 37.6948C232.615 36.9114 233.267 36.3021 234.088 35.8668C234.921 35.4192 235.873 35.1953 236.942 35.1953C237.999 35.1953 238.944 35.4192 239.777 35.8668C240.611 36.3021 241.263 36.9052 241.736 37.6762C242.209 38.4472 242.445 39.3425 242.445 40.3622C242.445 41.357 242.209 42.2462 241.736 43.0296C241.263 43.8006 240.611 44.4099 239.777 44.8576C238.944 45.3053 237.999 45.5291 236.942 45.5291ZM236.942 43.1415C237.427 43.1415 237.862 43.0296 238.248 42.8058C238.633 42.5819 238.938 42.2648 239.162 41.8545C239.386 41.4317 239.498 40.9342 239.498 40.3622C239.498 39.7777 239.386 39.2803 239.162 38.87C238.938 38.4596 238.633 38.1425 238.248 37.9187C237.862 37.6948 237.427 37.5829 236.942 37.5829C236.457 37.5829 236.022 37.6948 235.636 37.9187C235.251 38.1425 234.94 38.4596 234.704 38.87C234.48 39.2803 234.368 39.7777 234.368 40.3622C234.368 40.9342 234.48 41.4317 234.704 41.8545C234.94 42.2648 235.251 42.5819 235.636 42.8058C236.022 43.0296 236.457 43.1415 236.942 43.1415ZM250.756 35.1953C251.552 35.1953 252.26 35.357 252.882 35.6803C253.516 35.9912 254.014 36.4762 254.375 37.1352C254.735 37.7819 254.915 38.615 254.915 39.6347V45.3799H252.006V40.0824C252.006 39.2741 251.825 38.6772 251.465 38.2917C251.116 37.9062 250.619 37.7135 249.972 37.7135C249.512 37.7135 249.096 37.813 248.723 38.0119C248.362 38.1985 248.076 38.4907 247.865 38.8886C247.666 39.2866 247.566 39.7964 247.566 40.4182V45.3799H244.656V35.3445H247.436V38.1238L246.913 37.2845C247.274 36.6129 247.79 36.0969 248.461 35.7363C249.133 35.3756 249.898 35.1953 250.756 35.1953Z" fill="white"/>
<path d="M132.222 77.6357C131.042 77.6357 129.955 77.4509 128.96 77.0814C127.98 76.6977 127.12 76.1577 126.381 75.4613C125.656 74.7649 125.088 73.9477 124.676 73.0097C124.278 72.0718 124.079 71.0414 124.079 69.9187C124.079 68.7959 124.278 67.7656 124.676 66.8276C125.088 65.8896 125.663 65.0724 126.402 64.376C127.141 63.6797 128.008 63.1467 129.003 62.7772C129.998 62.3935 131.092 62.2016 132.286 62.2016C133.608 62.2016 134.794 62.4219 135.846 62.8625C136.912 63.303 137.807 63.9426 138.532 64.7811L136.315 66.8276C135.775 66.2591 135.185 65.8399 134.546 65.5698C133.906 65.2856 133.21 65.1435 132.457 65.1435C131.732 65.1435 131.071 65.2572 130.474 65.4846C129.877 65.712 129.358 66.0388 128.918 66.4652C128.491 66.8915 128.157 67.3961 127.916 67.9787C127.688 68.5614 127.575 69.2081 127.575 69.9187C127.575 70.615 127.688 71.2546 127.916 71.8373C128.157 72.4199 128.491 72.9316 128.918 73.3721C129.358 73.7985 129.87 74.1254 130.453 74.3528C131.05 74.5801 131.703 74.6938 132.414 74.6938C133.096 74.6938 133.757 74.5873 134.396 74.3741C135.05 74.1467 135.683 73.7701 136.294 73.2442L138.255 75.7384C137.445 76.3495 136.5 76.8185 135.42 77.1454C134.354 77.4723 133.288 77.6357 132.222 77.6357ZM135.1 75.2907V69.6842H138.255V75.7384L135.1 75.2907ZM146.819 77.5504C145.597 77.5504 144.51 77.2946 143.557 76.783C142.619 76.2714 141.873 75.575 141.319 74.6938C140.779 73.7985 140.509 72.7823 140.509 71.6454C140.509 70.4942 140.779 69.4781 141.319 68.597C141.873 67.7016 142.619 67.0052 143.557 66.5078C144.51 65.9962 145.597 65.7404 146.819 65.7404C148.027 65.7404 149.107 65.9962 150.059 66.5078C151.012 67.0052 151.758 67.6945 152.298 68.5756C152.838 69.4568 153.108 70.48 153.108 71.6454C153.108 72.7823 152.838 73.7985 152.298 74.6938C151.758 75.575 151.012 76.2714 150.059 76.783C149.107 77.2946 148.027 77.5504 146.819 77.5504ZM146.819 74.8218C147.373 74.8218 147.871 74.6938 148.311 74.438C148.752 74.1822 149.1 73.8198 149.356 73.3508C149.612 72.8676 149.74 72.2991 149.74 71.6454C149.74 70.9774 149.612 70.409 149.356 69.94C149.1 69.471 148.752 69.1086 148.311 68.8528C147.871 68.597 147.373 68.4691 146.819 68.4691C146.265 68.4691 145.767 68.597 145.327 68.8528C144.886 69.1086 144.531 69.471 144.261 69.94C144.005 70.409 143.877 70.9774 143.877 71.6454C143.877 72.2991 144.005 72.8676 144.261 73.3508C144.531 73.8198 144.886 74.1822 145.327 74.438C145.767 74.6938 146.265 74.8218 146.819 74.8218ZM160.921 77.5504C159.699 77.5504 158.612 77.2946 157.66 76.783C156.722 76.2714 155.976 75.575 155.421 74.6938C154.881 73.7985 154.611 72.7823 154.611 71.6454C154.611 70.4942 154.881 69.4781 155.421 68.597C155.976 67.7016 156.722 67.0052 157.66 66.5078C158.612 65.9962 159.699 65.7404 160.921 65.7404C162.129 65.7404 163.209 65.9962 164.162 66.5078C165.114 67.0052 165.86 67.6945 166.4 68.5756C166.94 69.4568 167.21 70.48 167.21 71.6454C167.21 72.7823 166.94 73.7985 166.4 74.6938C165.86 75.575 165.114 76.2714 164.162 76.783C163.209 77.2946 162.129 77.5504 160.921 77.5504ZM160.921 74.8218C161.476 74.8218 161.973 74.6938 162.413 74.438C162.854 74.1822 163.202 73.8198 163.458 73.3508C163.714 72.8676 163.842 72.2991 163.842 71.6454C163.842 70.9774 163.714 70.409 163.458 69.94C163.202 69.471 162.854 69.1086 162.413 68.8528C161.973 68.597 161.476 68.4691 160.921 68.4691C160.367 68.4691 159.87 68.597 159.429 68.8528C158.988 69.1086 158.633 69.471 158.363 69.94C158.107 70.409 157.979 70.9774 157.979 71.6454C157.979 72.2991 158.107 72.8676 158.363 73.3508C158.633 73.8198 158.988 74.1822 159.429 74.438C159.87 74.6938 160.367 74.8218 160.921 74.8218ZM174.96 81.6861C173.879 81.6861 172.835 81.5511 171.826 81.281C170.831 81.0252 170 80.6344 169.332 80.1086L170.653 77.721C171.137 78.1189 171.748 78.4316 172.487 78.6589C173.24 78.9006 173.979 79.0214 174.704 79.0214C175.883 79.0214 176.736 78.7584 177.262 78.2326C177.802 77.7068 178.072 76.9251 178.072 75.8876V74.1609L178.285 71.283L178.242 68.3838V65.9109H181.397V75.4613C181.397 77.5931 180.843 79.1635 179.735 80.1725C178.626 81.1816 177.034 81.6861 174.96 81.6861ZM174.448 76.8256C173.382 76.8256 172.416 76.5982 171.549 76.1435C170.696 75.6745 170.007 75.0278 169.481 74.2035C168.969 73.365 168.713 72.3915 168.713 71.283C168.713 70.1603 168.969 69.1868 169.481 68.3625C170.007 67.524 170.696 66.8773 171.549 66.4225C172.416 65.9678 173.382 65.7404 174.448 65.7404C175.414 65.7404 176.267 65.9393 177.006 66.3373C177.745 66.721 178.321 67.325 178.733 68.1493C179.145 68.9594 179.351 70.0039 179.351 71.283C179.351 72.5479 179.145 73.5924 178.733 74.4167C178.321 75.2268 177.745 75.8308 177.006 76.2287C176.267 76.6267 175.414 76.8256 174.448 76.8256ZM175.109 74.0969C175.691 74.0969 176.21 73.9833 176.665 73.7559C177.12 73.5143 177.475 73.1803 177.731 72.7539C177.987 72.3276 178.115 71.8373 178.115 71.283C178.115 70.7145 177.987 70.2242 177.731 69.8121C177.475 69.3857 177.12 69.0588 176.665 68.8315C176.21 68.5899 175.691 68.4691 175.109 68.4691C174.526 68.4691 174.007 68.5899 173.553 68.8315C173.098 69.0588 172.735 69.3857 172.465 69.8121C172.21 70.2242 172.082 70.7145 172.082 71.283C172.082 71.8373 172.21 72.3276 172.465 72.7539C172.735 73.1803 173.098 73.5143 173.553 73.7559C174.007 73.9833 174.526 74.0969 175.109 74.0969ZM184.626 77.3799V61.5621H187.952V77.3799H184.626ZM196.863 77.5504C195.556 77.5504 194.404 77.2946 193.41 76.783C192.429 76.2714 191.669 75.575 191.129 74.6938C190.588 73.7985 190.318 72.7823 190.318 71.6454C190.318 70.4942 190.581 69.4781 191.107 68.597C191.647 67.7016 192.379 67.0052 193.303 66.5078C194.227 65.9962 195.271 65.7404 196.437 65.7404C197.559 65.7404 198.568 65.982 199.464 66.4652C200.373 66.9342 201.091 67.6163 201.617 68.5117C202.143 69.3928 202.406 70.4516 202.406 71.688C202.406 71.8159 202.399 71.9652 202.384 72.1357C202.37 72.292 202.356 72.4413 202.342 72.5834H193.026V70.6435H200.594L199.315 71.219C199.315 70.6221 199.194 70.1034 198.952 69.6628C198.711 69.2223 198.377 68.8812 197.95 68.6396C197.524 68.3838 197.026 68.2559 196.458 68.2559C195.89 68.2559 195.385 68.3838 194.944 68.6396C194.518 68.8812 194.184 69.2294 193.942 69.6842C193.701 70.1247 193.58 70.6506 193.58 71.2617V71.7733C193.58 72.3986 193.715 72.9529 193.985 73.4361C194.269 73.9051 194.66 74.2675 195.158 74.5233C195.669 74.7649 196.266 74.8857 196.948 74.8857C197.559 74.8857 198.092 74.7933 198.547 74.6086C199.016 74.4238 199.442 74.1467 199.826 73.7772L201.596 75.6958C201.07 76.2927 200.409 76.7546 199.613 77.0814C198.817 77.3941 197.9 77.5504 196.863 77.5504ZM211.158 77.3799V62.4574H217.617C218.953 62.4574 220.104 62.6777 221.071 63.1183C222.037 63.5446 222.783 64.1629 223.309 64.9729C223.835 65.783 224.098 66.7494 224.098 67.8722C224.098 68.9807 223.835 69.94 223.309 70.7501C222.783 71.5601 222.037 72.1855 221.071 72.626C220.104 73.0524 218.953 73.2656 217.617 73.2656H213.077L214.611 71.7094V77.3799H211.158ZM214.611 72.0931L213.077 70.4516H217.425C218.491 70.4516 219.287 70.2242 219.813 69.7694C220.339 69.3147 220.602 68.6822 220.602 67.8722C220.602 67.0479 220.339 66.4083 219.813 65.9536C219.287 65.4988 218.491 65.2714 217.425 65.2714H213.077L214.611 63.6299V72.0931ZM226.67 77.3799V61.5621H229.996V77.3799H226.67ZM240.25 77.3799V75.1415L240.037 74.6512V70.6435C240.037 69.9329 239.817 69.3786 239.376 68.9807C238.95 68.5827 238.289 68.3838 237.394 68.3838C236.783 68.3838 236.179 68.4833 235.582 68.6822C234.999 68.867 234.502 69.1228 234.09 69.4497L232.896 67.126C233.521 66.6855 234.274 66.3444 235.155 66.1028C236.037 65.8612 236.932 65.7404 237.841 65.7404C239.589 65.7404 240.947 66.1525 241.913 66.9768C242.88 67.8011 243.363 69.0873 243.363 70.8353V77.3799H240.25ZM236.754 77.5504C235.859 77.5504 235.091 77.4012 234.452 77.1028C233.812 76.7901 233.322 76.3708 232.981 75.845C232.64 75.3192 232.469 74.7294 232.469 74.0756C232.469 73.3935 232.633 72.7966 232.96 72.2849C233.301 71.7733 233.834 71.3754 234.558 71.0911C235.283 70.7927 236.228 70.6435 237.394 70.6435H240.442V72.5834H237.756C236.975 72.5834 236.434 72.7113 236.136 72.9671C235.852 73.2229 235.71 73.5427 235.71 73.9264C235.71 74.3528 235.873 74.6938 236.2 74.9497C236.541 75.1913 237.003 75.3121 237.586 75.3121C238.14 75.3121 238.637 75.1842 239.078 74.9283C239.518 74.6583 239.838 74.2675 240.037 73.7559L240.549 75.2907C240.307 76.0298 239.867 76.5911 239.227 76.9748C238.588 77.3586 237.763 77.5504 236.754 77.5504ZM247.747 81.6861C247.15 81.6861 246.561 81.5937 245.978 81.4089C245.395 81.2242 244.919 80.9684 244.55 80.6415L245.765 78.2752C246.02 78.5026 246.312 78.6803 246.639 78.8082C246.98 78.9361 247.314 79 247.641 79C248.11 79 248.479 78.8863 248.749 78.6589C249.033 78.4458 249.289 78.0834 249.517 77.5717L250.113 76.1648L250.369 75.8024L254.484 65.9109H257.681L252.501 78.0834C252.132 79.0071 251.705 79.7319 251.222 80.2578C250.753 80.7836 250.227 81.1531 249.644 81.3663C249.076 81.5795 248.444 81.6861 247.747 81.6861ZM249.708 77.8276L244.592 65.9109H248.024L251.989 75.5039L249.708 77.8276Z" fill="white"/>
</g>
<defs>
<filter id="filter0_d_277_717" x="0.670069" y="-1.78484" width="324.213" height="118.659" filterUnits="userSpaceOnUse" color-interpolation-filters="sRGB">
<feFlood flood-opacity="0" result="BackgroundImageFix"/>
<feColorMatrix in="SourceAlpha" type="matrix" values="0 0 0 0 0 0 0 0 0 0 0 0 0 0 0 0 0 0 127 0" result="hardAlpha"/>
<feOffset dy="2.66472"/>
<feGaussianBlur stdDeviation="2.66472"/>
<feColorMatrix type="matrix" values="0 0 0 0 0 0 0 0 0 0 0 0 0 0 0 0 0 0 0.1 0"/>
<feBlend mode="normal" in2="BackgroundImageFix" result="effect1_dropShadow_277_717"/>
<feBlend mode="normal" in="SourceGraphic" in2="effect1_dropShadow_277_717" result="shape"/>
</filter>
<clipPath id="clip0_277_717">
<rect width="46.6326" height="50.6298" fill="white" transform="translate(43.3056 29.5649)"/>
</clipPath>
</defs>
</svg>
