<svg width="60" height="85" viewBox="0 0 60 85" fill="none" xmlns="http://www.w3.org/2000/svg">
<path d="M30.1032 2.81982L31.4225 1.44143L30.1032 0.17853L28.7838 1.44143L30.1032 2.81982ZM47.6257 19.5921H49.5337V18.7772L48.945 18.2137L47.6257 19.5921ZM12.5807 19.5921L11.2613 18.2137L10.6726 18.7772V19.5921H12.5807ZM12.5807 42.8609L13.7971 44.3309L14.4887 43.7586V42.8609H12.5807ZM2.41595 51.2726L1.19947 49.8026L0.507878 50.3749V51.2726H2.41595ZM2.41595 80.0251H0.507878V84.0808L3.63244 81.4951L2.41595 80.0251ZM22.9334 63.0462L24.2528 61.6678L23.0256 60.4932L21.7169 61.5762L22.9334 63.0462ZM30.1032 69.909L28.7838 71.2874L30.1032 72.5503L31.4225 71.2874L30.1032 69.909ZM37.2543 63.064L38.4708 61.594L37.1621 60.511L35.9349 61.6856L37.2543 63.064ZM57.7502 80.0251L56.5337 81.4951L59.6583 84.0808V80.0251H57.7502ZM57.7502 51.2726H59.6583V50.3749L58.9667 49.8026L57.7502 51.2726ZM47.6257 42.8942H45.7176V43.7919L46.4092 44.3642L47.6257 42.8942ZM28.7838 4.19822L46.3063 20.9705L48.945 18.2137L31.4225 1.44143L28.7838 4.19822ZM13.9 20.9705L31.4225 4.19822L28.7838 1.44143L11.2613 18.2137L13.9 20.9705ZM14.4887 42.8609V19.5921H10.6726V42.8609H14.4887ZM11.3642 41.3909L1.19947 49.8026L3.63244 52.7426L13.7971 44.3309L11.3642 41.3909ZM0.507878 51.2726V80.0251H4.32403V51.2726H0.507878ZM3.63244 81.4951L24.1499 64.5162L21.7169 61.5762L1.19947 78.5551L3.63244 81.4951ZM31.4225 68.5306L24.2528 61.6678L21.614 64.4246L28.7838 71.2874L31.4225 68.5306ZM35.9349 61.6856L28.7838 68.5306L31.4225 71.2874L38.5737 64.4424L35.9349 61.6856ZM36.0378 64.534L56.5337 81.4951L58.9667 78.5551L38.4708 61.594L36.0378 64.534ZM59.6583 80.0251V51.2726H55.8421V80.0251H59.6583ZM58.9667 49.8026L48.8421 41.4242L46.4092 44.3642L56.5337 52.7426L58.9667 49.8026ZM45.7176 19.5921V42.8942H49.5337V19.5921H45.7176Z" fill="#DC2626"/>
</svg>
