<svg xmlns="http://www.w3.org/2000/svg" xmlns:xlink="http://www.w3.org/1999/xlink" viewBox="0 0 448 450"><defs><style>.cls-1{fill:none;}.cls-2{isolation:isolate;}.cls-3{fill:#757f80;}.cls-4{fill:#ceccca;}.cls-4,.cls-55,.cls-57{opacity:0.4;}.cls-5{fill:url(#linear-gradient);}.cls-6{fill:url(#linear-gradient-2);}.cls-7{fill:url(#linear-gradient-3);}.cls-8{fill:#b1bfbf;}.cls-9{fill:url(#linear-gradient-4);}.cls-10{opacity:0.1;fill:url(#linear-gradient-5);}.cls-11,.cls-13,.cls-14,.cls-26,.cls-66{opacity:0.5;}.cls-11,.cls-13,.cls-14,.cls-50,.cls-66{mix-blend-mode:multiply;}.cls-11{fill:url(#linear-gradient-6);}.cls-12{fill:#63e572;}.cls-13{fill:url(#linear-gradient-7);}.cls-14{fill:url(#linear-gradient-8);}.cls-15{fill:#f1caac;}.cls-16{fill:#212121;}.cls-17{fill:#282525;}.cls-18{fill:#b23b3b;}.cls-19{fill:#302929;}.cls-20{fill:#eded4a;}.cls-21{fill:#d9da3e;}.cls-22{fill:#281504;}.cls-23{fill:url(#linear-gradient-9);}.cls-24{fill:url(#linear-gradient-10);}.cls-25{mix-blend-mode:screen;}.cls-26,.cls-27{fill:#bec6c6;}.cls-28{fill:url(#linear-gradient-11);}.cls-29{fill:url(#linear-gradient-12);}.cls-30{fill:#5b5554;}.cls-31{fill:url(#linear-gradient-13);}.cls-32{fill:url(#linear-gradient-14);}.cls-33{fill:url(#linear-gradient-15);}.cls-34{fill:url(#linear-gradient-16);}.cls-35{fill:url(#linear-gradient-17);}.cls-36{fill:url(#linear-gradient-18);}.cls-37{fill:url(#linear-gradient-19);}.cls-38{fill:url(#linear-gradient-20);}.cls-39{fill:url(#linear-gradient-21);}.cls-40{fill:url(#linear-gradient-22);}.cls-41{fill:url(#linear-gradient-23);}.cls-42{fill:url(#linear-gradient-24);}.cls-43{fill:url(#linear-gradient-25);}.cls-44{fill:url(#linear-gradient-26);}.cls-45{fill:url(#linear-gradient-27);}.cls-46{fill:url(#linear-gradient-28);}.cls-47,.cls-66{fill:#96a0a1;}.cls-48{fill:url(#linear-gradient-29);}.cls-49{fill:url(#linear-gradient-30);}.cls-50{fill:#bbc5c6;}.cls-50,.cls-52{opacity:0.6;}.cls-51{fill:#0d0d0d;}.cls-52{fill:#184c4b;}.cls-53{fill:#57dd90;}.cls-54{fill:url(#linear-gradient-31);}.cls-55{fill:#84afae;}.cls-56{fill:#5f6666;}.cls-58{clip-path:url(#clip-path);}.cls-59{fill:#c5f6ff;}.cls-60{fill:#b5e3eb;}.cls-61{fill:#baeaf3;}.cls-62{fill:url(#linear-gradient-32);}.cls-63{fill:url(#linear-gradient-33);}.cls-64{fill:url(#linear-gradient-34);}.cls-65{fill:url(#linear-gradient-35);}.cls-67{fill:url(#linear-gradient-36);}.cls-68{fill:url(#linear-gradient-37);}.cls-69{fill:url(#linear-gradient-38);}</style><linearGradient id="linear-gradient" x1="227.19" y1="22.95" x2="307.65" y2="22.95" gradientUnits="userSpaceOnUse"><stop offset="0" stop-color="#eaf6f7"/><stop offset="1" stop-color="#f8ffff"/></linearGradient><linearGradient id="linear-gradient-2" x1="143.03" y1="55.69" x2="410.68" y2="68.07" gradientUnits="userSpaceOnUse"><stop offset="0" stop-color="#d7e4e6"/><stop offset="1" stop-color="#ebf2f2"/></linearGradient><linearGradient id="linear-gradient-3" x1="115.19" y1="86.47" x2="195.63" y2="86.47" xlink:href="#linear-gradient"/><linearGradient id="linear-gradient-4" x1="231.93" y1="71.75" x2="342.11" y2="229.21" gradientUnits="userSpaceOnUse"><stop offset="0" stop-color="#322e2d"/><stop offset="0.52" stop-color="#373332"/><stop offset="1" stop-color="#423d3d"/></linearGradient><linearGradient id="linear-gradient-5" x1="281.1" y1="59.32" x2="200.43" y2="140.56" gradientUnits="userSpaceOnUse"><stop offset="0" stop-color="#84afae"/><stop offset="0.18" stop-color="#7a9d9c"/><stop offset="0.73" stop-color="#5c6a6a"/><stop offset="1" stop-color="#515656"/></linearGradient><linearGradient id="linear-gradient-6" x1="229.33" y1="41.02" x2="222.91" y2="47.47" gradientTransform="matrix(1, -0.58, 0, 1, 0, 192.51)" xlink:href="#linear-gradient-4"/><linearGradient id="linear-gradient-7" x1="249.41" y1="41.22" x2="243" y2="47.68" gradientTransform="matrix(1, -0.58, 0, 1, 0, 192.51)" xlink:href="#linear-gradient-4"/><linearGradient id="linear-gradient-8" x1="269.5" y1="41.43" x2="263.09" y2="47.89" gradientTransform="matrix(1, -0.58, 0, 1, 0, 192.51)" xlink:href="#linear-gradient-4"/><linearGradient id="linear-gradient-9" x1="513.49" y1="179.82" x2="543.85" y2="179.82" gradientTransform="translate(-95.85)" gradientUnits="userSpaceOnUse"><stop offset="0" stop-color="#a9b7b8"/><stop offset="0.6" stop-color="#b7c1c2"/><stop offset="1" stop-color="#c4caca"/></linearGradient><linearGradient id="linear-gradient-10" x1="521.73" y1="184.39" x2="543.67" y2="184.39" gradientTransform="translate(-95.85)" gradientUnits="userSpaceOnUse"><stop offset="0" stop-color="#899294"/><stop offset="1" stop-color="#bac3c4"/></linearGradient><linearGradient id="linear-gradient-11" x1="526.69" y1="140.93" x2="531.06" y2="140.93" gradientTransform="translate(-95.85)" gradientUnits="userSpaceOnUse"><stop offset="0" stop-color="#828c8d"/><stop offset="0.37" stop-color="#a2aeaf"/><stop offset="0.61" stop-color="#b1bfbf"/><stop offset="1" stop-color="#c6d2d3"/></linearGradient><linearGradient id="linear-gradient-12" x1="525.35" y1="101.79" x2="532.08" y2="101.79" gradientTransform="translate(-95.85)" gradientUnits="userSpaceOnUse"><stop offset="0" stop-color="#d6dddd"/><stop offset="1" stop-color="#e9f0f0"/></linearGradient><linearGradient id="linear-gradient-13" x1="-214.94" y1="138.16" x2="-119.43" y2="138.16" gradientTransform="matrix(-1, 0, 0, 1, 216.23, 0)" xlink:href="#linear-gradient-4"/><linearGradient id="linear-gradient-14" x1="519.69" y1="233.78" x2="550.05" y2="233.78" gradientTransform="translate(-197.79)" xlink:href="#linear-gradient-9"/><linearGradient id="linear-gradient-15" x1="527.93" y1="238.35" x2="549.87" y2="238.35" gradientTransform="translate(-197.79)" xlink:href="#linear-gradient-10"/><linearGradient id="linear-gradient-16" x1="532.89" y1="194.89" x2="537.26" y2="194.89" gradientTransform="translate(-197.79)" xlink:href="#linear-gradient-11"/><linearGradient id="linear-gradient-17" x1="531.55" y1="155.75" x2="538.28" y2="155.75" gradientTransform="translate(-197.79)" xlink:href="#linear-gradient-12"/><linearGradient id="linear-gradient-18" x1="-118.61" y1="172.94" x2="-23.11" y2="172.94" gradientTransform="matrix(-1, 0, 0, 1, 216.23, 0)" xlink:href="#linear-gradient-4"/><linearGradient id="linear-gradient-19" x1="79.49" y1="294.23" x2="175" y2="294.23" gradientTransform="matrix(-1, 0, 0, 1, 216.23, 0)" xlink:href="#linear-gradient-4"/><linearGradient id="linear-gradient-20" x1="191.59" y1="371.21" x2="221.95" y2="371.21" xlink:href="#linear-gradient-9"/><linearGradient id="linear-gradient-21" x1="199.83" y1="375.78" x2="221.77" y2="375.78" xlink:href="#linear-gradient-10"/><linearGradient id="linear-gradient-22" x1="204.79" y1="332.32" x2="209.16" y2="332.32" xlink:href="#linear-gradient-11"/><linearGradient id="linear-gradient-23" x1="203.45" y1="293.18" x2="210.18" y2="293.18" xlink:href="#linear-gradient-12"/><linearGradient id="linear-gradient-24" x1="106.96" y1="329.55" x2="202.47" y2="329.55" gradientTransform="matrix(-1, 0, 0, 1, 216.23, 0)" xlink:href="#linear-gradient-4"/><linearGradient id="linear-gradient-25" x1="197.79" y1="425.17" x2="228.15" y2="425.17" gradientTransform="translate(-197.79)" xlink:href="#linear-gradient-9"/><linearGradient id="linear-gradient-26" x1="206.03" y1="429.74" x2="227.96" y2="429.74" gradientTransform="translate(-197.79)" xlink:href="#linear-gradient-10"/><linearGradient id="linear-gradient-27" x1="210.99" y1="386.28" x2="215.36" y2="386.28" gradientTransform="translate(-197.79)" xlink:href="#linear-gradient-11"/><linearGradient id="linear-gradient-28" x1="209.64" y1="347.14" x2="216.38" y2="347.14" gradientTransform="translate(-197.79)" xlink:href="#linear-gradient-12"/><linearGradient id="linear-gradient-29" x1="422.5" y1="314.17" x2="370.14" y2="314.17" gradientUnits="userSpaceOnUse"><stop offset="0" stop-color="#d8dede"/><stop offset="0.14" stop-color="#d3dada"/><stop offset="0.31" stop-color="#c6cecf"/><stop offset="0.48" stop-color="#afbbbc"/><stop offset="0.49" stop-color="#aebabb"/><stop offset="0.82" stop-color="#9ca6a7"/><stop offset="1" stop-color="#90999a"/></linearGradient><linearGradient id="linear-gradient-30" x1="306.68" y1="244.11" x2="404.17" y2="244.11" xlink:href="#linear-gradient-2"/><linearGradient id="linear-gradient-31" x1="393.35" y1="263.97" x2="403.27" y2="274.07" xlink:href="#linear-gradient-4"/><clipPath id="clip-path"><path class="cls-1" d="M333.18,260.75l1-.58c1.49-.85,3.55-.73,5.82.56l-1,.58C336.73,260,334.67,259.9,333.18,260.75Z"/></clipPath><linearGradient id="linear-gradient-32" x1="329.27" y1="262.72" x2="370.12" y2="325.96" gradientUnits="userSpaceOnUse"><stop offset="0" stop-color="#9dc6cc"/><stop offset="0.16" stop-color="#9fc7cd"/><stop offset="0.22" stop-color="#a6cdd3"/><stop offset="0.26" stop-color="#b1d6dc"/><stop offset="0.29" stop-color="#c2e4e9"/><stop offset="0.32" stop-color="#d8f5fa"/><stop offset="0.32" stop-color="#defaff"/><stop offset="1" stop-color="#9dc6cc"/></linearGradient><linearGradient id="linear-gradient-33" x1="373.22" y1="280.26" x2="373.93" y2="347.15" gradientUnits="userSpaceOnUse"><stop offset="0" stop-color="#c8cdcd"/><stop offset="1" stop-color="#c8cdcd"/></linearGradient><linearGradient id="linear-gradient-34" x1="361.16" y1="277.02" x2="374.71" y2="277.02" gradientUnits="userSpaceOnUse"><stop offset="0.35" stop-color="#c6d2d3"/><stop offset="0.37" stop-color="#c8d3d4"/><stop offset="0.38" stop-color="#cfd9da"/><stop offset="0.39" stop-color="#dae2e3"/><stop offset="0.4" stop-color="#ebeff0"/><stop offset="0.4" stop-color="#fff"/><stop offset="0.4" stop-color="#fefefe"/><stop offset="0.47" stop-color="#edf0f0"/><stop offset="0.55" stop-color="#e2e6e6"/><stop offset="0.67" stop-color="#dbe1e1"/><stop offset="1" stop-color="#d9dfdf"/></linearGradient><linearGradient id="linear-gradient-35" x1="353.46" y1="264.14" x2="378.03" y2="337.47" gradientUnits="userSpaceOnUse"><stop offset="0" stop-color="#a6b2b3"/><stop offset="0.62" stop-color="#a8b4b5"/><stop offset="0.85" stop-color="#afb9ba"/><stop offset="1" stop-color="#bac3c4"/></linearGradient><linearGradient id="linear-gradient-36" x1="305.48" y1="402.49" x2="253.12" y2="402.49" xlink:href="#linear-gradient-29"/><linearGradient id="linear-gradient-37" x1="189.66" y1="332.43" x2="287.14" y2="332.43" xlink:href="#linear-gradient-2"/><linearGradient id="linear-gradient-38" x1="276.33" y1="352.28" x2="286.25" y2="362.38" xlink:href="#linear-gradient-4"/></defs><g class="cls-2"><g id="Layer_2" data-name="Layer 2"><g id="_0" data-name="0"><g id="_1" data-name="1"><g id="_10" data-name="10"><g class="cls-2"><polygon class="cls-3" points="300.24 308.71 227.57 267.23 227.27 31.26 299.94 72.74 300.24 308.71"/><polygon class="cls-4" points="290.96 45.09 236.55 14.23 236.55 261.44 290.96 292.3 290.96 45.09"/><polygon class="cls-3" points="299.88 50.04 227.2 8.56 227.19 4.42 299.86 45.9 299.88 50.04"/><polygon class="cls-5" points="299.86 45.9 227.19 4.42 234.98 0 307.65 41.48 299.86 45.9"/><polygon class="cls-6" points="195.65 109.15 122.97 67.67 227.2 8.56 299.88 50.04 195.65 109.15"/><polygon class="cls-7" points="187.87 109.42 115.19 67.93 122.96 63.53 195.63 105.01 187.87 109.42"/><polygon class="cls-3" points="188.24 372.23 115.57 330.74 115.19 67.93 187.87 109.42 188.24 372.23"/><polygon class="cls-8" points="307.65 41.48 308.02 304.3 300.24 308.71 299.94 72.74 195.71 131.85 196.01 367.82 188.24 372.23 187.87 109.42 195.63 105.01 195.65 109.15 299.88 50.04 299.86 45.9 307.65 41.48"/></g><polygon class="cls-9" points="289.21 78.88 206.33 125.89 206.33 109.9 289.21 62.9 289.21 78.88"/><polygon class="cls-10" points="287.05 78.03 287.05 64.13 206.33 109.9 206.33 123.81 287.05 78.03"/><path class="cls-11" d="M230.59,103.18c0,2.17-1.79,4.94-4,6.2s-4,.51-4-1.66,1.79-5,4-6.2S230.59,101,230.59,103.18Z"/><path class="cls-12" d="M229.48,103.81a5.88,5.88,0,0,1-2.89,4.48c-1.59.9-2.89.36-2.89-1.2a5.9,5.9,0,0,1,2.89-4.48C228.19,101.71,229.48,102.24,229.48,103.81Z"/><path class="cls-13" d="M250.68,91.79c0,2.17-1.79,4.94-4,6.2s-4,.5-4-1.67,1.79-4.94,4-6.19S250.68,89.62,250.68,91.79Z"/><path class="cls-12" d="M249.57,92.42a5.87,5.87,0,0,1-2.89,4.47c-1.6.91-2.89.37-2.89-1.2a5.86,5.86,0,0,1,2.89-4.47C248.27,90.31,249.57,90.85,249.57,92.42Z"/><path class="cls-14" d="M270.77,80.4c0,2.17-1.8,4.94-4,6.19s-4,.51-4-1.66,1.79-4.94,4-6.19S270.77,78.23,270.77,80.4Z"/><path class="cls-12" d="M269.65,81a5.87,5.87,0,0,1-2.88,4.47c-1.6.91-2.89.37-2.89-1.2a5.86,5.86,0,0,1,2.89-4.47C268.36,78.92,269.65,79.46,269.65,81Z"/><polygon class="cls-4" points="178.64 128.01 124.23 97.15 124.23 324.11 178.64 354.96 178.64 128.01"/></g><g id="_10-2" data-name="10"><path class="cls-15" d="M281.74,372.48a2.74,2.74,0,0,0,.7-.57,5.46,5.46,0,0,0,.91-1.78,28.81,28.81,0,0,1,4.53-7.93,7.37,7.37,0,0,0,1-1.44,7.55,7.55,0,0,0,.35-3c0-3.14.85-6.19,1.4-9.26a31,31,0,0,0,0-8.65c-.43-4.54-.35-10-2.4-14.24-.71-1.45-1.82-18.46-3.34-17.37-2,1.45-4.58,21.47-6.47,21.95a2.34,2.34,0,0,0-1.25.61,2.6,2.6,0,0,0-.29,2.21,45.33,45.33,0,0,0,1.5,5c.61,2.15,3.31,13.1,4,16.41a26,26,0,0,1-.5,12.15c-.47,1.65-1.24,3.41-2.81,4.16-.75.36-2.19.58-2.12,1.39a2.92,2.92,0,0,0,2.25,2C280,374,281,372.89,281.74,372.48Z"/><path class="cls-15" d="M266.13,381.77a2.92,2.92,0,0,0,.7-.56,5.61,5.61,0,0,0,.91-1.79,29,29,0,0,1,4.53-7.93,7.09,7.09,0,0,0,1-1.44,7.52,7.52,0,0,0,.35-3c0-3.14.85-6.2,1.4-9.27a31,31,0,0,0,0-8.65c-.43-4.54-.35-10-2.4-14.23-1.71-3.5-1.71-10-1.41-13.74.28-3.5,1.8-10.71-2.17-12.84-2.49-1.33-4.1.33-5.14,2.51-1.31,2.72-1.69,5.66-3,8.36a19.93,19.93,0,0,0-1.88,9c0,6.53,2,12.88,3.76,19.11.61,2.14,3.31,13.09,4,16.41a26,26,0,0,1-.5,12.14c-.47,1.66-1.24,3.41-2.81,4.16-.75.36-2.19.58-2.12,1.39a3,3,0,0,0,2.25,2.05C264.43,383.32,265.41,382.19,266.13,381.77Z"/><polygon class="cls-16" points="271.75 375.85 271.75 387.89 272.29 388.22 272.91 376.44 271.75 375.85"/><path class="cls-17" d="M261.63,380.64a2.65,2.65,0,0,0,2.77.6c2.41-1.22,2.75-4,3.59-6.56s2-5.23,4.48-6.39a1.51,1.51,0,0,1,.85-.2c.7.11,1,1,1.07,1.64a10.58,10.58,0,0,1,.16,3.84c-.16.82-.52,1.58-.68,2.4-.22,1.14-.25,11.78-.25,11.78l-1.33.5s.07-7.74,0-10.6c0,0-1.19.36-1.4,1-.39,1.14-.63,6.05-1.38,7a27.89,27.89,0,0,1-2.92,1.14c-1.36-.29-4.83-1-5.63-3.07A2.52,2.52,0,0,1,261.63,380.64Z"/><path class="cls-18" d="M266.58,386.76a27.89,27.89,0,0,0,2.92-1.14c.75-.93,1-5.84,1.38-7a.33.33,0,0,1,.06-.1C266.93,380.48,266.52,386.74,266.58,386.76Z"/><polygon class="cls-16" points="287.48 366.47 287.48 378.51 288.02 378.84 288.64 367.06 287.48 366.47"/><path class="cls-17" d="M277.36,371.26a2.65,2.65,0,0,0,2.77.6c2.41-1.21,2.75-4,3.6-6.56s2-5.23,4.47-6.39a1.53,1.53,0,0,1,.85-.2c.7.11,1,1,1.07,1.64a10.58,10.58,0,0,1,.16,3.84c-.16.82-.51,1.58-.68,2.4-.22,1.14-.24,11.78-.24,11.78l-1.34.5s.08-7.74,0-10.6c0,0-1.18.36-1.4,1-.39,1.15-.63,6.06-1.38,7a27.89,27.89,0,0,1-2.92,1.14c-1.36-.28-4.82-1-5.63-3.07A2.52,2.52,0,0,1,277.36,371.26Z"/><path class="cls-18" d="M282.31,377.38a27.89,27.89,0,0,0,2.92-1.14c.75-.92,1-5.83,1.38-7a.33.33,0,0,1,.06-.1C282.66,371.1,282.25,377.37,282.31,377.38Z"/><path class="cls-19" d="M292.74,333.71a.66.66,0,0,0,.34-.65c-.08-2.93-.54-18.61-.4-24.25.12-5,1.89-10.06,2-15,.11-4.49,1.89-10.4-2.77-12.7-5.9-2.91-12.83-3.63-19.28-3-3.82.4-13.89-.13-13.94,3.9,0,3.4-.51,6.9-.77,10.29-.31,4-.19,8.09-.48,12.13-.38,5.47-.12,11-.42,16.45a147.66,147.66,0,0,0-.18,15.74c5.16,6.08,25.53,1,25.53,1,.39-8.77,1.54-18,2.31-26.75l1.81,25.35A14.36,14.36,0,0,0,292.74,333.71Z"/><path class="cls-15" d="M244.94,276.58a12.42,12.42,0,0,0-4.12,2c-.9.65-1.88,1.18-2.72,1.91-.43.38-1.65,1.78-1.08,2.35.82.83,2.16-1.27,2.84-.61.29.28,0,.72-.15,1a15.82,15.82,0,0,1-1.84,2.09c-.7.81-1.61,2.1-1.12,3.21.36.81,1.56,1.07,2.3,1.42a5.79,5.79,0,0,0,4.16-.6c2.25-1.88,3.61-5.1,4.28-6.58a38.84,38.84,0,0,0,2.25-5,3.8,3.8,0,0,0,.2-1.41,2,2,0,0,0-1.07-1.61C248.27,274.51,245.51,276.43,244.94,276.58Z"/><path class="cls-15" d="M291.22,270.75A12.43,12.43,0,0,0,288,274c-.61.92-1.35,1.74-1.89,2.71-.28.5-.94,2.22-.21,2.57,1.06.51,1.59-1.92,2.47-1.52.36.16.25.67.2,1a16.28,16.28,0,0,1-1,2.58c-.37,1-.79,2.51.06,3.4.62.64,1.83.48,2.65.56a5.7,5.7,0,0,0,3.7-1.95c1.47-2.52,1.64-6,1.77-7.61a39.68,39.68,0,0,0,.4-5.43,4.18,4.18,0,0,0-.3-1.4,2.06,2.06,0,0,0-1.56-1.15C293.63,267.7,291.7,270.42,291.22,270.75Z"/><path class="cls-20" d="M294.2,212.76a4.44,4.44,0,0,0-5.79,2.54c-2.61,7.48,1.82,25.08,4.06,34.94,0,0-3.45,19.24-3.8,21.62-.48,1.93,7.69,2.94,8.21.88.54-1.88,4.95-21.44,5.3-22.8C302.65,248.09,300.26,215.77,294.2,212.76Z"/><path class="cls-21" d="M290.54,248.23c.32-3.37,1.94-6.84,2.68-10.12a95.89,95.89,0,0,0,2-12.83c.29-3.29,1.17-9.39-1.94-11.74s-8.35-.65-11.53.12a71.7,71.7,0,0,0-11.22,3.55c-3.93,1.66-7.83,3.41-9.56,7.41a29.37,29.37,0,0,0-2,12.82c.22,5.41,1.3,10.76,1.69,16.16a85,85,0,0,1-1.54,21.69c-.4,2.2-1.14,8.79-.77,11,1.48,8.86,35,4.66,36.56-2.23a128.56,128.56,0,0,0-2.33-14.62,72.33,72.33,0,0,1-2.12-20.52C290.5,248.69,290.52,248.46,290.54,248.23Z"/><path class="cls-15" d="M282,207c-.92,0-7.53.72-9.86,1.14,0,.73.78,5.81.65,7-.2,1.88-4.37,2.49-4.12,3,1.59,3.12,16.86-.5,16.26-3.84-.16-.89-1.54-.48-2.1-1.18S281.61,207,282,207Z"/><path class="cls-22" d="M289.18,205.48a18.46,18.46,0,0,0,1.84,7.36,9.09,9.09,0,0,1,1.14,2.81,4.68,4.68,0,0,1-2.23,4.34,9.64,9.64,0,0,1-5,1.36,17.65,17.65,0,0,0-2.3.15c-1.76.29-3.29,1.31-5,1.85a9.53,9.53,0,0,1-8.36-1.38c-1.46-1.08-3.18-2-4.94-1.62,1.19-3.07.72-7.26-.11-10.44-2.56-9.79-3.71-25.49,8.74-29.31a16.83,16.83,0,0,1,7.9-.24c4.53-1.26,7.51,2.95,8.32,6.31C290.75,192.91,288.83,199.25,289.18,205.48Z"/><path class="cls-20" d="M267.76,223c-1.63-1.69-4.84-1.36-6.33.46-5,6.17-6.64,23.51-7.93,33.54,0,0-10.19,17.64-11.34,19.76-1.12,1.66,6.22,5.32,7.42,3.57,1.15-1.59,12.8-18.79,13.31-20.1C263.67,258.24,272.42,227.86,267.76,223Z"/></g><g id="_8" data-name="8"><g class="cls-2"><path class="cls-23" d="M443.46,173.65h0c-5-2.82-11.79-3-16.34-1.89a16,16,0,0,0-6.59,3,8.23,8.23,0,0,0-2.16,2.44,5.52,5.52,0,0,0-.73,2.66c0,2.22,1.49,4.45,4.48,6.15,5.95,3.37,15.56,3.38,21.47,0,2.93-1.68,4.4-3.87,4.41-6.07C448,176.44,444.7,174.41,443.46,173.65Z"/><path class="cls-24" d="M447.77,181.28c-.06.19-.12.37-.19.56a6.84,6.84,0,0,1-.51,1,4,4,0,0,1-.33.51,8.45,8.45,0,0,1-1,1.05c-.12.11-.21.22-.34.33a11.81,11.81,0,0,1-1.85,1.3,17.14,17.14,0,0,1-2.12,1l-.58.22c-.56.2-1.13.36-1.71.51l-.87.23c-.69.15-1.39.26-2.11.35l-.5.08a26.77,26.77,0,0,1-2.69.14l-.75,0c-.66,0-1.31,0-2-.11l-.9-.12c-.59-.07-1.16-.17-1.73-.29l-.91-.2q-.87-.22-1.68-.51l-.76-.25a17,17,0,0,1-2.2-1c-3-1.7-4.48-3.93-4.48-6.15v.37l.05.67c0,.21.09.48.14.69l0,.13a.56.56,0,0,1,0,.12s0,0,0,.05v0s0,0,0,0v0s0,.08,0,.11l.08.25c.09.2.23.46.33.66l0,0a1.19,1.19,0,0,0,.09.15l0,.05.11.18.15.23,0,0,.5.62h0l.24.24.15.16.19.19.68.58.1.08,0,0c.05.05.11.08.17.13l.24.17.22.16.85.52.25.13.4.22.27.14,1,.42.05,0,.73.27.23.08.58.18q.57.18,1.14.33l.4.1,1.1.22,1.12.18,1.14.13,1.15.07,1.15,0H434l1.14-.07,1.14-.13,1.12-.17,1.1-.23,1.07-.27.69-.22.18-.05.18-.06,1-.38.56-.25.26-.11.15-.07.91-.48.14-.09a13.72,13.72,0,0,0,1.16-.77l.3-.21.19-.16.46-.4h0a.2.2,0,0,1,.06-.07l.52-.54.14-.17a5.78,5.78,0,0,0,.75-1.08l.15-.33,0,0c0-.06.05-.11.07-.16s.06-.1.08-.14l.08-.26a1.17,1.17,0,0,1,.05-.11v0l.07-.21v0a2,2,0,0,0,.06-.3l0-.06a.28.28,0,0,1,0-.09c0-.08,0-.16,0-.23s0-.47.05-.67v-.34A5,5,0,0,1,447.77,181.28Z"/></g><g class="cls-25"><path class="cls-26" d="M443.76,175.71c-4.47.19-14.29,4.21-18.82,7.51-.67.45-1.84,1.65-1.2,2.56,3.07,4.34,22.48,3.65,24.07-4.76C448.25,178.64,447.08,175.49,443.76,175.71Z"/><path class="cls-27" d="M429,187.77c.79.63,6.68,1.27,11.85-.62,5.55-2,6.62-5.12,6.57-6.14C444,185.51,437.32,187.44,429,187.77Z"/></g><path class="cls-28" d="M429.5,101.86v76.08c0,2.81,6.71,2.71,6.71,0V101.86Z"/><ellipse class="cls-29" cx="432.86" cy="101.79" rx="3.37" ry="1.91"/><g class="cls-2"><polygon class="cls-30" points="335.67 160.93 430.56 107.11 431.15 107.45 335.67 161.6 335.67 160.93"/><polygon class="cls-31" points="335.67 161.6 431.15 107.45 431.18 114.7 335.67 168.87 335.67 161.6"/></g><g class="cls-2"><path class="cls-32" d="M347.72,227.61h0c-5-2.82-11.79-3-16.34-1.89a16,16,0,0,0-6.59,3,8.23,8.23,0,0,0-2.16,2.44,5.49,5.49,0,0,0-.73,2.66c0,2.22,1.49,4.45,4.48,6.15,5.95,3.37,15.56,3.38,21.47,0,2.93-1.68,4.4-3.87,4.41-6.07C352.26,230.4,349,228.37,347.72,227.61Z"/><path class="cls-33" d="M352,235.24c-.06.19-.12.37-.19.56a7.44,7.44,0,0,1-.51,1,4.89,4.89,0,0,1-.33.51,8.45,8.45,0,0,1-1,1c-.12.11-.21.22-.34.33a11.81,11.81,0,0,1-1.85,1.3,17.14,17.14,0,0,1-2.12,1l-.59.22c-.55.2-1.12.36-1.7.51l-.87.23c-.69.15-1.39.26-2.11.35l-.5.08a26.77,26.77,0,0,1-2.69.14l-.75,0c-.66,0-1.31-.05-2-.11l-.9-.12c-.59-.07-1.16-.17-1.73-.29l-.91-.2q-.87-.22-1.68-.51l-.76-.25a18.47,18.47,0,0,1-2.2-1c-3-1.7-4.48-3.93-4.48-6.15v.37l.05.67c0,.21.09.48.14.69l0,.13a.56.56,0,0,1,0,.12l0,0v0s0,0,0,0,0,.07,0,.11l.08.25c.09.2.23.46.33.66l0,0a1.19,1.19,0,0,0,.09.15l0,0,.11.18.15.23,0,0,.5.62h0c.07.08.16.16.24.24l.15.16.19.19.68.58.1.08,0,0,.17.13.24.17.22.16.85.52.25.13.4.22.27.13,1,.43.05,0,.73.27.23.08.58.18,1.14.33.4.1,1.1.22,1.12.18,1.14.13,1.15.07,1.15,0h1.15l1.14-.07,1.14-.13,1.12-.17,1.1-.23,1.07-.27.69-.22.18-.05.18-.06,1-.38.56-.25.26-.11.15-.07.91-.48.14-.09a13.72,13.72,0,0,0,1.16-.77c.1-.07.21-.14.29-.21l.2-.16.46-.4h0a.2.2,0,0,1,.06-.07l.52-.54.14-.17a5.78,5.78,0,0,0,.75-1.08l.15-.33,0,0c0-.06.05-.11.07-.16s.06-.1.08-.14l.08-.26a1.17,1.17,0,0,1,.05-.11v0c0-.06.05-.14.07-.21v-.05a2,2,0,0,0,.06-.3l0-.06a.28.28,0,0,1,0-.09c0-.08,0-.16,0-.23s0-.47.05-.67v-.34A5,5,0,0,1,352,235.24Z"/></g><g class="cls-25"><path class="cls-26" d="M348,229.67c-4.47.19-14.29,4.2-18.82,7.51-.67.45-1.84,1.65-1.2,2.56,3.07,4.34,22.48,3.65,24.06-4.76C352.51,232.6,351.34,229.45,348,229.67Z"/><path class="cls-27" d="M333.3,241.72c.79.64,6.68,1.28,11.85-.61,5.55-2,6.62-5.12,6.57-6.14C348.28,239.47,341.58,241.4,333.3,241.72Z"/></g><path class="cls-34" d="M333.76,155.82V231.9c0,2.81,6.71,2.71,6.71,0V155.82Z"/><ellipse class="cls-35" cx="337.12" cy="155.75" rx="3.37" ry="1.91"/><g class="cls-2"><polygon class="cls-30" points="309.12 176.59 334.83 162.01 334.24 161.67 309.12 175.92 309.12 176.59"/><polygon class="cls-36" points="309.12 183.86 334.85 169.27 334.83 162.01 309.12 176.59 309.12 183.86"/></g></g><g id="_8-2" data-name="8"><g class="cls-2"><polygon class="cls-30" points="111.02 297.89 136.72 283.31 136.13 282.97 111.02 297.22 111.02 297.89"/><polygon class="cls-37" points="111.02 305.16 136.75 290.56 136.72 283.31 111.02 297.89 111.02 305.16"/></g><g class="cls-2"><path class="cls-38" d="M121.55,365h0c-5-2.82-11.78-3-16.33-1.89a16,16,0,0,0-6.59,3,8.23,8.23,0,0,0-2.16,2.44,5.52,5.52,0,0,0-.73,2.66c0,2.22,1.49,4.45,4.48,6.15,6,3.37,15.56,3.38,21.47,0,2.93-1.68,4.4-3.87,4.41-6.07C126.1,367.83,122.8,365.8,121.55,365Z"/><path class="cls-39" d="M125.87,372.67c-.06.19-.12.37-.2.56a5.87,5.87,0,0,1-.5,1,5.54,5.54,0,0,1-.33.51,8.45,8.45,0,0,1-1,1.05c-.12.11-.21.22-.34.33a11.81,11.81,0,0,1-1.85,1.3,17.14,17.14,0,0,1-2.12,1l-.59.22c-.55.2-1.12.36-1.7.51l-.87.23c-.69.15-1.39.26-2.11.35l-.5.08a26.77,26.77,0,0,1-2.69.14l-.75,0c-.66,0-1.31-.05-2-.11-.3,0-.6-.08-.9-.12-.59-.07-1.16-.17-1.73-.29l-.91-.2q-.87-.22-1.68-.51l-.76-.25a17,17,0,0,1-2.2-1c-3-1.7-4.49-3.93-4.48-6.15v.37l.05.67c0,.21.09.48.14.69l0,.13,0,.12s0,0,0,.05v0s0,.08,0,.11l.08.25c.09.2.23.46.32.66l0,0a1.19,1.19,0,0,0,.09.15l0,.05.11.18.15.23,0,0,.5.62h0l.24.24.15.16.19.19.67.58.11.08,0,0c0,.05.11.08.17.13l.24.17.22.16.84.52.26.13.4.22.27.14,1,.42,0,0,.73.27.23.08.57.18,1.15.33.4.1,1.1.22c.34.07.79.13,1.12.18l1.14.13,1.15.07,1.15,0h.7l.45,0,1.14-.07,1.14-.13,1.12-.17,1.1-.23,1.07-.27.69-.22.18-.05.18-.06,1-.38.56-.25.26-.11.15-.07.91-.48.13-.09a12.45,12.45,0,0,0,1.17-.77c.1-.07.21-.14.29-.21l.19-.16c.16-.13.32-.26.47-.4h0l.07-.07c.17-.17.36-.37.51-.54l.15-.17a6.33,6.33,0,0,0,.75-1.08l.15-.33,0,0c0-.06,0-.11.07-.16a.64.64,0,0,1,.08-.14l.08-.26a1.17,1.17,0,0,1,0-.11v0l.07-.21V373a2,2,0,0,0,.06-.3l0-.06a.28.28,0,0,1,0-.09c0-.08,0-.16,0-.23s0-.47,0-.67v-.34A5.38,5.38,0,0,1,125.87,372.67Z"/></g><g class="cls-25"><path class="cls-26" d="M121.86,367.1c-4.47.19-14.3,4.21-18.82,7.51-.68.45-1.84,1.65-1.2,2.56,3.07,4.34,22.48,3.65,24.06-4.76C126.35,370,125.18,366.88,121.86,367.1Z"/><path class="cls-27" d="M107.14,379.16c.79.63,6.68,1.27,11.85-.62,5.55-2,6.62-5.12,6.57-6.14C122.12,376.9,115.42,378.83,107.14,379.16Z"/></g><path class="cls-40" d="M107.6,293.25v76.08c0,2.81,6.71,2.71,6.71,0V293.25Z"/><ellipse class="cls-41" cx="110.96" cy="293.18" rx="3.37" ry="1.91"/><g class="cls-2"><polygon class="cls-30" points="13.77 352.32 108.66 298.5 109.25 298.84 13.77 352.99 13.77 352.32"/><polygon class="cls-42" points="13.77 352.99 109.25 298.84 109.28 306.1 13.77 360.26 13.77 352.99"/></g><g class="cls-2"><path class="cls-43" d="M25.81,419h0c-5-2.82-11.78-3-16.33-1.89a16.13,16.13,0,0,0-6.6,3,8.34,8.34,0,0,0-2.15,2.44A5.52,5.52,0,0,0,0,425.18c0,2.22,1.49,4.45,4.48,6.15,5.95,3.37,15.56,3.38,21.47,0,2.93-1.68,4.4-3.87,4.41-6.07C30.36,421.79,27.06,419.76,25.81,419Z"/><path class="cls-44" d="M30.13,426.63c-.06.19-.12.37-.2.56a6.3,6.3,0,0,1-.5,1,5.54,5.54,0,0,1-.33.51,8.45,8.45,0,0,1-1,1c-.12.11-.21.22-.34.33a12.3,12.3,0,0,1-1.85,1.3,17.14,17.14,0,0,1-2.12,1l-.59.22c-.55.2-1.12.36-1.71.51-.28.08-.56.16-.86.23-.69.15-1.39.26-2.11.35l-.5.08a26.77,26.77,0,0,1-2.69.14l-.75,0c-.66,0-1.31-.05-2-.11l-.9-.12c-.59-.07-1.17-.17-1.73-.29l-.91-.2q-.87-.23-1.68-.51l-.76-.25a17,17,0,0,1-2.2-1c-3-1.7-4.49-3.93-4.48-6.15v.37l.05.67a5.63,5.63,0,0,0,.14.69l0,.13,0,.12s0,0,0,0v0s0,0,0,0,0,.08,0,.11l.08.25c.09.2.23.46.32.66l0,0,.1.15,0,0,.11.18.15.23,0,0,.5.62h0c.07.08.16.16.24.24l.15.16.19.19.67.58.11.08,0,0c.05.05.11.08.17.13l.24.17.22.16.84.52.25.13.41.22.27.14,1,.42,0,0,.73.27.23.08.57.18,1.15.33.4.1,1.1.22,1.12.18,1.14.13,1.15.07,1.15,0h1.15l1.14-.07,1.14-.13,1.12-.17,1.1-.23,1.07-.27.69-.22.18-.05.18-.06,1-.38.56-.25.26-.11.15-.07.91-.48.13-.09a12.45,12.45,0,0,0,1.17-.77c.1-.07.21-.14.29-.21l.19-.16c.16-.13.32-.26.47-.4h0l.07-.07c.17-.17.36-.37.51-.54l.15-.17a6.33,6.33,0,0,0,.75-1.08l.15-.33,0,0c0-.06.05-.11.07-.16a.64.64,0,0,1,.08-.14l.08-.26a1.17,1.17,0,0,1,0-.11v0l.07-.21V427a2,2,0,0,0,.06-.3l0-.06a.28.28,0,0,1,0-.09c0-.08,0-.16,0-.23s0-.47.05-.67v-.34A5.38,5.38,0,0,1,30.13,426.63Z"/></g><g class="cls-25"><path class="cls-26" d="M26.12,421.06c-4.47.19-14.3,4.21-18.82,7.51-.68.45-1.84,1.65-1.2,2.56,3.07,4.34,22.48,3.65,24.06-4.76C30.61,424,29.44,420.84,26.12,421.06Z"/><path class="cls-27" d="M11.4,433.11c.79.64,6.68,1.28,11.85-.61,5.55-2,6.62-5.12,6.57-6.14C26.38,430.86,19.68,432.79,11.4,433.11Z"/></g><path class="cls-45" d="M11.86,347.21v76.08c0,2.81,6.71,2.71,6.71,0V347.21Z"/><ellipse class="cls-46" cx="15.22" cy="347.14" rx="3.37" ry="1.91"/></g><g id="_16" data-name="16"><polygon class="cls-47" points="306.68 222.6 306.42 314.91 385.76 359.91 386.03 267.6 306.68 222.6"/><path class="cls-48" d="M404.14,266.66l-.26,89c0,1.53-1,3.07-3.1,4.24a16.82,16.82,0,0,1-15,0L386,267.6C390.19,270,404.14,268.19,404.14,266.66Z"/><path class="cls-49" d="M401,259.06c3.52,3.35,4.92,11.36-.11,14.14-4.17,2.31-11.59.48-14.86-5.6l-79.35-45,15-8.54Z"/><path class="cls-50" d="M401,259.06l-7.86,4.48L386,267.6c3.27,6.08,10.69,7.91,14.86,5.6C405.92,270.42,404.52,262.41,401,259.06Z"/><path class="cls-51" d="M403,290.11c0,2.85-1.46,6-3.27,7s-3.26-.46-3.26-3.31,1.46-6,3.26-7S403,287.26,403,290.11Z"/><path class="cls-52" d="M402.54,289.76a4.44,4.44,0,0,0-1-3.11,1.9,1.9,0,0,0-1.83.15c-1.8,1-3.26,4.16-3.26,7a4.44,4.44,0,0,0,1,3.11,1.88,1.88,0,0,0,1.82-.15C401.07,295.74,402.54,292.61,402.54,289.76Z"/><path class="cls-53" d="M398.47,291l-1,2.16c0,.07,0,.11.07.08l1.37-.78v2.78c0,.07.05.09.12.05l.84-.48a.22.22,0,0,0,.12-.18v-2.78l1.37-.78c.06,0,.1-.12.07-.15l-1-1.09-.95-1.08s-.11,0-.14.08Z"/><polygon class="cls-54" points="398.97 261.92 389.76 267.17 393.33 271.72 402.53 266.46 398.97 261.92"/><polygon class="cls-55" points="390.19 267.71 393.33 271.72 401.93 266.81 398.79 262.8 390.19 267.71"/><polygon class="cls-56" points="377.25 340.96 372.69 338.37 372.69 271.37 377.25 273.96 377.25 340.96"/><g class="cls-57"><g class="cls-2"><g class="cls-2"><g class="cls-58"><g class="cls-2"><path class="cls-59" d="M333.18,260.75l1-.58c1.49-.85,3.55-.73,5.82.56l-1,.58c-2.28-1.29-4.34-1.41-5.83-.56Z"/></g></g></g><polygon class="cls-60" points="361.8 274.24 362.82 273.65 362.67 325.77 361.65 326.35 361.8 274.24"/><polygon class="cls-61" points="339 261.31 340.02 260.73 362.82 273.65 361.8 274.24 339 261.31"/><path class="cls-62" d="M361.8,274.24l-.15,52.11-22.8-12.93c-4.5-2.56-8.17-8.78-8.16-13.89l.1-33.63c0-5.11,3.71-7.15,8.22-4.59Z"/></g></g><g class="cls-2"><polygon class="cls-63" points="372.44 280.87 372.29 332.98 374.56 331.68 374.71 279.57 372.44 280.87"/><polygon class="cls-64" points="361.16 274.47 363.43 273.17 374.71 279.57 372.44 280.87 361.16 274.47"/><polygon class="cls-65" points="361.16 274.47 361.01 326.58 372.29 332.98 372.44 280.87 361.16 274.47"/></g><path class="cls-66" d="M368.43,285.28c0,1-.8,1.32-1.8.75a3.66,3.66,0,0,1-1.8-2.79c0-1,.81-1.31,1.8-.75A3.67,3.67,0,0,1,368.43,285.28Z"/><path class="cls-66" d="M368.43,324.57c0,1-.8,1.31-1.8.74a3.66,3.66,0,0,1-1.8-2.79c0-1,.81-1.31,1.8-.75A3.67,3.67,0,0,1,368.43,324.57Z"/></g><g id="_16-2" data-name="16"><polygon class="cls-47" points="189.66 310.92 189.39 403.23 268.74 448.23 269 355.92 189.66 310.92"/><path class="cls-67" d="M287.12,355l-.27,89c0,1.54-1,3.07-3.09,4.25a16.88,16.88,0,0,1-15,0l.26-92.31C273.16,358.28,287.11,356.51,287.12,355Z"/><path class="cls-68" d="M284,347.37c3.51,3.35,4.91,11.36-.12,14.15-4.16,2.3-11.59.47-14.86-5.6l-79.34-45,15-8.55Z"/><path class="cls-50" d="M284,347.37l-7.86,4.49L269,355.92c3.27,6.07,10.7,7.9,14.86,5.6C288.89,358.73,287.49,350.72,284,347.37Z"/><path class="cls-51" d="M286,378.43c0,2.84-1.46,6-3.26,7s-3.26-.46-3.26-3.3,1.46-6,3.26-7S286,375.58,286,378.43Z"/><path class="cls-52" d="M285.51,378.07a4.44,4.44,0,0,0-1-3.11,1.86,1.86,0,0,0-1.82.16c-1.8,1-3.26,4.16-3.26,7a4.36,4.36,0,0,0,1,3.1,1.88,1.88,0,0,0,1.82-.15C284.05,384.06,285.51,380.92,285.51,378.07Z"/><path class="cls-53" d="M281.44,379.31l-.95,2.16c0,.07,0,.12.07.08l1.36-.77v2.78c0,.06.06.08.12.05l.85-.48a.26.26,0,0,0,.12-.19v-2.78l1.36-.77c.06,0,.1-.13.07-.16l-.95-1.08-.95-1.08s-.11,0-.15.08Z"/><polygon class="cls-69" points="281.94 350.23 272.74 355.49 276.3 360.03 285.51 354.78 281.94 350.23"/><polygon class="cls-55" points="273.16 356.02 276.3 360.03 284.91 355.12 281.76 351.12 273.16 356.02"/></g></g></g></g></g></svg>