<svg width="335" height="109" viewBox="0 0 335 109" fill="none" xmlns="http://www.w3.org/2000/svg">
<g filter="url(#filter0_d_277_724)">
<rect x="5.87692" y="0.879883" width="328.56" height="108" rx="12" fill="#DC2626"/>
<g clip-path="url(#clip0_277_724)">
<path d="M58.2091 57.0741C58.2091 56.4158 57.7798 55.9769 57.1358 55.9769H44.2563C43.6123 55.9769 43.183 56.4158 43.183 57.0741V68.0465C43.183 68.7048 43.6123 69.1437 44.2563 69.3632L57.1358 70.8993C57.7798 70.8993 58.2091 70.4604 58.2091 70.0215V57.0741ZM61.429 55.9769C60.785 55.9769 60.3557 56.4158 60.3557 57.0741V70.0215C60.3557 70.6799 60.785 71.1188 61.429 71.3382L80.7482 73.5327C81.3922 73.5327 81.8215 73.0938 81.8215 72.6549V57.2936C81.8215 56.6352 81.3922 56.1963 80.7482 56.1963L61.429 55.9769ZM58.2091 39.9572C58.2091 39.2989 57.7798 38.86 57.1358 39.0794L44.2563 40.6155C43.6123 40.6155 43.183 41.0544 43.183 41.7128V52.6852C43.183 53.3435 43.6123 53.7824 44.2563 53.7824H57.1358C57.7798 53.7824 58.2091 53.3435 58.2091 52.6852V39.9572ZM61.429 38.6405C60.785 38.6405 60.3557 39.2989 60.3557 39.9572V52.9046C60.3557 53.563 60.785 54.0018 61.429 54.0018H80.7482C81.3922 54.0018 81.8215 53.563 81.8215 52.9046V37.5433C81.8215 36.8849 81.3922 36.446 80.7482 36.6655L61.429 38.6405Z" fill="white"/>
</g>
<path d="M116.679 45.3799V32.3227H122.61C124.028 32.3227 125.278 32.5963 126.36 33.1435C127.442 33.6782 128.287 34.4305 128.896 35.4005C129.506 36.3705 129.81 37.5207 129.81 38.8513C129.81 40.1695 129.506 41.3197 128.896 42.3021C128.287 43.2721 127.442 44.0306 126.36 44.5778C125.278 45.1125 124.028 45.3799 122.61 45.3799H116.679ZM119.7 42.899H122.461C123.332 42.899 124.084 42.7374 124.718 42.414C125.365 42.0783 125.862 41.6057 126.21 40.9964C126.571 40.3871 126.751 39.672 126.751 38.8513C126.751 38.0181 126.571 37.3031 126.21 36.7062C125.862 36.0969 125.365 35.6306 124.718 35.3072C124.084 34.9715 123.332 34.8036 122.461 34.8036H119.7V42.899ZM136.926 45.5291C135.856 45.5291 134.905 45.3053 134.072 44.8576C133.251 44.4099 132.598 43.8006 132.113 43.0296C131.641 42.2462 131.404 41.357 131.404 40.3622C131.404 39.3549 131.641 38.4658 132.113 37.6948C132.598 36.9114 133.251 36.3021 134.072 35.8668C134.905 35.4192 135.856 35.1953 136.926 35.1953C137.983 35.1953 138.928 35.4192 139.761 35.8668C140.594 36.3021 141.247 36.9052 141.72 37.6762C142.192 38.4472 142.428 39.3425 142.428 40.3622C142.428 41.357 142.192 42.2462 141.72 43.0296C141.247 43.8006 140.594 44.4099 139.761 44.8576C138.928 45.3053 137.983 45.5291 136.926 45.5291ZM136.926 43.1415C137.411 43.1415 137.846 43.0296 138.232 42.8058C138.617 42.5819 138.922 42.2648 139.146 41.8545C139.369 41.4317 139.481 40.9342 139.481 40.3622C139.481 39.7777 139.369 39.2803 139.146 38.87C138.922 38.4596 138.617 38.1425 138.232 37.9187C137.846 37.6948 137.411 37.5829 136.926 37.5829C136.441 37.5829 136.006 37.6948 135.62 37.9187C135.235 38.1425 134.924 38.4596 134.687 38.87C134.464 39.2803 134.352 39.7777 134.352 40.3622C134.352 40.9342 134.464 41.4317 134.687 41.8545C134.924 42.2648 135.235 42.5819 135.62 42.8058C136.006 43.0296 136.441 43.1415 136.926 43.1415ZM146.661 45.3799L143.042 35.3445H145.784L148.787 43.9809H147.482L150.615 35.3445H153.078L156.118 43.9809H154.812L157.909 35.3445H160.483L156.846 45.3799H154.029L151.362 37.9746H152.22L149.459 45.3799H146.661ZM168.202 35.1953C168.998 35.1953 169.706 35.357 170.328 35.6803C170.962 35.9912 171.46 36.4762 171.82 37.1352C172.181 37.7819 172.361 38.615 172.361 39.6347V45.3799H169.451V40.0824C169.451 39.2741 169.271 38.6772 168.911 38.2917C168.562 37.9062 168.065 37.7135 167.418 37.7135C166.958 37.7135 166.542 37.813 166.169 38.0119C165.808 38.1985 165.522 38.4907 165.311 38.8886C165.112 39.2866 165.012 39.7964 165.012 40.4182V45.3799H162.102V35.3445H164.881V38.1238L164.359 37.2845C164.72 36.6129 165.236 36.0969 165.907 35.7363C166.579 35.3756 167.344 35.1953 168.202 35.1953ZM175.265 45.3799V31.5393H178.175V45.3799H175.265ZM185.918 45.5291C184.848 45.5291 183.897 45.3053 183.064 44.8576C182.243 44.4099 181.59 43.8006 181.105 43.0296C180.633 42.2462 180.396 41.357 180.396 40.3622C180.396 39.3549 180.633 38.4658 181.105 37.6948C181.59 36.9114 182.243 36.3021 183.064 35.8668C183.897 35.4192 184.848 35.1953 185.918 35.1953C186.975 35.1953 187.92 35.4192 188.753 35.8668C189.586 36.3021 190.239 36.9052 190.711 37.6762C191.184 38.4472 191.42 39.3425 191.42 40.3622C191.42 41.357 191.184 42.2462 190.711 43.0296C190.239 43.8006 189.586 44.4099 188.753 44.8576C187.92 45.3053 186.975 45.5291 185.918 45.5291ZM185.918 43.1415C186.403 43.1415 186.838 43.0296 187.223 42.8058C187.609 42.5819 187.914 42.2648 188.137 41.8545C188.361 41.4317 188.473 40.9342 188.473 40.3622C188.473 39.7777 188.361 39.2803 188.137 38.87C187.914 38.4596 187.609 38.1425 187.223 37.9187C186.838 37.6948 186.403 37.5829 185.918 37.5829C185.433 37.5829 184.997 37.6948 184.612 37.9187C184.226 38.1425 183.916 38.4596 183.679 38.87C183.455 39.2803 183.344 39.7777 183.344 40.3622C183.344 40.9342 183.455 41.4317 183.679 41.8545C183.916 42.2648 184.226 42.5819 184.612 42.8058C184.997 43.0296 185.433 43.1415 185.918 43.1415ZM199.623 45.3799V43.4213L199.437 42.9923V39.4855C199.437 38.8638 199.244 38.3788 198.859 38.0306C198.485 37.6824 197.907 37.5083 197.124 37.5083C196.589 37.5083 196.061 37.5953 195.538 37.7694C195.028 37.9311 194.593 38.1549 194.233 38.4409L193.188 36.4078C193.735 36.0223 194.394 35.7238 195.165 35.5124C195.936 35.301 196.72 35.1953 197.516 35.1953C199.045 35.1953 200.233 35.5559 201.078 36.2772C201.924 36.9984 202.347 38.1238 202.347 39.6534V45.3799H199.623ZM196.564 45.5291C195.781 45.5291 195.109 45.3985 194.55 45.1374C193.99 44.8638 193.561 44.497 193.263 44.0369C192.964 43.5768 192.815 43.0607 192.815 42.4887C192.815 41.8918 192.958 41.3695 193.244 40.9218C193.542 40.4741 194.009 40.1259 194.643 39.8772C195.277 39.6161 196.104 39.4855 197.124 39.4855H199.791V41.1829H197.441C196.757 41.1829 196.284 41.2949 196.023 41.5187C195.775 41.7425 195.65 42.0223 195.65 42.3581C195.65 42.7311 195.793 43.0296 196.079 43.2534C196.378 43.4648 196.782 43.5705 197.292 43.5705C197.777 43.5705 198.212 43.4586 198.597 43.2348C198.983 42.9985 199.263 42.6565 199.437 42.2089L199.884 43.5519C199.673 44.1985 199.288 44.6897 198.728 45.0255C198.168 45.3612 197.447 45.5291 196.564 45.5291ZM209.628 45.5291C208.683 45.5291 207.832 45.3177 207.073 44.8949C206.314 44.4597 205.711 43.8566 205.264 43.0856C204.828 42.3146 204.611 41.4068 204.611 40.3622C204.611 39.3052 204.828 38.3912 205.264 37.6202C205.711 36.8492 206.314 36.2523 207.073 35.8295C207.832 35.4067 208.683 35.1953 209.628 35.1953C210.474 35.1953 211.214 35.3818 211.848 35.7549C212.482 36.128 212.974 36.6938 213.322 37.4523C213.67 38.2109 213.844 39.1809 213.844 40.3622C213.844 41.5311 213.676 42.5011 213.34 43.2721C213.005 44.0306 212.52 44.5965 211.885 44.9695C211.264 45.3426 210.511 45.5291 209.628 45.5291ZM210.132 43.1415C210.605 43.1415 211.034 43.0296 211.419 42.8058C211.805 42.5819 212.109 42.2648 212.333 41.8545C212.569 41.4317 212.688 40.9342 212.688 40.3622C212.688 39.7777 212.569 39.2803 212.333 38.87C212.109 38.4596 211.805 38.1425 211.419 37.9187C211.034 37.6948 210.605 37.5829 210.132 37.5829C209.647 37.5829 209.212 37.6948 208.826 37.9187C208.441 38.1425 208.13 38.4596 207.894 38.87C207.67 39.2803 207.558 39.7777 207.558 40.3622C207.558 40.9342 207.67 41.4317 207.894 41.8545C208.13 42.2648 208.441 42.5819 208.826 42.8058C209.212 43.0296 209.647 43.1415 210.132 43.1415ZM212.762 45.3799V43.328L212.818 40.3436L212.632 37.3777V31.5393H215.541V45.3799H212.762ZM228.825 45.5291C227.756 45.5291 226.805 45.3053 225.971 44.8576C225.151 44.4099 224.498 43.8006 224.013 43.0296C223.54 42.2462 223.304 41.357 223.304 40.3622C223.304 39.3549 223.54 38.4658 224.013 37.6948C224.498 36.9114 225.151 36.3021 225.971 35.8668C226.805 35.4192 227.756 35.1953 228.825 35.1953C229.882 35.1953 230.827 35.4192 231.661 35.8668C232.494 36.3021 233.147 36.9052 233.619 37.6762C234.092 38.4472 234.328 39.3425 234.328 40.3622C234.328 41.357 234.092 42.2462 233.619 43.0296C233.147 43.8006 232.494 44.4099 231.661 44.8576C230.827 45.3053 229.882 45.5291 228.825 45.5291ZM228.825 43.1415C229.31 43.1415 229.746 43.0296 230.131 42.8058C230.517 42.5819 230.821 42.2648 231.045 41.8545C231.269 41.4317 231.381 40.9342 231.381 40.3622C231.381 39.7777 231.269 39.2803 231.045 38.87C230.821 38.4596 230.517 38.1425 230.131 37.9187C229.746 37.6948 229.31 37.5829 228.825 37.5829C228.34 37.5829 227.905 37.6948 227.52 37.9187C227.134 38.1425 226.823 38.4596 226.587 38.87C226.363 39.2803 226.251 39.7777 226.251 40.3622C226.251 40.9342 226.363 41.4317 226.587 41.8545C226.823 42.2648 227.134 42.5819 227.52 42.8058C227.905 43.0296 228.34 43.1415 228.825 43.1415ZM242.639 35.1953C243.435 35.1953 244.144 35.357 244.766 35.6803C245.4 35.9912 245.897 36.4762 246.258 37.1352C246.618 37.7819 246.799 38.615 246.799 39.6347V45.3799H243.889V40.0824C243.889 39.2741 243.708 38.6772 243.348 38.2917C243 37.9062 242.502 37.7135 241.856 37.7135C241.396 37.7135 240.979 37.813 240.606 38.0119C240.245 38.1985 239.959 38.4907 239.748 38.8886C239.549 39.2866 239.449 39.7964 239.449 40.4182V45.3799H236.54V35.3445H239.319V38.1238L238.797 37.2845C239.157 36.6129 239.673 36.0969 240.345 35.7363C241.016 35.3756 241.781 35.1953 242.639 35.1953Z" fill="white"/>
<path d="M120.481 77.3799L115.599 62.4574H119.181L123.423 75.6745H121.632L126.067 62.4574H129.264L133.528 75.6745H131.801L136.15 62.4574H139.454L134.572 77.3799H130.863L127.09 65.783H128.07L124.191 77.3799H120.481ZM141.468 77.3799V65.9109H144.794V77.3799H141.468ZM143.131 64.3121C142.52 64.3121 142.022 64.1344 141.639 63.7791C141.255 63.4238 141.063 62.9833 141.063 62.4574C141.063 61.9316 141.255 61.491 141.639 61.1357C142.022 60.7804 142.52 60.6028 143.131 60.6028C143.742 60.6028 144.239 60.7733 144.623 61.1144C145.007 61.4413 145.199 61.8677 145.199 62.3935C145.199 62.9478 145.007 63.4096 144.623 63.7791C144.254 64.1344 143.756 64.3121 143.131 64.3121ZM154.984 65.7404C155.894 65.7404 156.704 65.9251 157.414 66.2946C158.139 66.6499 158.708 67.2042 159.12 67.9574C159.532 68.6964 159.738 69.6486 159.738 70.814V77.3799H156.413V71.3256C156.413 70.4019 156.206 69.7197 155.794 69.2791C155.396 68.8386 154.828 68.6183 154.089 68.6183C153.563 68.6183 153.087 68.732 152.661 68.9594C152.248 69.1725 151.922 69.5065 151.68 69.9613C151.453 70.4161 151.339 70.9988 151.339 71.7094V77.3799H148.013V65.9109H151.19V69.0873L150.593 68.128C151.005 67.3605 151.595 66.7707 152.362 66.3586C153.13 65.9465 154.004 65.7404 154.984 65.7404ZM167.893 77.5504C166.813 77.5504 165.84 77.3088 164.973 76.8256C164.106 76.3282 163.417 75.6389 162.905 74.7578C162.408 73.8767 162.159 72.8392 162.159 71.6454C162.159 70.4374 162.408 69.3928 162.905 68.5117C163.417 67.6306 164.106 66.9484 164.973 66.4652C165.84 65.982 166.813 65.7404 167.893 65.7404C168.86 65.7404 169.705 65.9536 170.43 66.3799C171.155 66.8063 171.716 67.4529 172.114 68.3198C172.512 69.1868 172.711 70.2953 172.711 71.6454C172.711 72.9813 172.519 74.0898 172.136 74.971C171.752 75.8379 171.198 76.4845 170.473 76.9109C169.762 77.3372 168.903 77.5504 167.893 77.5504ZM168.469 74.8218C169.009 74.8218 169.499 74.6938 169.94 74.438C170.381 74.1822 170.729 73.8198 170.985 73.3508C171.255 72.8676 171.39 72.2991 171.39 71.6454C171.39 70.9774 171.255 70.409 170.985 69.94C170.729 69.471 170.381 69.1086 169.94 68.8528C169.499 68.597 169.009 68.4691 168.469 68.4691C167.915 68.4691 167.417 68.597 166.977 68.8528C166.536 69.1086 166.181 69.471 165.911 69.94C165.655 70.409 165.527 70.9774 165.527 71.6454C165.527 72.2991 165.655 72.8676 165.911 73.3508C166.181 73.8198 166.536 74.1822 166.977 74.438C167.417 74.6938 167.915 74.8218 168.469 74.8218ZM171.475 77.3799V75.0349L171.539 71.6241L171.326 68.2346V61.5621H174.651V77.3799H171.475ZM183.32 77.5504C182.097 77.5504 181.01 77.2946 180.058 76.783C179.12 76.2714 178.374 75.575 177.82 74.6938C177.28 73.7985 177.01 72.7823 177.01 71.6454C177.01 70.4942 177.28 69.4781 177.82 68.597C178.374 67.7016 179.12 67.0052 180.058 66.5078C181.01 65.9962 182.097 65.7404 183.32 65.7404C184.528 65.7404 185.608 65.9962 186.56 66.5078C187.512 67.0052 188.258 67.6945 188.798 68.5756C189.338 69.4568 189.608 70.48 189.608 71.6454C189.608 72.7823 189.338 73.7985 188.798 74.6938C188.258 75.575 187.512 76.2714 186.56 76.783C185.608 77.2946 184.528 77.5504 183.32 77.5504ZM183.32 74.8218C183.874 74.8218 184.371 74.6938 184.812 74.438C185.253 74.1822 185.601 73.8198 185.857 73.3508C186.112 72.8676 186.24 72.2991 186.24 71.6454C186.24 70.9774 186.112 70.409 185.857 69.94C185.601 69.471 185.253 69.1086 184.812 68.8528C184.371 68.597 183.874 68.4691 183.32 68.4691C182.765 68.4691 182.268 68.597 181.827 68.8528C181.387 69.1086 181.032 69.471 180.762 69.94C180.506 70.409 180.378 70.9774 180.378 71.6454C180.378 72.2991 180.506 72.8676 180.762 73.3508C181.032 73.8198 181.387 74.1822 181.827 74.438C182.268 74.6938 182.765 74.8218 183.32 74.8218ZM194.274 77.3799L190.139 65.9109H193.272L196.705 75.781H195.212L198.794 65.9109H201.608L205.083 75.781H203.59L207.129 65.9109H210.071L205.914 77.3799H202.695L199.646 68.9167H200.627L197.472 77.3799H194.274ZM215.442 77.5504C214.461 77.5504 213.516 77.4367 212.607 77.2093C211.711 76.9677 211.001 76.6693 210.475 76.314L211.584 73.9264C212.109 74.2533 212.728 74.5233 213.438 74.7365C214.163 74.9354 214.874 75.0349 215.57 75.0349C216.337 75.0349 216.877 74.9426 217.19 74.7578C217.517 74.573 217.68 74.3172 217.68 73.9904C217.68 73.7203 217.553 73.5214 217.297 73.3935C217.055 73.2513 216.728 73.1448 216.316 73.0737C215.904 73.0026 215.449 72.9316 214.952 72.8605C214.469 72.7895 213.978 72.6971 213.481 72.5834C212.983 72.4555 212.529 72.2707 212.117 72.0291C211.704 71.7875 211.37 71.4606 211.115 71.0485C210.873 70.6364 210.752 70.1034 210.752 69.4497C210.752 68.7249 210.958 68.0853 211.37 67.5311C211.797 66.9768 212.408 66.5433 213.204 66.2307C214 65.9038 214.952 65.7404 216.06 65.7404C216.842 65.7404 217.638 65.8257 218.448 65.9962C219.258 66.1667 219.933 66.4154 220.473 66.7423L219.365 69.1086C218.81 68.7817 218.249 68.5614 217.68 68.4477C217.126 68.3198 216.586 68.2559 216.06 68.2559C215.321 68.2559 214.781 68.3554 214.44 68.5543C214.099 68.7533 213.929 69.0091 213.929 69.3218C213.929 69.606 214.049 69.8192 214.291 69.9613C214.547 70.1034 214.881 70.2171 215.293 70.3024C215.705 70.3877 216.153 70.4658 216.636 70.5369C217.133 70.5937 217.631 70.6861 218.128 70.814C218.626 70.9419 219.073 71.1267 219.471 71.3683C219.883 71.5957 220.217 71.9154 220.473 72.3276C220.729 72.7255 220.857 73.2513 220.857 73.9051C220.857 74.6157 220.644 75.2481 220.217 75.8024C219.791 76.3424 219.173 76.7688 218.363 77.0814C217.567 77.3941 216.593 77.5504 215.442 77.5504ZM234.35 77.6357C233.156 77.6357 232.012 77.4794 230.918 77.1667C229.823 76.8398 228.942 76.4206 228.274 75.909L229.447 73.3082C230.086 73.763 230.84 74.1396 231.707 74.438C232.588 74.7223 233.476 74.8644 234.371 74.8644C235.053 74.8644 235.601 74.8004 236.013 74.6725C236.439 74.5304 236.752 74.3385 236.951 74.0969C237.15 73.8553 237.249 73.5782 237.249 73.2656C237.249 72.8676 237.093 72.555 236.78 72.3276C236.468 72.086 236.055 71.8941 235.544 71.752C235.032 71.5957 234.464 71.4535 233.838 71.3256C233.227 71.1835 232.609 71.013 231.984 70.814C231.373 70.615 230.811 70.3592 230.3 70.0466C229.788 69.7339 229.369 69.3218 229.042 68.8101C228.729 68.2985 228.573 67.6448 228.573 66.8489C228.573 65.9962 228.8 65.2216 229.255 64.5253C229.724 63.8147 230.42 63.2533 231.344 62.8412C232.282 62.4148 233.455 62.2016 234.862 62.2016C235.8 62.2016 236.723 62.3153 237.633 62.5427C238.542 62.7559 239.345 63.0828 240.042 63.5233L238.976 66.1454C238.28 65.7475 237.583 65.4561 236.887 65.2714C236.19 65.0724 235.508 64.9729 234.84 64.9729C234.172 64.9729 233.625 65.0511 233.199 65.2074C232.772 65.3638 232.467 65.5698 232.282 65.8256C232.097 66.0673 232.005 66.3515 232.005 66.6784C232.005 67.0621 232.161 67.3747 232.474 67.6163C232.787 67.8437 233.199 68.0285 233.71 68.1706C234.222 68.3127 234.783 68.4548 235.395 68.597C236.02 68.7391 236.638 68.9025 237.249 69.0873C237.875 69.272 238.443 69.5207 238.955 69.8334C239.466 70.1461 239.878 70.5582 240.191 71.0698C240.518 71.5814 240.681 72.2281 240.681 73.0097C240.681 73.8482 240.447 74.6157 239.978 75.3121C239.509 76.0084 238.805 76.5698 237.867 76.9962C236.944 77.4225 235.771 77.6357 234.35 77.6357ZM247.63 77.5504C246.28 77.5504 245.228 77.2093 244.475 76.5272C243.722 75.8308 243.345 74.8004 243.345 73.4361V63.3741H246.67V73.3935C246.67 73.8767 246.798 74.2533 247.054 74.5233C247.31 74.7791 247.658 74.907 248.099 74.907C248.625 74.907 249.072 74.7649 249.442 74.4807L250.337 76.8256C249.996 77.0672 249.584 77.252 249.101 77.3799C248.632 77.4936 248.141 77.5504 247.63 77.5504ZM241.576 68.7249V66.1667H249.527V68.7249H241.576ZM257.441 77.5504C256.218 77.5504 255.131 77.2946 254.179 76.783C253.241 76.2714 252.495 75.575 251.941 74.6938C251.401 73.7985 251.131 72.7823 251.131 71.6454C251.131 70.4942 251.401 69.4781 251.941 68.597C252.495 67.7016 253.241 67.0052 254.179 66.5078C255.131 65.9962 256.218 65.7404 257.441 65.7404C258.649 65.7404 259.729 65.9962 260.681 66.5078C261.633 67.0052 262.379 67.6945 262.919 68.5756C263.459 69.4568 263.729 70.48 263.729 71.6454C263.729 72.7823 263.459 73.7985 262.919 74.6938C262.379 75.575 261.633 76.2714 260.681 76.783C259.729 77.2946 258.649 77.5504 257.441 77.5504ZM257.441 74.8218C257.995 74.8218 258.492 74.6938 258.933 74.438C259.373 74.1822 259.722 73.8198 259.977 73.3508C260.233 72.8676 260.361 72.2991 260.361 71.6454C260.361 70.9774 260.233 70.409 259.977 69.94C259.722 69.471 259.373 69.1086 258.933 68.8528C258.492 68.597 257.995 68.4691 257.441 68.4691C256.886 68.4691 256.389 68.597 255.948 68.8528C255.508 69.1086 255.153 69.471 254.882 69.94C254.627 70.409 254.499 70.9774 254.499 71.6454C254.499 72.2991 254.627 72.8676 254.882 73.3508C255.153 73.8198 255.508 74.1822 255.948 74.438C256.389 74.6938 256.886 74.8218 257.441 74.8218ZM266.085 77.3799V65.9109H269.262V69.1512L268.814 68.2132C269.155 67.4032 269.702 66.7921 270.456 66.3799C271.209 65.9536 272.125 65.7404 273.206 65.7404V68.8101C273.063 68.7959 272.936 68.7888 272.822 68.7888C272.708 68.7746 272.587 68.7675 272.459 68.7675C271.55 68.7675 270.811 69.0304 270.242 69.5563C269.688 70.0679 269.411 70.8709 269.411 71.9652V77.3799H266.085ZM280.925 77.5504C279.617 77.5504 278.466 77.2946 277.471 76.783C276.491 76.2714 275.73 75.575 275.19 74.6938C274.65 73.7985 274.38 72.7823 274.38 71.6454C274.38 70.4942 274.643 69.4781 275.169 68.597C275.709 67.7016 276.441 67.0052 277.365 66.5078C278.289 65.9962 279.333 65.7404 280.498 65.7404C281.621 65.7404 282.63 65.982 283.526 66.4652C284.435 66.9342 285.153 67.6163 285.679 68.5117C286.205 69.3928 286.467 70.4516 286.467 71.688C286.467 71.8159 286.46 71.9652 286.446 72.1357C286.432 72.292 286.418 72.4413 286.403 72.5834H277.088V70.6435H284.655L283.376 71.219C283.376 70.6221 283.256 70.1034 283.014 69.6628C282.772 69.2223 282.438 68.8812 282.012 68.6396C281.586 68.3838 281.088 68.2559 280.52 68.2559C279.951 68.2559 279.447 68.3838 279.006 68.6396C278.58 68.8812 278.246 69.2294 278.004 69.6842C277.763 70.1247 277.642 70.6506 277.642 71.2617V71.7733C277.642 72.3986 277.777 72.9529 278.047 73.4361C278.331 73.9051 278.722 74.2675 279.219 74.5233C279.731 74.7649 280.328 74.8857 281.01 74.8857C281.621 74.8857 282.154 74.7933 282.609 74.6086C283.078 74.4238 283.504 74.1467 283.888 73.7772L285.657 75.6958C285.132 76.2927 284.471 76.7546 283.675 77.0814C282.879 77.3941 281.962 77.5504 280.925 77.5504Z" fill="white"/>
</g>
<defs>
<filter id="filter0_d_277_724" x="0.54748" y="-1.78484" width="339.219" height="118.659" filterUnits="userSpaceOnUse" color-interpolation-filters="sRGB">
<feFlood flood-opacity="0" result="BackgroundImageFix"/>
<feColorMatrix in="SourceAlpha" type="matrix" values="0 0 0 0 0 0 0 0 0 0 0 0 0 0 0 0 0 0 127 0" result="hardAlpha"/>
<feOffset dy="2.66472"/>
<feGaussianBlur stdDeviation="2.66472"/>
<feColorMatrix type="matrix" values="0 0 0 0 0 0 0 0 0 0 0 0 0 0 0 0 0 0 0.1 0"/>
<feBlend mode="normal" in2="BackgroundImageFix" result="effect1_dropShadow_277_724"/>
<feBlend mode="normal" in="SourceGraphic" in2="effect1_dropShadow_277_724" result="shape"/>
</filter>
<clipPath id="clip0_277_724">
<rect width="38.6385" height="37.3062" fill="white" transform="translate(43.183 36.2266)"/>
</clipPath>
</defs>
</svg>
